<svg width="372" height="313" viewBox="0 0 372 313" fill="none" xmlns="http://www.w3.org/2000/svg">
<g clip-path="url(#clip0_1311_6871)">
<path d="M243.76 250.459L320.725 312.52H316.389L227.5 250.459H243.76Z" fill="#C7C7C7"/>
<path d="M236.531 250.459L274.561 312.52H270.225L223.612 250.459H236.531Z" fill="#C7C7C7"/>
<path d="M217.881 250.459L179.851 312.52H184.187L230.8 250.459H217.881Z" fill="#C7C7C7"/>
<path d="M211.239 250.459L134.274 312.52H138.611L227.5 250.459H211.239Z" fill="#C7C7C7"/>
<path d="M82.7831 227.694V209.537L188.475 205.201L244.301 56.1489H372.215L326.958 227.694L218.827 258.047H212.052L82.7831 227.694Z" fill="#455A64"/>
<path d="M372.215 56.1489H357.581L310.427 212.519L214.763 239.619L82.7831 209.537V227.694L212.052 258.047H218.827L326.958 227.694L372.215 56.1489Z" fill="#37474F"/>
<path d="M5.05608 311.897C8.46615 311.974 96.9151 284.633 99.6236 281.465C99.9169 281.114 98.536 268.018 96.2518 257.62C96.146 257.123 127.661 215.829 127.661 215.829L70.6789 193.664L43.4206 250.146L36.3283 264.832C36.3283 264.832 6.82309 294.495 4.21036 298.294C1.62786 302.097 1.64501 311.819 5.05608 311.897Z" fill="#EBEBEB"/>
<path d="M2.56607 312.395C6.12128 312.489 98.4581 284.303 101.301 281.002C102.385 279.757 100.734 274.044 96.2526 257.62L35.7151 264.91C35.7151 264.91 4.47121 294.249 1.74255 298.203C-0.96595 302.15 -0.989143 312.299 2.56607 312.395Z" fill="#37A67E"/>
<path d="M2.76264 308.296C18.1246 303.192 80.5691 284.052 96.1427 280.173C96.2687 280.141 96.295 280.227 96.172 280.27C81.056 285.663 18.4582 304.296 2.83924 308.55C2.51064 308.64 2.43806 308.404 2.76264 308.296Z" fill="#263238"/>
<path d="M6.66792 293.069C10.2927 291.799 14.4124 292.447 17.0816 294.022C19.6459 295.535 22.1931 297.988 23.063 301.23C23.0882 301.323 22.9189 301.378 22.8755 301.287C20.1428 295.5 13.0092 291.861 6.72637 293.263C6.59936 293.29 6.54293 293.112 6.66792 293.069Z" fill="#263238"/>
<path d="M29.4617 271.017C35.6306 269.04 43.481 269.034 48.8778 272.926C49.0865 273.077 48.8697 273.371 48.657 273.333C42.1746 272.156 36.1951 271.629 29.5887 271.812C29.122 271.825 29.0202 271.159 29.4617 271.017Z" fill="#263238"/>
<path d="M25.2488 274.341C31.4178 272.364 39.2681 272.358 44.6649 276.25C44.8735 276.4 44.6558 276.695 44.4431 276.657C37.9617 275.48 31.9812 274.954 25.3748 275.136C24.9091 275.149 24.8073 274.483 25.2488 274.341Z" fill="#263238"/>
<path d="M21.0351 277.665C27.204 275.688 35.0543 275.683 40.4511 279.575C40.6608 279.725 40.4431 280.02 40.2294 279.982C33.7479 278.804 27.7675 278.278 21.1611 278.461C20.6954 278.474 20.5936 277.807 21.0351 277.665Z" fill="#263238"/>
<path d="M16.8229 280.99C22.9919 279.012 30.8422 279.007 36.238 282.898C36.4477 283.049 36.2299 283.343 36.0172 283.305C29.5358 282.128 23.5553 281.602 16.9489 281.784C16.4832 281.798 16.3814 281.132 16.8229 280.99Z" fill="#263238"/>
<path d="M17.723 256.528C20.0646 252.971 24.7911 254.306 27.5489 256.416C32.0154 259.833 36.0383 265.306 38.014 270.54C38.0624 270.669 37.9787 270.753 37.8739 270.776C37.8769 271.26 37.4667 271.793 36.9123 271.616C31.5699 269.911 25.6479 268.751 20.9879 265.458C18.2683 263.536 15.5074 259.893 17.723 256.528ZM29.3432 267.375C31.9499 268.277 34.5858 269.047 37.1582 270.044C35.1089 267.296 33.1897 264.471 30.8653 261.93C29.7555 260.717 28.5932 259.493 27.3272 258.442C25.3565 256.806 17.6947 253.485 19.1362 260.414C19.9305 264.233 26.2365 266.3 29.3432 267.375Z" fill="#263238"/>
<path d="M54.1062 268.138C48.9654 270.614 42.9326 270.776 37.3815 271.572C36.806 271.654 36.4894 271.061 36.5731 270.584C36.4743 270.543 36.4058 270.447 36.4743 270.328C39.2906 265.492 44.1653 260.763 49.1358 258.133C52.2052 256.51 57.0879 255.976 58.8076 259.873C60.4345 263.559 57.1081 266.693 54.1062 268.138ZM56.7704 263.47C59.3398 256.876 51.2334 258.883 49.0189 260.169C47.5956 260.996 46.2459 262.011 44.9516 263.023C42.238 265.144 39.8763 267.61 37.4007 269.982C40.1041 269.423 42.8297 269.102 45.5513 268.644C48.7931 268.098 55.3541 267.106 56.7704 263.47Z" fill="#263238"/>
<path d="M40.5373 252.781L103.352 262.059C103.352 262.059 137.63 199.815 151.475 184.334L151.509 184.307C152.417 183.286 153.266 182.46 154.041 181.834L154.067 181.825C154.944 181.322 156.475 180.947 158.6 180.692L158.627 180.683C177.199 178.426 239.712 184.501 282.909 181.714L262.736 154.746L253.796 142.786C205.131 137.235 145.412 117.339 118.463 130.856C89.1924 145.539 40.5373 252.781 40.5373 252.781Z" fill="#263238"/>
<path d="M48.4072 242.113C59.0839 243.488 56.0377 242.951 66.7003 244.438C71.9178 245.166 98.152 248.765 102.907 250.254C103.012 250.287 102.985 250.458 102.875 250.459C97.8929 250.499 71.7444 246.335 66.5401 245.512C55.9067 243.83 58.9771 244.203 48.3628 242.407C48.1642 242.374 48.2066 242.087 48.4072 242.113Z" fill="#37474F"/>
<path d="M103.029 249.376C110.137 237.49 142.503 178.826 148.945 176.515C154.808 174.413 272.129 176.852 273.865 176.864C273.989 176.865 273.999 177.057 273.874 177.056C259.987 176.878 152.751 176.496 149.691 177.706C143.334 180.221 104.629 248.275 103.678 249.694C103.425 250.074 102.785 249.784 103.029 249.376Z" fill="#37474F"/>
<path d="M315.722 157.177C315.722 157.177 319.431 192.554 301.481 210.15C279.998 231.209 138.231 225.889 116.261 218.788C94.2904 211.687 93.6039 176.234 117.621 168.019C140.463 160.206 241.764 155.714 244.163 154.758C246.562 153.8 253.584 142.59 253.584 142.59L315.722 157.177Z" fill="#263238"/>
<path d="M285.717 156.18C285.746 156.01 286.008 156.065 286.008 156.226C285.988 160.694 287.644 165.394 290.577 168.782C293.942 172.667 298.902 174.842 303.398 177.115C303.83 177.334 303.502 178.01 303.055 177.876C300.315 177.054 297.615 175.859 295.117 174.456C292.842 173.179 290.74 171.576 289.147 169.492C286.207 165.651 284.922 160.968 285.717 156.18Z" fill="#37474F"/>
<path d="M245.129 152.552C246.132 151.271 247.225 150.052 248.272 148.806C250.746 145.861 253.233 142.904 255.828 140.062C256.074 139.793 256.554 140.174 256.329 140.468C254.582 142.752 252.732 144.964 250.914 147.191C249.981 148.333 249.046 149.471 248.103 150.604C247.222 151.662 246.133 152.712 245.48 153.931C244.803 155.197 245.694 156.28 247.007 156.42C248.181 156.545 249.266 155.947 250.167 155.257C252.215 153.688 253.825 151.442 255.528 149.525C256.57 148.353 257.612 147.181 258.67 146.022C259.795 144.79 260.995 143.623 262.117 142.393C262.189 142.314 262.328 142.425 262.264 142.512C261.283 143.856 260.378 145.263 259.395 146.61C258.413 147.957 257.417 149.29 256.403 150.613C255.444 151.865 254.451 153.09 253.429 154.292C252.561 155.313 251.574 156.308 250.411 156.992C248.531 158.098 245.268 158.336 244.268 155.909C243.773 154.711 244.391 153.496 245.129 152.552Z" fill="#37474F"/>
<path d="M119.264 218.921C126.828 219.062 134.388 219.501 141.953 219.664C149.456 219.824 156.963 219.866 164.468 219.796C179.54 219.654 194.609 219.078 209.649 218.039C224.846 216.988 241.236 215.474 256.331 213.384C263.554 212.383 270.876 211.55 278.014 210.015C284.455 208.63 290.295 205.954 295.116 201.278C304.893 191.795 308.694 177.854 310.256 164.534C310.465 162.747 310.637 160.957 310.782 159.162C310.792 159.041 310.975 159.044 310.967 159.168C310.084 172.826 307.961 187.065 299.37 198.045C295.654 202.796 290.924 206.688 285.377 208.91C278.616 211.619 271.113 212.254 263.975 213.223C248.819 215.279 232.363 216.865 217.12 218.049C201.781 219.238 186.404 219.98 171.022 220.207C155.641 220.434 140.244 220.217 124.878 219.462C123.001 219.369 121.131 219.259 119.259 219.096C119.154 219.083 119.156 218.919 119.264 218.921Z" fill="#37474F"/>
<path d="M99.0669 185.86C100.51 179.864 104.121 174.837 109.197 171.37C114.642 167.653 121.155 165.96 127.601 165.023C134.895 163.962 142.282 163.421 149.616 162.709C164.666 161.247 179.726 159.897 194.796 158.657C209.855 157.419 242.294 154.9 244.118 154.829C244.276 154.823 244.31 155.092 244.149 155.11C229.611 156.726 216.384 158.113 201.817 159.437C187.179 160.766 172.545 162.16 157.918 163.606C150.63 164.326 143.342 165.055 136.059 165.808C129.308 166.506 122.364 167.193 116.031 169.801C110.598 172.038 105.715 175.635 102.944 180.92C100.267 186.026 99.703 192.127 100.773 197.741C101.767 202.953 104.22 208.031 107.801 211.962C111.33 215.833 115.808 218.799 120.97 219.912C122.301 220.199 123.909 220.405 125.135 220.649C125.228 220.668 125.323 220.865 125.229 220.867C114.34 221.142 104.268 213.191 100.336 203.245C98.1688 197.764 97.686 191.598 99.0669 185.86Z" fill="#37474F"/>
<path d="M273.39 70.1186C266.187 98.3627 251.866 132.082 245.972 137.47C238.516 144.283 192.906 153.226 190.497 153.461C186.542 153.846 178.387 113.192 182.084 113.275C191.841 113.494 221.901 110.438 224.058 108.327C226.295 106.119 241.562 87.7878 257.309 67.0381C268.174 52.6983 277.86 52.5935 273.39 70.1186Z" fill="#EB9481"/>
<path d="M194.197 151.769C193.536 152.084 184.153 156.524 178.38 158.048C174.074 159.185 161.589 162.126 159.866 157.509C158.687 154.361 165.826 151.769 170.832 149.821C173.47 148.796 176.753 146.139 176.025 144.441C174.75 141.474 167.956 144.261 163.473 146.724C154.804 151.486 143.202 160.154 138.084 155.692C136.151 154.004 138.514 151.074 141.938 148.227C136.415 151.509 130.544 154.168 128.323 152.379C127.048 151.36 127.02 150.003 127.781 148.471C126.087 148.977 124.606 148.834 123.597 147.715C121.871 145.822 122.799 143.111 124.802 140.356C124.183 140.276 123.633 139.948 123.222 139.262C119.613 133.462 138.753 117.516 145.273 116.137C164.456 112.06 184.535 113.387 184.535 113.387C191.882 119.554 194.212 151.756 194.197 151.769Z" fill="#EB9481"/>
<path d="M166.569 133.537C162.06 134.132 157.598 135.706 153.728 138.129C148.816 141.205 145.519 144.864 141.371 148.528C141.262 148.624 141.408 148.797 141.518 148.7C143.494 146.958 151.666 140.427 153.772 138.949C157.633 136.24 161.916 134.375 166.583 133.614C166.634 133.606 166.619 133.531 166.569 133.537Z" fill="#263238"/>
<path d="M163.208 125.358C158.162 126.608 152.992 127.871 148.283 130.131C143.129 132.603 139.042 136.738 135.026 140.716C132.615 143.104 130.253 145.543 127.953 148.039C127.857 148.144 127.996 148.316 128.099 148.211C132.176 144.1 136.375 140.109 140.695 136.254C144.76 132.629 149.261 129.888 154.4 128.07C157.295 127.046 160.263 126.245 163.226 125.447C163.281 125.431 163.266 125.344 163.208 125.358Z" fill="#263238"/>
<path d="M158.024 118.151C153.129 119.034 148.859 119.788 144.483 122.294C138.69 125.613 133.038 131.303 131.056 133.32C128.864 135.549 126.75 137.848 124.671 140.18C124.586 140.275 124.75 140.425 124.836 140.331C129.584 135.236 134.682 130.411 140.048 125.973C142.612 123.852 145.388 122.016 148.486 120.769C151.548 119.537 154.813 118.875 158.03 118.184C158.051 118.18 158.045 118.148 158.024 118.151Z" fill="#263238"/>
<path d="M185.278 110.55L198.985 157.895C198.985 157.895 239.419 147.396 246.948 139.656C254.476 131.916 269.001 91.3744 273.461 71.6619C277.921 51.9505 267.893 52.1994 258.388 64.4668C248.883 76.7352 225.24 106.453 223.943 107.08C222.646 107.707 185.278 110.55 185.278 110.55Z" fill="#37A67E"/>
<path d="M203.338 137.112C201.675 131.529 199.966 125.957 198.51 120.311C197.682 117.104 196.837 113.899 196.039 110.684C196.009 110.563 196.213 110.494 196.254 110.614C198.145 116.152 200.03 121.71 201.668 127.334C203.298 132.929 204.974 138.511 206.532 144.128C207.417 147.322 208.203 150.531 208.894 153.776C208.908 153.84 208.806 153.875 208.781 153.812C206.702 148.333 205.013 142.734 203.338 137.112Z" fill="#263238"/>
<path opacity="0.1" d="M204.814 156.311C216.291 153.076 241.206 145.559 246.949 139.66C254.476 131.915 269.002 91.3764 273.46 71.667C275.596 62.2009 274.403 57.3282 271.521 56.1982C271.221 56.3333 270.909 56.5097 270.599 56.6962C255.761 77.0991 224.959 125.798 204.814 156.311Z" fill="white"/>
<path d="M319.804 163.304C319.578 163.534 234.107 144.813 233.316 143.817C232.21 142.416 247.485 78.1476 263.6 58.9663C267.63 54.1703 280.46 54.5019 286.203 59.3423C314.659 83.3317 320.614 162.475 319.804 163.304Z" fill="#37A67E"/>
<path d="M292.847 63.9407C309.892 77.0518 354.814 130.059 345.424 142.636C335.966 155.303 271.675 151.025 252.896 145.613C247.311 144.003 261.645 108.465 267.606 106.704C272.568 105.238 300.433 112.801 300.935 111.187C301.503 109.363 295.332 97.6119 285.376 76.1385C273.897 51.378 285.319 58.1497 292.847 63.9407Z" fill="#EB9481"/>
<path d="M241.412 102.562C228.992 102.88 225.853 104.869 215.229 99.5705C208.258 96.0939 203.046 99.0534 207.783 105.627C215.53 116.377 231.639 119.332 237.519 118.749L241.412 102.562Z" fill="#EB9481"/>
<path d="M275.589 108.913C275.589 108.913 260.696 103.595 247.428 102.625C238.252 101.954 218.128 102.72 202.486 125.289C198.777 130.642 197.286 140.901 206.521 134.359C213.08 129.711 215.837 124.783 220.144 122.774C220.144 122.774 219.797 136.048 225.305 139.555C227.767 141.122 234.585 145.243 240.352 147.694C240.352 147.694 241.224 146.583 242.127 145.015C242.127 145.015 247.581 147.805 256.585 145.42L275.589 108.913Z" fill="#EB9481"/>
<path d="M238.569 103.383C234.714 106.281 226.649 112.559 221.837 119.989C216.493 128.242 208.422 145.581 214.554 149.464C219.052 152.31 222.715 145.962 222.715 145.962C222.715 145.962 220.89 153.832 225.514 155.515C229.729 157.049 232.269 151.967 232.269 151.967C232.269 151.967 231.983 156.931 236.326 157.626C241.552 158.463 241.295 147.921 247.319 144.196C248.672 143.359 238.569 103.383 238.569 103.383Z" fill="#EB9481"/>
<path d="M231.5 124.181C228.322 127.5 223.039 136.89 222.618 145.781C222.609 145.983 222.757 146.098 222.804 145.916C225.345 136.226 229.57 127.729 231.578 124.231C231.605 124.185 231.535 124.145 231.5 124.181Z" fill="#263238"/>
<path d="M239.673 129.819C237.225 132.965 232.211 142.886 232.095 151.91C232.092 152.112 232.249 152.218 232.288 152.033C234.527 141.799 237.957 133.476 239.753 129.864C239.777 129.816 239.705 129.778 239.673 129.819Z" fill="#263238"/>
<path d="M220.128 122.694C216.365 124.514 214.113 126.88 211.158 129.751C209.696 131.171 208.208 132.571 206.596 133.821C205.128 134.959 202.97 136.67 201.028 135.589C199.947 134.988 199.732 133.604 199.763 132.479C199.8 131.215 200.635 128.754 201.193 127.617C201.221 127.56 201.121 127.508 201.092 127.566C200.572 128.581 199.592 130.845 199.377 131.968C199.184 132.985 199.093 134.145 199.531 135.115C200.473 137.2 203.093 137.061 204.815 136.16C205.845 135.621 206.781 134.871 207.679 134.138C208.547 133.429 209.381 132.678 210.195 131.908C211.866 130.327 213.443 128.65 215.095 127.05C216.911 125.291 218.211 124.362 220.209 122.817C220.277 122.764 220.203 122.658 220.128 122.694Z" fill="#263238"/>
<path d="M214.148 137.983C214.798 135.558 218.787 125.246 220.225 122.775C220.262 122.711 220.175 122.652 220.131 122.711C217.531 126.144 213.86 134.727 213.117 137.406C212.382 140.053 211.588 143.412 212.04 146.152C212.724 150.286 215.595 150.616 216.642 150.65C217.892 150.691 219.071 150.235 220.064 149.492C221.17 148.665 222.124 147.172 222.756 145.968C222.79 145.904 222.702 145.84 222.662 145.903C221.499 147.768 219.386 149.769 217.09 149.845C216.095 149.879 215.035 149.598 214.306 148.889C213.45 148.055 213.187 146.815 213.095 145.668C212.887 143.074 213.48 140.474 214.148 137.983Z" fill="#263238"/>
<path d="M275.589 107.124L262.66 152.132C262.66 152.132 343.126 156.719 347.587 142.107C352.047 127.495 313.169 79.6232 297.045 66.4769C278.358 51.242 277.352 57.6417 283.437 72.8797C289.806 88.8333 300.775 111.614 300.775 111.614L275.589 107.124Z" fill="#37A67E"/>
<path d="M326.19 118.821C322.193 116.902 318.007 115.368 313.777 114.047C309.587 112.74 305.275 111.888 300.945 111.211C298.47 110.824 295.987 110.558 293.499 110.275C293.423 110.265 293.413 110.381 293.488 110.392C297.846 111.004 302.171 112.002 306.425 113.112C310.664 114.218 314.876 115.398 319.071 116.658C321.444 117.371 323.782 118.196 326.13 118.989C326.24 119.025 326.292 118.87 326.19 118.821Z" fill="#263238"/>
<path d="M275.776 106.968C276.183 107.006 298.558 110.5 299.308 110.709C299.167 110.404 293.494 99.7511 292.651 98.1938C292.567 98.0385 292.49 97.8803 292.408 97.725C291.9 97.0527 291.387 96.3834 290.905 95.6899C290.287 94.8018 289.675 93.9088 289.063 93.0167C289.044 92.9895 289.083 92.9572 289.103 92.9844C289.755 93.8452 290.408 94.7061 291.055 95.5709C291.354 95.9711 291.64 96.3804 291.924 96.7906C291.357 95.6858 290.805 94.575 290.253 93.4592C289.372 91.6801 288.549 89.8788 287.73 88.0694C287.704 88.0109 287.791 87.9757 287.821 88.0301C289.491 91.1347 291.258 94.1839 292.938 97.2825C294.614 100.376 300.986 111.768 300.95 111.764C300.917 111.802 276.217 107.385 275.736 107.271C275.548 107.227 275.575 106.95 275.776 106.968Z" fill="#263238"/>
<path d="M278.848 134.424C280.261 129.405 281.635 124.374 283.233 119.408C284.141 116.587 285.036 113.758 285.971 110.945C286.006 110.839 286.193 110.884 286.167 110.994C284.948 116.087 283.714 121.192 282.263 126.229C280.819 131.24 279.417 136.264 277.907 141.257C277.048 144.097 276.109 146.899 275.079 149.684C275.058 149.74 274.964 149.717 274.976 149.658C276.024 144.519 277.425 139.477 278.848 134.424Z" fill="#263238"/>
<path d="M261.765 152.951C262.33 151.538 263.004 149.524 263.627 148.136C263.791 147.769 264.059 147.796 263.94 148.172C263.542 149.436 263.268 150.828 262.882 152.123C264.007 152.159 265.133 152.171 266.258 152.219C267.559 152.275 268.861 152.336 270.162 152.388C272.71 152.489 275.261 152.562 277.811 152.61C282.975 152.706 288.142 152.693 293.306 152.571C303.657 152.326 314.025 151.702 324.298 150.386C327.172 150.018 330.04 149.594 332.891 149.082C335.787 148.561 338.913 147.981 341.263 147.28C341.338 147.258 341.375 147.385 341.301 147.414C338.896 148.338 336.632 149.037 334.118 149.582C331.552 150.137 328.97 150.622 326.375 151.021C321.208 151.815 316 152.334 310.787 152.712C300.45 153.462 290.077 153.763 279.714 153.651C276.81 153.62 273.907 153.554 271.005 153.454C269.541 153.404 268.075 153.353 266.612 153.275C265.147 153.196 261.67 153.191 261.765 152.951Z" fill="#263238"/>
<path d="M153.231 158.873H256.189V163.026H153.231V158.873Z" fill="#455A64"/>
<path d="M199.219 158.873H256.189V163.026H199.219V158.873Z" fill="#A6A6A6"/>
<path d="M200.946 163.022H110.71L97.9604 101.737H188.197L200.946 163.022Z" fill="#A6A6A6"/>
<path d="M196.855 163.022H106.619L93.8694 101.737H184.106L196.855 163.022Z" fill="#C7C7C7"/>
<path d="M151.375 133.749C151.723 137.07 149.314 139.763 145.993 139.763C142.671 139.763 139.696 137.07 139.346 133.749C138.997 130.428 141.406 127.734 144.728 127.734C148.05 127.734 151.026 130.428 151.375 133.749Z" fill="#EBEBEB"/>
<path d="M270.072 79.5234C270.072 79.5234 285.122 64.5576 294.955 64.8146L303.357 72.1519C303.357 72.1519 306.104 73.0278 306.937 71.285C308.996 66.9758 309.329 56.5904 300.345 49.9244C292.117 43.821 278.731 44.3885 267.585 47.4246C256.881 50.3397 247.631 57.5358 250.98 64.5062C254.329 71.4755 270.072 79.5234 270.072 79.5234Z" fill="#37A67E"/>
<path opacity="0.1" d="M268.97 76.2434C268.97 76.2434 256.592 67.5615 255.279 62.3552C253.965 57.1488 264.354 52.0917 271.073 50.0868C281.474 46.9831 288.579 47.594 294.466 53.1098C300.353 58.6255 268.97 76.2434 268.97 76.2434Z" fill="white"/>
<path d="M268.97 76.2432C268.97 76.2432 280.965 55.553 296.139 53.3928L294.955 64.8155C294.955 64.8155 285.893 64.9122 270.073 79.5242L268.97 76.2432Z" fill="#37A67E"/>
<path d="M299.049 64.9901C296.265 64.6675 293.508 65.3066 290.905 66.1503C288.286 67.0061 285.819 68.2671 283.467 69.6944C281.093 71.0905 278.88 72.7466 276.707 74.4471L273.553 77.1375L270.521 79.974L270.182 80.2925L269.797 80.1C266.932 78.6626 264.2 77.0357 261.569 75.2313C260.26 74.3241 258.962 73.3958 257.768 72.3354C256.569 71.287 255.406 70.1853 254.437 68.9263C256.704 71.15 259.353 72.8716 262.027 74.5217C263.369 75.3402 264.749 76.0992 266.141 76.831C267.531 77.5608 268.933 78.2947 270.345 78.9478L269.621 79.0728L272.657 76.1446C273.708 75.2082 274.782 74.2969 275.859 73.3897C276.988 72.544 278.099 71.6761 279.259 70.8728C280.448 70.1097 281.608 69.3053 282.865 68.6501C285.313 67.2389 287.956 66.1503 290.684 65.4054C291.362 65.2068 292.063 65.0818 292.753 64.9376C293.454 64.8439 294.153 64.732 294.858 64.6937C296.259 64.5879 297.695 64.6211 299.049 64.9901Z" fill="#263238"/>
<path d="M303.356 72.1519C301.781 71.1298 300.339 69.9535 298.93 68.7409C297.538 67.5091 296.177 66.239 294.954 64.8147C296.53 65.8358 297.971 67.0121 299.38 68.2258C300.772 69.4596 302.131 70.7286 303.356 72.1519Z" fill="#263238"/>
<path d="M275.119 72.521C275.119 72.521 276.384 78.3976 276.567 86.9001C276.639 90.2658 275.348 102.338 271.606 101.902C267.865 101.467 273.956 93.6749 275.023 87.3073C276.107 80.844 274.388 76.2788 274.159 72.4666L275.119 72.521Z" fill="#37A67E"/>
<g opacity="0.1">
<path d="M275.119 72.521C275.119 72.521 276.384 78.3976 276.567 86.9001C276.639 90.2658 275.348 102.338 271.606 101.902C267.865 101.467 273.956 93.6749 275.023 87.3073C276.107 80.844 274.388 76.2788 274.159 72.4666L275.119 72.521Z" fill="white"/>
</g>
<path d="M261.849 73.1891C261.849 73.1891 260.105 79.5486 259.067 87.1902C258.657 90.2152 258.581 101.225 261.997 101.217C265.412 101.208 260.725 93.5618 260.416 87.7154C260.103 81.7803 262.121 76.6485 262.717 73.2375L261.849 73.1891Z" fill="#37A67E"/>
<g opacity="0.1">
<path d="M261.849 73.1891C261.849 73.1891 260.105 79.5486 259.067 87.1902C258.657 90.2152 258.581 101.225 261.997 101.217C265.412 101.208 260.725 93.5618 260.416 87.7154C260.103 81.7803 262.121 76.6485 262.717 73.2375L261.849 73.1891Z" fill="white"/>
</g>
<path d="M267.708 73.921C271.613 73.6669 278.889 65.5142 281.366 59.0459C281.533 58.6014 280.308 54.3375 279.065 49.0848C278.324 45.8945 277.573 42.3252 277.123 39.0179L257.069 46.8773C257.069 46.8773 260.05 53.5321 260.799 59.3019C260.857 59.7848 260.87 60.2394 260.842 60.6779C260.844 60.7414 260.836 60.819 260.843 60.9067C260.772 63.5426 261.594 74.3191 267.708 73.921Z" fill="#EB9481"/>
<path d="M260.845 60.6808C260.846 60.7454 260.832 60.8149 260.84 60.9097C261.508 60.9117 262.211 60.8562 262.992 60.7312C274.746 58.8574 275.676 44.0972 275.671 39.5864L257.06 46.8753C257.06 46.8753 260.043 53.5301 260.806 59.3059C260.851 59.7827 260.873 60.2333 260.845 60.6808Z" fill="#263238"/>
<path d="M273.041 13.1486C277.243 19.6724 279.317 41.3685 275.541 47.4065C270.066 56.1599 258.193 60.2131 250.02 52.9676C242.098 45.9439 239.896 17.6211 244.385 11.8341C250.997 3.31049 266.834 3.5131 273.041 13.1486Z" fill="#EB9481"/>
<path d="M259.503 28.9743C258.842 28.8947 258.246 28.7112 257.601 28.5651C256.873 28.3997 256.276 28.3433 255.74 27.7778C255.453 27.4744 255.478 26.8605 255.747 26.5541C256.372 25.8404 257.315 25.8203 258.2 25.9836C259.159 26.161 259.855 26.542 260.486 27.2839C261.098 28.0026 260.374 29.0791 259.503 28.9743Z" fill="#263238"/>
<path d="M244.8 30.9814C245.438 30.7918 245.996 30.5106 246.606 30.2586C247.297 29.9733 247.875 29.8181 248.309 29.17C248.542 28.8222 248.414 28.2224 248.097 27.9644C247.361 27.3656 246.429 27.5048 245.584 27.8132C244.667 28.1489 244.047 28.6418 243.548 29.4794C243.065 30.2919 243.958 31.2313 244.8 30.9814Z" fill="#263238"/>
<path d="M260.625 46.0326C260.32 46.4177 260.032 46.9318 259.51 47.0437C259.009 47.1505 258.385 46.9983 257.898 46.8773C257.849 46.8653 257.809 46.9197 257.844 46.96C258.294 47.4711 259.134 47.72 259.794 47.5154C260.438 47.3168 260.692 46.705 260.776 46.081C260.786 45.9933 260.67 45.9762 260.625 46.0326Z" fill="#263238"/>
<path d="M258.538 41.8675C257.883 43.2354 256.773 44.0791 255.509 44.4954C254.945 44.6849 254.338 44.7827 253.735 44.8038C253.618 44.8159 253.499 44.8179 253.39 44.8079C253.282 44.8089 253.184 44.8089 253.064 44.7998C252.892 44.7968 252.78 44.6678 252.73 44.5105L252.729 44.5004C252.723 44.447 252.719 44.4037 252.724 44.3492C252.724 44.3492 252.724 44.3492 252.723 44.3381L252.71 44.2101C252.537 43.0922 252.428 41.3736 252.428 41.3736C252.044 41.6307 250.075 42.8372 250.034 42.2465C249.705 37.3608 249.341 31.9266 250.046 26.9945C250.061 26.8312 250.31 26.8362 250.316 26.9975C250.817 31.6807 250.492 36.4213 250.92 41.1337C251.554 40.796 252.582 40.1882 253.17 40.1247C253.335 40.1499 253.32 43.4511 253.438 43.946C253.438 43.946 253.44 43.9682 253.454 43.9984C255.368 43.9995 256.716 43.2495 258.384 41.7516C258.483 41.6569 258.611 41.7405 258.538 41.8675Z" fill="#263238"/>
<path d="M254.329 44.1519C254.329 44.1519 255.494 45.3665 256.917 45.677C257.441 45.7929 257.99 45.7949 258.538 45.5721C259.661 45.1185 259.555 44.048 259.225 43.162C258.957 42.4332 258.525 41.8304 258.525 41.8304C258.525 41.8304 257.031 43.6358 254.329 44.1519Z" fill="#263238"/>
<path d="M256.917 45.6769C257.441 45.7929 257.99 45.7949 258.538 45.5721C259.662 45.1185 259.555 44.048 259.225 43.162C257.993 43.4483 256.867 44.4522 256.917 45.6769Z" fill="#FF9ABB"/>
<path d="M256.646 32.9437C256.648 32.8872 256.769 32.9941 256.777 33.0536C256.961 34.5001 257.414 36.128 258.792 36.3981C258.834 36.4062 258.843 36.4798 258.793 36.4808C257.168 36.51 256.588 34.3438 256.646 32.9437Z" fill="#263238"/>
<path d="M257.692 31.2353C259.98 30.691 260.901 35.3076 258.78 35.8116C256.694 36.3086 255.774 31.6919 257.692 31.2353Z" fill="#263238"/>
<path d="M248.213 34.0497C248.191 33.9983 248.115 34.1404 248.13 34.1989C248.471 35.6172 248.623 37.2995 247.43 38.0414C247.393 38.0646 247.412 38.1351 247.458 38.119C248.988 37.5696 248.764 35.3389 248.213 34.0497Z" fill="#263238"/>
<path d="M246.628 32.823C244.296 33.1244 245.071 37.7682 247.231 37.488C249.358 37.2128 248.583 32.57 246.628 32.823Z" fill="#263238"/>
<path d="M270.975 27.1215C267.993 23.397 267.849 15.4046 265.037 14.2675C258.949 11.806 252.422 23.1269 245.984 25.5067C239.745 27.813 236.195 24.5501 235.484 19.0666C234.774 13.5831 237.847 8.60963 244.485 5.01711C251.351 1.29961 259.03 1.8258 263.463 2.82674C263.463 2.82674 260.966 0.86617 261.271 -0.135782C261.576 -1.13673 265.523 0.187793 266.835 0.886337C268.168 1.59597 269.458 3.34484 269.458 3.34484C269.458 3.34484 270.476 2.59188 272.206 2.01429C273.811 1.47804 276.266 1.99714 276.515 2.32978C276.764 2.66242 274.593 3.77828 273.027 4.43752C273.027 4.43752 277.434 7.31031 278.597 10.7133C279.759 14.1173 280.322 32.0849 279.121 32.717C277.578 33.5274 272.186 28.6346 270.975 27.1215Z" fill="#455A64"/>
<path d="M272.261 4.25101C272.193 4.2379 272.145 4.34273 272.216 4.36995C274.214 5.13199 276.001 6.2156 277.333 7.92517C278.88 9.91395 279.609 12.3997 279.928 14.8663C280.549 19.6664 279.841 24.4806 279.441 29.2635C279.429 29.4036 279.665 29.4278 279.687 29.2877C280.435 24.2487 281.091 18.8337 280.226 13.7736C279.488 9.46036 276.86 5.1451 272.261 4.25101Z" fill="#455A64"/>
<path d="M264.688 12.537C262.759 12.9462 260.78 13.8615 259.15 14.9653C257.544 16.0529 256.431 17.702 255.16 19.1364C252.308 22.3549 248.955 25.264 244.757 26.5008C244.703 26.5169 244.729 26.5956 244.783 26.5835C248.707 25.6934 251.971 23.246 254.7 20.3782C256.077 18.9317 257.229 17.1577 258.773 15.8876C260.527 14.4421 262.704 13.6861 264.792 12.8807C265.01 12.7961 264.912 12.4886 264.688 12.537Z" fill="#455A64"/>
<path d="M258.967 2.44687C255.987 2.07391 252.943 2.22409 249.983 2.70591C247.143 3.16858 244.317 3.94777 241.792 5.35897C237.434 7.7943 234.243 12.29 234.883 17.4419C235.208 20.0526 236.421 22.6079 238.447 24.3225C238.584 24.4384 238.76 24.2459 238.634 24.1179C235.219 20.6433 234.133 15.321 236.555 10.9695C239.155 6.2954 244.4 4.10603 249.415 3.14339C252.572 2.53758 255.757 2.41964 258.962 2.48415C258.984 2.48314 258.988 2.44888 258.967 2.44687Z" fill="#455A64"/>
<path d="M273.396 31.209C273.396 31.209 276.33 23.274 279.811 24.1499C283.292 25.0259 282.31 35.6714 279.085 37.9363C275.86 40.2013 273.705 37.257 273.705 37.257L273.396 31.209Z" fill="#EB9481"/>
<path d="M279.454 27.1953C279.51 27.1752 279.542 27.2528 279.499 27.286C277.259 28.9563 276.548 31.6245 276.255 34.2755C276.757 33.1536 277.639 32.3795 279.112 32.9409C279.19 32.9702 279.154 33.0891 279.079 33.0921C277.996 33.1415 277.302 33.5124 276.823 34.5164C276.485 35.2271 276.342 36.0506 276.166 36.8147C276.108 37.0697 275.672 37.0556 275.689 36.7743C275.69 36.7542 275.692 36.732 275.694 36.7108C274.796 33.5346 276.109 28.414 279.454 27.1953Z" fill="#263238"/>
</g>
<defs>
<clipPath id="clip0_1311_6871">
<rect width="372" height="313" fill="white" transform="matrix(-1 0 0 1 372 0)"/>
</clipPath>
</defs>
</svg>
