<svg width="12" height="12" viewBox="0 0 12 12" fill="none" xmlns="http://www.w3.org/2000/svg">
<g opacity="0.3">
<path d="M10 3.99976L7.00005 1.36976C6.72504 1.12378 6.36901 0.987793 6.00005 0.987793C5.63108 0.987793 5.27506 1.12378 5.00005 1.36976L2.00005 3.99976C1.84123 4.1418 1.7145 4.31604 1.62828 4.51088C1.54207 4.70572 1.49835 4.9167 1.50005 5.12976V9.49976C1.50005 9.89758 1.65808 10.2791 1.93939 10.5604C2.22069 10.8417 2.60222 10.9998 3.00005 10.9998H9.00005C9.39787 10.9998 9.7794 10.8417 10.0607 10.5604C10.342 10.2791 10.5 9.89758 10.5 9.49976V5.12476C10.501 4.91254 10.457 4.70253 10.3708 4.5086C10.2846 4.31467 10.1582 4.14124 10 3.99976ZM7.00005 9.99976H5.00005V7.49976C5.00005 7.36715 5.05273 7.23997 5.14649 7.14621C5.24026 7.05244 5.36744 6.99976 5.50005 6.99976H6.50005C6.63266 6.99976 6.75983 7.05244 6.8536 7.14621C6.94737 7.23997 7.00005 7.36715 7.00005 7.49976V9.99976ZM9.50005 9.49976C9.50005 9.63237 9.44737 9.75954 9.3536 9.85331C9.25983 9.94708 9.13266 9.99976 9.00005 9.99976H8.00005V7.49976C8.00005 7.10193 7.84201 6.7204 7.56071 6.4391C7.2794 6.15779 6.89787 5.99976 6.50005 5.99976H5.50005C5.10222 5.99976 4.72069 6.15779 4.43939 6.4391C4.15808 6.7204 4.00005 7.10193 4.00005 7.49976V9.99976H3.00005C2.86744 9.99976 2.74026 9.94708 2.64649 9.85331C2.55273 9.75954 2.50005 9.63237 2.50005 9.49976V5.12476C2.50014 5.05377 2.51534 4.98361 2.54466 4.91895C2.57397 4.85429 2.61671 4.79661 2.67005 4.74976L5.67005 2.12476C5.76129 2.0446 5.87859 2.00039 6.00005 2.00039C6.1215 2.00039 6.2388 2.0446 6.33005 2.12476L9.33005 4.74976C9.38338 4.79661 9.42613 4.85429 9.45544 4.91895C9.48475 4.98361 9.49996 5.05377 9.50005 5.12476V9.49976Z" fill="black"/>
</g>
</svg>
