<svg width="12" height="15" viewBox="0 0 12 15" fill="none" xmlns="http://www.w3.org/2000/svg">
<path d="M9.99963 2.48669C8.93876 1.42582 7.49992 0.829834 5.99963 0.829834C4.49934 0.829834 3.06049 1.42582 1.99963 2.48669C0.938762 3.54755 0.342773 4.9864 0.342773 6.48669C0.342773 7.98698 0.938762 9.42582 1.99963 10.4867L5.51296 14.0067C5.57494 14.0692 5.64867 14.1188 5.72991 14.1526C5.81115 14.1865 5.89829 14.2039 5.98629 14.2039C6.0743 14.2039 6.16144 14.1865 6.24268 14.1526C6.32392 14.1188 6.39765 14.0692 6.45963 14.0067L9.99963 10.4534C11.0561 9.3969 11.6496 7.96406 11.6496 6.47002C11.6496 4.97599 11.0561 3.54314 9.99963 2.48669ZM9.04629 9.50002L5.99963 12.56L2.95296 9.50002C2.35106 8.89757 1.94128 8.13019 1.77542 7.29488C1.60957 6.45958 1.69509 5.59385 2.02116 4.80714C2.34724 4.02043 2.89924 3.34805 3.60738 2.87501C4.31552 2.40196 5.14802 2.14948 5.99963 2.14948C6.85124 2.14948 7.68373 2.40196 8.39187 2.87501C9.10002 3.34805 9.65201 4.02043 9.97809 4.80714C10.3042 5.59385 10.3897 6.45958 10.2238 7.29488C10.058 8.13019 9.6482 8.89757 9.04629 9.50002ZM3.99963 4.44002C3.46144 4.97987 3.15922 5.71107 3.15922 6.47336C3.15922 7.23564 3.46144 7.96684 3.99963 8.50669C4.39947 8.90721 4.90869 9.18074 5.46339 9.29296C6.0181 9.40517 6.5936 9.35108 7.11768 9.13746C7.64176 8.92384 8.09108 8.56021 8.40928 8.09219C8.72748 7.62417 8.90038 7.0726 8.90629 6.50669C8.9093 6.12882 8.83651 5.75419 8.69223 5.40495C8.54795 5.0557 8.33511 4.73893 8.06629 4.47336C7.80207 4.20307 7.48701 3.98771 7.13924 3.83967C6.79147 3.69162 6.41785 3.61381 6.03989 3.61071C5.66193 3.60761 5.28709 3.67929 4.93694 3.82161C4.58679 3.96394 4.26824 4.17411 3.99963 4.44002ZM7.12629 7.56002C6.87366 7.81652 6.53977 7.97729 6.18171 8.01486C5.82366 8.05242 5.46367 7.96445 5.1633 7.76597C4.86293 7.5675 4.64083 7.27085 4.53497 6.92674C4.4291 6.58264 4.44606 6.21245 4.58293 5.87946C4.7198 5.54647 4.96809 5.27137 5.28535 5.10118C5.60261 4.93099 5.96913 4.87629 6.32225 4.94643C6.67537 5.01657 6.99317 5.20719 7.2213 5.48571C7.44943 5.76422 7.57374 6.11334 7.57296 6.47336C7.56326 6.88487 7.39062 7.27571 7.09296 7.56002H7.12629Z" fill="#0D3B3F"/>
</svg>
