<svg width="412" height="185" viewBox="0 0 412 185" fill="none" xmlns="http://www.w3.org/2000/svg">
<rect x="0.015625" width="411" height="185" rx="24" fill="white"/>
<mask id="mask0_1311_6659" style="mask-type:alpha" maskUnits="userSpaceOnUse" x="0" y="0" width="412" height="185">
<rect x="0.015625" width="411" height="185" rx="40" fill="white"/>
</mask>
<g mask="url(#mask0_1311_6659)">
<path d="M36.4375 77.5938V75.2188H39.1406C41.7344 75.2188 43.5469 73.5469 43.5469 71.2656C43.5469 69.0312 42.0312 67.5156 39.1719 67.5156C36.5781 67.5156 34.8594 69 34.6094 71.3594H31.9062C32.2188 67.5312 35.0625 65.0781 39.2969 65.0781C43.3281 65.0781 46.375 67.5 46.375 70.8906C46.375 73.7188 44.5625 75.75 41.75 76.25V76.3125C45.1562 76.5156 47.3438 78.625 47.3438 81.7969C47.3438 85.6719 43.8125 88.375 39.3906 88.375C34.6719 88.375 31.6562 85.7656 31.4531 82.0312H34.1562C34.4062 84.3438 36.3281 85.9375 39.3594 85.9375C42.3438 85.9375 44.4844 84.25 44.4844 81.8906C44.4844 79.2344 42.4844 77.5938 39.2656 77.5938H36.4375ZM61.5 88V83.3125H50.1719V80.7656C52.0938 77.2031 54.7344 73.0938 60.0625 65.4531H64.2188V80.8438H67.4062V83.3125H64.2188V88H61.5ZM52.9531 80.7812V80.8438H61.5V67.7969H61.4531C57.1875 73.8906 54.7344 77.6562 52.9531 80.7812ZM77.9062 88.375C73.5938 88.375 70.4062 85.6875 70.1719 81.8438H72.9375C73.1875 84.25 75.2344 85.9062 77.9375 85.9062C81 85.9062 83.125 83.7812 83.125 80.75C83.125 77.7188 80.9844 75.5469 77.9844 75.5469C75.875 75.5469 74.0781 76.5 73.1562 78.0781H70.5156L71.75 65.4531H84.6562V67.9531H74.0625L73.375 75.2969H73.4375C74.4531 73.9375 76.3281 73.125 78.4844 73.125C82.8125 73.125 85.9375 76.2969 85.9375 80.6719C85.9375 85.2031 82.6094 88.375 77.9062 88.375ZM97.9844 80.375V87.5312H95.4531V80.375H88.7812V77.8438H95.4531V70.8594H97.9844V77.8438H104.656V80.375H97.9844Z" fill="#0D3B3F"/>
<g opacity="0.6">
<path d="M34.6982 115H33.4678V106.243H30.3574V105.136H37.8086V106.243H34.6982V115ZM38.9844 115V105.136H40.1738V109.025H40.2012C40.5977 108.232 41.377 107.768 42.457 107.768C44.0156 107.768 44.959 108.82 44.959 110.406V115H43.7695V110.625C43.7695 109.497 43.2021 108.82 42.0879 108.82C40.9053 108.82 40.1738 109.627 40.1738 110.857V115H38.9844ZM49.3203 108.8C48.2061 108.8 47.4268 109.654 47.3516 110.837H51.2139C51.1865 109.647 50.4414 108.8 49.3203 108.8ZM51.1865 112.963H52.3555C52.1504 114.207 50.9473 115.123 49.3955 115.123C47.3584 115.123 46.1211 113.708 46.1211 111.473C46.1211 109.265 47.3789 107.768 49.3408 107.768C51.2617 107.768 52.4443 109.162 52.4443 111.315V111.767H47.3447V111.835C47.3447 113.195 48.1445 114.091 49.4229 114.091C50.3252 114.091 50.9883 113.633 51.1865 112.963ZM59.9707 107.768C61.7822 107.768 63.0127 109.217 63.0127 111.445C63.0127 113.674 61.7891 115.123 59.998 115.123C58.9795 115.123 58.1592 114.624 57.7354 113.845H57.708V117.372H56.5186V107.891H57.6465V109.094H57.6738C58.1113 108.294 58.9385 107.768 59.9707 107.768ZM59.7383 114.077C61.0029 114.077 61.7959 113.059 61.7959 111.445C61.7959 109.839 61.0029 108.813 59.7383 108.813C58.5215 108.813 57.7012 109.866 57.7012 111.445C57.7012 113.031 58.5215 114.077 59.7383 114.077ZM67.1621 115.123C65.1934 115.123 63.8672 113.708 63.8672 111.445C63.8672 109.176 65.1934 107.768 67.1621 107.768C69.124 107.768 70.4502 109.176 70.4502 111.445C70.4502 113.708 69.124 115.123 67.1621 115.123ZM67.1621 114.077C68.4199 114.077 69.2402 113.12 69.2402 111.445C69.2402 109.771 68.4199 108.813 67.1621 108.813C65.9043 108.813 65.0771 109.771 65.0771 111.445C65.0771 113.12 65.9043 114.077 67.1621 114.077ZM72.0361 106.175H73.2256V107.891H74.6064V108.868H73.2256V113.093C73.2256 113.742 73.499 114.036 74.1074 114.036C74.2441 114.036 74.5176 114.016 74.5996 114.002V115C74.4561 115.034 74.1279 115.055 73.8477 115.055C72.542 115.055 72.0361 114.521 72.0361 113.154V108.868H70.9766V107.891H72.0361V106.175ZM78.5234 108.8C77.4092 108.8 76.6299 109.654 76.5547 110.837H80.417C80.3896 109.647 79.6445 108.8 78.5234 108.8ZM80.3896 112.963H81.5586C81.3535 114.207 80.1504 115.123 78.5986 115.123C76.5615 115.123 75.3242 113.708 75.3242 111.473C75.3242 109.265 76.582 107.768 78.5439 107.768C80.4648 107.768 81.6475 109.162 81.6475 111.315V111.767H76.5479V111.835C76.5479 113.195 77.3477 114.091 78.626 114.091C79.5283 114.091 80.1914 113.633 80.3896 112.963ZM82.8506 115V107.891H83.9717V109.025H83.999C84.3955 108.26 85.1543 107.768 86.2549 107.768C87.8135 107.768 88.7158 108.772 88.7158 110.386V115H87.5264V110.598C87.5264 109.449 86.9863 108.82 85.8926 108.82C84.7715 108.82 84.04 109.613 84.04 110.816V115H82.8506ZM90.6162 106.175H91.8057V107.891H93.1865V108.868H91.8057V113.093C91.8057 113.742 92.0791 114.036 92.6875 114.036C92.8242 114.036 93.0977 114.016 93.1797 114.002V115C93.0361 115.034 92.708 115.055 92.4277 115.055C91.1221 115.055 90.6162 114.521 90.6162 113.154V108.868H89.5566V107.891H90.6162V106.175ZM94.5195 115V107.891H95.709V115H94.5195ZM95.1143 106.694C94.7109 106.694 94.376 106.359 94.376 105.956C94.376 105.546 94.7109 105.218 95.1143 105.218C95.5244 105.218 95.8594 105.546 95.8594 105.956C95.8594 106.359 95.5244 106.694 95.1143 106.694ZM99.6602 114.111C100.781 114.111 101.643 113.325 101.643 112.3V111.719L99.7422 111.835C98.7852 111.896 98.2383 112.32 98.2383 112.99C98.2383 113.667 98.8057 114.111 99.6602 114.111ZM99.3936 115.123C97.9785 115.123 97.0283 114.269 97.0283 112.99C97.0283 111.773 97.9648 111.008 99.6055 110.912L101.643 110.796V110.201C101.643 109.333 101.068 108.813 100.084 108.813C99.168 108.813 98.5938 109.244 98.4434 109.941H97.2949C97.377 108.711 98.4297 107.768 100.111 107.768C101.779 107.768 102.832 108.67 102.832 110.085V115H101.704V113.776H101.677C101.253 114.59 100.351 115.123 99.3936 115.123ZM104.404 115V105.136H105.594V115H104.404ZM113.018 115.123C111.049 115.123 109.723 113.708 109.723 111.445C109.723 109.176 111.049 107.768 113.018 107.768C114.979 107.768 116.306 109.176 116.306 111.445C116.306 113.708 114.979 115.123 113.018 115.123ZM113.018 114.077C114.275 114.077 115.096 113.12 115.096 111.445C115.096 109.771 114.275 108.813 113.018 108.813C111.76 108.813 110.933 109.771 110.933 111.445C110.933 113.12 111.76 114.077 113.018 114.077ZM117.892 115V108.868H116.9V107.891H117.892V107.098C117.892 105.73 118.527 105.081 119.84 105.081C120.106 105.081 120.394 105.108 120.564 105.136V106.1C120.421 106.079 120.223 106.059 120.024 106.059C119.382 106.059 119.074 106.4 119.074 107.104V107.891H120.53V108.868H119.081V115H117.892ZM126.047 115H124.816V105.136H126.047V115ZM131.687 115H130.456V106.243H127.346V105.136H134.797V106.243H131.687V115ZM144.688 110.222H143.526C143.355 109.449 142.754 108.813 141.708 108.813C140.478 108.813 139.644 109.832 139.644 111.445C139.644 113.1 140.491 114.077 141.722 114.077C142.692 114.077 143.328 113.564 143.533 112.71H144.702C144.518 114.125 143.328 115.123 141.715 115.123C139.746 115.123 138.434 113.735 138.434 111.445C138.434 109.203 139.739 107.768 141.701 107.768C143.479 107.768 144.538 108.943 144.688 110.222ZM148.742 115.123C146.773 115.123 145.447 113.708 145.447 111.445C145.447 109.176 146.773 107.768 148.742 107.768C150.704 107.768 152.03 109.176 152.03 111.445C152.03 113.708 150.704 115.123 148.742 115.123ZM148.742 114.077C150 114.077 150.82 113.12 150.82 111.445C150.82 109.771 150 108.813 148.742 108.813C147.484 108.813 146.657 109.771 146.657 111.445C146.657 113.12 147.484 114.077 148.742 114.077ZM159.071 107.891V115H157.943V113.845H157.916C157.492 114.665 156.754 115.123 155.66 115.123C154.108 115.123 153.199 114.118 153.199 112.505V107.891H154.389V112.293C154.389 113.448 154.929 114.07 156.029 114.07C157.185 114.07 157.882 113.277 157.882 112.067V107.891H159.071ZM160.678 115V105.136H161.867V115H160.678ZM166.167 115.123C164.355 115.123 163.125 113.674 163.125 111.445C163.125 109.217 164.349 107.768 166.14 107.768C167.158 107.768 167.979 108.267 168.402 109.046H168.43V105.136H169.619V115H168.484V113.797H168.464C168.006 114.617 167.192 115.123 166.167 115.123ZM166.393 108.813C165.135 108.813 164.342 109.839 164.342 111.445C164.342 113.059 165.135 114.077 166.393 114.077C167.616 114.077 168.437 113.038 168.437 111.445C168.437 109.859 167.616 108.813 166.393 108.813ZM174.158 115V105.136H175.348V115H174.158ZM179.805 108.8C178.69 108.8 177.911 109.654 177.836 110.837H181.698C181.671 109.647 180.926 108.8 179.805 108.8ZM181.671 112.963H182.84C182.635 114.207 181.432 115.123 179.88 115.123C177.843 115.123 176.605 113.708 176.605 111.473C176.605 109.265 177.863 107.768 179.825 107.768C181.746 107.768 182.929 109.162 182.929 111.315V111.767H177.829V111.835C177.829 113.195 178.629 114.091 179.907 114.091C180.81 114.091 181.473 113.633 181.671 112.963ZM186.477 114.111C187.598 114.111 188.459 113.325 188.459 112.3V111.719L186.559 111.835C185.602 111.896 185.055 112.32 185.055 112.99C185.055 113.667 185.622 114.111 186.477 114.111ZM186.21 115.123C184.795 115.123 183.845 114.269 183.845 112.99C183.845 111.773 184.781 111.008 186.422 110.912L188.459 110.796V110.201C188.459 109.333 187.885 108.813 186.9 108.813C185.984 108.813 185.41 109.244 185.26 109.941H184.111C184.193 108.711 185.246 107.768 186.928 107.768C188.596 107.768 189.648 108.67 189.648 110.085V115H188.521V113.776H188.493C188.069 114.59 187.167 115.123 186.21 115.123ZM193.853 115.123C192.041 115.123 190.811 113.674 190.811 111.445C190.811 109.217 192.034 107.768 193.825 107.768C194.844 107.768 195.664 108.267 196.088 109.046H196.115V105.136H197.305V115H196.17V113.797H196.149C195.691 114.617 194.878 115.123 193.853 115.123ZM194.078 108.813C192.82 108.813 192.027 109.839 192.027 111.445C192.027 113.059 192.82 114.077 194.078 114.077C195.302 114.077 196.122 113.038 196.122 111.445C196.122 109.859 195.302 108.813 194.078 108.813ZM202.165 106.175H203.354V107.891H204.735V108.868H203.354V113.093C203.354 113.742 203.628 114.036 204.236 114.036C204.373 114.036 204.646 114.016 204.729 114.002V115C204.585 115.034 204.257 115.055 203.977 115.055C202.671 115.055 202.165 114.521 202.165 113.154V108.868H201.105V107.891H202.165V106.175ZM208.748 115.123C206.779 115.123 205.453 113.708 205.453 111.445C205.453 109.176 206.779 107.768 208.748 107.768C210.71 107.768 212.036 109.176 212.036 111.445C212.036 113.708 210.71 115.123 208.748 115.123ZM208.748 114.077C210.006 114.077 210.826 113.12 210.826 111.445C210.826 109.771 210.006 108.813 208.748 108.813C207.49 108.813 206.663 109.771 206.663 111.445C206.663 113.12 207.49 114.077 208.748 114.077ZM218.455 114.111C219.576 114.111 220.438 113.325 220.438 112.3V111.719L218.537 111.835C217.58 111.896 217.033 112.32 217.033 112.99C217.033 113.667 217.601 114.111 218.455 114.111ZM218.188 115.123C216.773 115.123 215.823 114.269 215.823 112.99C215.823 111.773 216.76 111.008 218.4 110.912L220.438 110.796V110.201C220.438 109.333 219.863 108.813 218.879 108.813C217.963 108.813 217.389 109.244 217.238 109.941H216.09C216.172 108.711 217.225 107.768 218.906 107.768C220.574 107.768 221.627 108.67 221.627 110.085V115H220.499V113.776H220.472C220.048 114.59 219.146 115.123 218.188 115.123ZM229.543 115.123C228.504 115.123 227.69 114.617 227.232 113.797H227.205V115H226.07V105.136H227.26V109.08H227.287C227.731 108.267 228.559 107.768 229.563 107.768C231.354 107.768 232.564 109.217 232.564 111.445C232.564 113.681 231.361 115.123 229.543 115.123ZM229.311 108.813C228.107 108.813 227.253 109.866 227.253 111.445C227.253 113.031 228.107 114.077 229.311 114.077C230.568 114.077 231.348 113.072 231.348 111.445C231.348 109.832 230.568 108.813 229.311 108.813ZM236.625 108.8C235.511 108.8 234.731 109.654 234.656 110.837H238.519C238.491 109.647 237.746 108.8 236.625 108.8ZM238.491 112.963H239.66C239.455 114.207 238.252 115.123 236.7 115.123C234.663 115.123 233.426 113.708 233.426 111.473C233.426 109.265 234.684 107.768 236.646 107.768C238.566 107.768 239.749 109.162 239.749 111.315V111.767H234.649V111.835C234.649 113.195 235.449 114.091 236.728 114.091C237.63 114.091 238.293 113.633 238.491 112.963ZM241.335 106.175H242.524V107.891H243.905V108.868H242.524V113.093C242.524 113.742 242.798 114.036 243.406 114.036C243.543 114.036 243.816 114.016 243.898 114.002V115C243.755 115.034 243.427 115.055 243.146 115.055C241.841 115.055 241.335 114.521 241.335 113.154V108.868H240.275V107.891H241.335V106.175ZM245.56 106.175H246.749V107.891H248.13V108.868H246.749V113.093C246.749 113.742 247.022 114.036 247.631 114.036C247.768 114.036 248.041 114.016 248.123 114.002V115C247.979 115.034 247.651 115.055 247.371 115.055C246.065 115.055 245.56 114.521 245.56 113.154V108.868H244.5V107.891H245.56V106.175ZM252.047 108.8C250.933 108.8 250.153 109.654 250.078 110.837H253.94C253.913 109.647 253.168 108.8 252.047 108.8ZM253.913 112.963H255.082C254.877 114.207 253.674 115.123 252.122 115.123C250.085 115.123 248.848 113.708 248.848 111.473C248.848 109.265 250.105 107.768 252.067 107.768C253.988 107.768 255.171 109.162 255.171 111.315V111.767H250.071V111.835C250.071 113.195 250.871 114.091 252.149 114.091C253.052 114.091 253.715 113.633 253.913 112.963ZM256.374 115V107.891H257.495V109.053H257.522C257.755 108.267 258.411 107.768 259.245 107.768C259.45 107.768 259.628 107.802 259.724 107.815V108.971C259.628 108.937 259.375 108.902 259.088 108.902C258.165 108.902 257.563 109.565 257.563 110.57V115H256.374ZM33.1328 134.111C34.2539 134.111 35.1152 133.325 35.1152 132.3V131.719L33.2148 131.835C32.2578 131.896 31.7109 132.32 31.7109 132.99C31.7109 133.667 32.2783 134.111 33.1328 134.111ZM32.8662 135.123C31.4512 135.123 30.501 134.269 30.501 132.99C30.501 131.773 31.4375 131.008 33.0781 130.912L35.1152 130.796V130.201C35.1152 129.333 34.541 128.813 33.5566 128.813C32.6406 128.813 32.0664 129.244 31.916 129.941H30.7676C30.8496 128.711 31.9023 127.768 33.584 127.768C35.252 127.768 36.3047 128.67 36.3047 130.085V135H35.1768V133.776H35.1494C34.7256 134.59 33.8232 135.123 32.8662 135.123ZM37.8154 135V127.891H38.9365V129.025H38.9639C39.3604 128.26 40.1191 127.768 41.2197 127.768C42.7783 127.768 43.6807 128.772 43.6807 130.386V135H42.4912V130.598C42.4912 129.449 41.9512 128.82 40.8574 128.82C39.7363 128.82 39.0049 129.613 39.0049 130.816V135H37.8154ZM47.8916 135.123C46.0801 135.123 44.8496 133.674 44.8496 131.445C44.8496 129.217 46.0732 127.768 47.8643 127.768C48.8828 127.768 49.7031 128.267 50.127 129.046H50.1543V125.136H51.3438V135H50.209V133.797H50.1885C49.7305 134.617 48.917 135.123 47.8916 135.123ZM48.1172 128.813C46.8594 128.813 46.0664 129.839 46.0664 131.445C46.0664 133.059 46.8594 134.077 48.1172 134.077C49.3408 134.077 50.1611 133.038 50.1611 131.445C50.1611 129.859 49.3408 128.813 48.1172 128.813ZM58.7676 135.123C56.7988 135.123 55.4727 133.708 55.4727 131.445C55.4727 129.176 56.7988 127.768 58.7676 127.768C60.7295 127.768 62.0557 129.176 62.0557 131.445C62.0557 133.708 60.7295 135.123 58.7676 135.123ZM58.7676 134.077C60.0254 134.077 60.8457 133.12 60.8457 131.445C60.8457 129.771 60.0254 128.813 58.7676 128.813C57.5098 128.813 56.6826 129.771 56.6826 131.445C56.6826 133.12 57.5098 134.077 58.7676 134.077ZM68.8848 127.891L66.2734 135H65.0566L62.4385 127.891H63.6895L65.6514 133.735H65.6787L67.6475 127.891H68.8848ZM72.4668 128.8C71.3525 128.8 70.5732 129.654 70.498 130.837H74.3604C74.333 129.647 73.5879 128.8 72.4668 128.8ZM74.333 132.963H75.502C75.2969 134.207 74.0938 135.123 72.542 135.123C70.5049 135.123 69.2676 133.708 69.2676 131.473C69.2676 129.265 70.5254 127.768 72.4873 127.768C74.4082 127.768 75.5908 129.162 75.5908 131.315V131.767H70.4912V131.835C70.4912 133.195 71.291 134.091 72.5693 134.091C73.4717 134.091 74.1348 133.633 74.333 132.963ZM76.7939 135V127.891H77.915V129.053H77.9424C78.1748 128.267 78.8311 127.768 79.665 127.768C79.8701 127.768 80.0479 127.802 80.1436 127.815V128.971C80.0479 128.937 79.7949 128.902 79.5078 128.902C78.585 128.902 77.9834 129.565 77.9834 130.57V135H76.7939ZM83.3223 134.111C84.4434 134.111 85.3047 133.325 85.3047 132.3V131.719L83.4043 131.835C82.4473 131.896 81.9004 132.32 81.9004 132.99C81.9004 133.667 82.4678 134.111 83.3223 134.111ZM83.0557 135.123C81.6406 135.123 80.6904 134.269 80.6904 132.99C80.6904 131.773 81.627 131.008 83.2676 130.912L85.3047 130.796V130.201C85.3047 129.333 84.7305 128.813 83.7461 128.813C82.8301 128.813 82.2559 129.244 82.1055 129.941H80.957C81.0391 128.711 82.0918 127.768 83.7734 127.768C85.4414 127.768 86.4941 128.67 86.4941 130.085V135H85.3662V133.776H85.3389C84.915 134.59 84.0127 135.123 83.0557 135.123ZM88.0664 135V125.136H89.2559V135H88.0664ZM90.9238 135V125.136H92.1133V135H90.9238ZM96.4678 129.853C96.4678 128.636 97.5547 127.768 99.1201 127.768C100.59 127.768 101.67 128.643 101.725 129.846H100.59C100.508 129.162 99.9541 128.738 99.0791 128.738C98.2109 128.738 97.6367 129.169 97.6367 129.791C97.6367 130.283 98.0127 130.611 98.8193 130.816L99.9199 131.083C101.355 131.445 101.875 131.965 101.875 133.011C101.875 134.248 100.706 135.123 99.0449 135.123C97.4863 135.123 96.3994 134.275 96.2764 133.018H97.4658C97.5957 133.756 98.1562 134.152 99.1201 134.152C100.084 134.152 100.679 133.742 100.679 133.1C100.679 132.594 100.385 132.32 99.585 132.108L98.334 131.787C97.083 131.466 96.4678 130.823 96.4678 129.853ZM103.112 135V127.891H104.233V129.025H104.261C104.596 128.273 105.32 127.768 106.277 127.768C107.248 127.768 107.966 128.26 108.273 129.121H108.301C108.697 128.273 109.531 127.768 110.529 127.768C111.938 127.768 112.847 128.684 112.847 130.092V135H111.657V130.365C111.657 129.395 111.117 128.82 110.181 128.82C109.237 128.82 108.574 129.518 108.574 130.481V135H107.385V130.235C107.385 129.381 106.811 128.82 105.929 128.82C104.985 128.82 104.302 129.559 104.302 130.543V135H103.112ZM116.709 134.111C117.83 134.111 118.691 133.325 118.691 132.3V131.719L116.791 131.835C115.834 131.896 115.287 132.32 115.287 132.99C115.287 133.667 115.854 134.111 116.709 134.111ZM116.442 135.123C115.027 135.123 114.077 134.269 114.077 132.99C114.077 131.773 115.014 131.008 116.654 130.912L118.691 130.796V130.201C118.691 129.333 118.117 128.813 117.133 128.813C116.217 128.813 115.643 129.244 115.492 129.941H114.344C114.426 128.711 115.479 127.768 117.16 127.768C118.828 127.768 119.881 128.67 119.881 130.085V135H118.753V133.776H118.726C118.302 134.59 117.399 135.123 116.442 135.123ZM121.392 135V127.891H122.513V129.053H122.54C122.772 128.267 123.429 127.768 124.263 127.768C124.468 127.768 124.646 127.802 124.741 127.815V128.971C124.646 128.937 124.393 128.902 124.105 128.902C123.183 128.902 122.581 129.565 122.581 130.57V135H121.392ZM126.095 126.175H127.284V127.891H128.665V128.868H127.284V133.093C127.284 133.742 127.558 134.036 128.166 134.036C128.303 134.036 128.576 134.016 128.658 134.002V135C128.515 135.034 128.187 135.055 127.906 135.055C126.601 135.055 126.095 134.521 126.095 133.154V128.868H125.035V127.891H126.095V126.175ZM132.582 128.8C131.468 128.8 130.688 129.654 130.613 130.837H134.476C134.448 129.647 133.703 128.8 132.582 128.8ZM134.448 132.963H135.617C135.412 134.207 134.209 135.123 132.657 135.123C130.62 135.123 129.383 133.708 129.383 131.473C129.383 129.265 130.641 127.768 132.603 127.768C134.523 127.768 135.706 129.162 135.706 131.315V131.767H130.606V131.835C130.606 133.195 131.406 134.091 132.685 134.091C133.587 134.091 134.25 133.633 134.448 132.963ZM136.909 135V127.891H138.03V129.053H138.058C138.29 128.267 138.946 127.768 139.78 127.768C139.985 127.768 140.163 127.802 140.259 127.815V128.971C140.163 128.937 139.91 128.902 139.623 128.902C138.7 128.902 138.099 129.565 138.099 130.57V135H136.909ZM144.483 135V128.868H143.492V127.891H144.483V127.098C144.483 125.73 145.119 125.081 146.432 125.081C146.698 125.081 146.985 125.108 147.156 125.136V126.1C147.013 126.079 146.814 126.059 146.616 126.059C145.974 126.059 145.666 126.4 145.666 127.104V127.891H147.122V128.868H145.673V135H144.483ZM154.19 127.891V135H153.062V133.845H153.035C152.611 134.665 151.873 135.123 150.779 135.123C149.228 135.123 148.318 134.118 148.318 132.505V127.891H149.508V132.293C149.508 133.448 150.048 134.07 151.148 134.07C152.304 134.07 153.001 133.277 153.001 132.067V127.891H154.19ZM156.118 126.175H157.308V127.891H158.688V128.868H157.308V133.093C157.308 133.742 157.581 134.036 158.189 134.036C158.326 134.036 158.6 134.016 158.682 134.002V135C158.538 135.034 158.21 135.055 157.93 135.055C156.624 135.055 156.118 134.521 156.118 133.154V128.868H155.059V127.891H156.118V126.175ZM165.798 127.891V135H164.67V133.845H164.643C164.219 134.665 163.48 135.123 162.387 135.123C160.835 135.123 159.926 134.118 159.926 132.505V127.891H161.115V132.293C161.115 133.448 161.655 134.07 162.756 134.07C163.911 134.07 164.608 133.277 164.608 132.067V127.891H165.798ZM167.343 135V127.891H168.464V129.053H168.491C168.724 128.267 169.38 127.768 170.214 127.768C170.419 127.768 170.597 127.802 170.692 127.815V128.971C170.597 128.937 170.344 128.902 170.057 128.902C169.134 128.902 168.532 129.565 168.532 130.57V135H167.343ZM174.172 128.8C173.058 128.8 172.278 129.654 172.203 130.837H176.065C176.038 129.647 175.293 128.8 174.172 128.8ZM176.038 132.963H177.207C177.002 134.207 175.799 135.123 174.247 135.123C172.21 135.123 170.973 133.708 170.973 131.473C170.973 129.265 172.23 127.768 174.192 127.768C176.113 127.768 177.296 129.162 177.296 131.315V131.767H172.196V131.835C172.196 133.195 172.996 134.091 174.274 134.091C175.177 134.091 175.84 133.633 176.038 132.963ZM181.753 135V128.868H180.762V127.891H181.753V127.098C181.753 125.73 182.389 125.081 183.701 125.081C183.968 125.081 184.255 125.108 184.426 125.136V126.1C184.282 126.079 184.084 126.059 183.886 126.059C183.243 126.059 182.936 126.4 182.936 127.104V127.891H184.392V128.868H182.942V135H181.753ZM188.227 135.123C186.258 135.123 184.932 133.708 184.932 131.445C184.932 129.176 186.258 127.768 188.227 127.768C190.188 127.768 191.515 129.176 191.515 131.445C191.515 133.708 190.188 135.123 188.227 135.123ZM188.227 134.077C189.484 134.077 190.305 133.12 190.305 131.445C190.305 129.771 189.484 128.813 188.227 128.813C186.969 128.813 186.142 129.771 186.142 131.445C186.142 133.12 186.969 134.077 188.227 134.077ZM192.718 135V127.891H193.839V129.053H193.866C194.099 128.267 194.755 127.768 195.589 127.768C195.794 127.768 195.972 127.802 196.067 127.815V128.971C195.972 128.937 195.719 128.902 195.432 128.902C194.509 128.902 193.907 129.565 193.907 130.57V135H192.718ZM202.76 128.8C201.646 128.8 200.866 129.654 200.791 130.837H204.653C204.626 129.647 203.881 128.8 202.76 128.8ZM204.626 132.963H205.795C205.59 134.207 204.387 135.123 202.835 135.123C200.798 135.123 199.561 133.708 199.561 131.473C199.561 129.265 200.818 127.768 202.78 127.768C204.701 127.768 205.884 129.162 205.884 131.315V131.767H200.784V131.835C200.784 133.195 201.584 134.091 202.862 134.091C203.765 134.091 204.428 133.633 204.626 132.963ZM212.918 127.891L210.307 135H209.09L206.472 127.891H207.723L209.685 133.735H209.712L211.681 127.891H212.918ZM216.5 128.8C215.386 128.8 214.606 129.654 214.531 130.837H218.394C218.366 129.647 217.621 128.8 216.5 128.8ZM218.366 132.963H219.535C219.33 134.207 218.127 135.123 216.575 135.123C214.538 135.123 213.301 133.708 213.301 131.473C213.301 129.265 214.559 127.768 216.521 127.768C218.441 127.768 219.624 129.162 219.624 131.315V131.767H214.524V131.835C214.524 133.195 215.324 134.091 216.603 134.091C217.505 134.091 218.168 133.633 218.366 132.963ZM220.827 135V127.891H221.948V129.053H221.976C222.208 128.267 222.864 127.768 223.698 127.768C223.903 127.768 224.081 127.802 224.177 127.815V128.971C224.081 128.937 223.828 128.902 223.541 128.902C222.618 128.902 222.017 129.565 222.017 130.57V135H220.827ZM225.735 137.659C225.592 137.659 225.353 137.646 225.223 137.618V136.62C225.353 136.647 225.537 136.654 225.688 136.654C226.351 136.654 226.72 136.333 226.993 135.506L227.157 135.007L224.532 127.891H225.804L227.772 133.811H227.793L229.762 127.891H231.013L228.217 135.499C227.608 137.16 227.021 137.659 225.735 137.659ZM234.697 135.123C232.729 135.123 231.402 133.708 231.402 131.445C231.402 129.176 232.729 127.768 234.697 127.768C236.659 127.768 237.985 129.176 237.985 131.445C237.985 133.708 236.659 135.123 234.697 135.123ZM234.697 134.077C235.955 134.077 236.775 133.12 236.775 131.445C236.775 129.771 235.955 128.813 234.697 128.813C233.439 128.813 232.612 129.771 232.612 131.445C232.612 133.12 233.439 134.077 234.697 134.077ZM239.188 135V127.891H240.31V129.025H240.337C240.733 128.26 241.492 127.768 242.593 127.768C244.151 127.768 245.054 128.772 245.054 130.386V135H243.864V130.598C243.864 129.449 243.324 128.82 242.23 128.82C241.109 128.82 240.378 129.613 240.378 130.816V135H239.188ZM249.422 128.8C248.308 128.8 247.528 129.654 247.453 130.837H251.315C251.288 129.647 250.543 128.8 249.422 128.8ZM251.288 132.963H252.457C252.252 134.207 251.049 135.123 249.497 135.123C247.46 135.123 246.223 133.708 246.223 131.473C246.223 129.265 247.48 127.768 249.442 127.768C251.363 127.768 252.546 129.162 252.546 131.315V131.767H247.446V131.835C247.446 133.195 248.246 134.091 249.524 134.091C250.427 134.091 251.09 133.633 251.288 132.963ZM254.754 135.068C254.316 135.068 253.975 134.727 253.975 134.289C253.975 133.852 254.316 133.51 254.754 133.51C255.191 133.51 255.533 133.852 255.533 134.289C255.533 134.727 255.191 135.068 254.754 135.068Z" fill="#0D3B3F"/>
</g>
<g filter="url(#filter0_d_1311_6659)">
<circle cx="379.016" cy="30" r="103" fill="white"/>
</g>
</g>
<path d="M367.962 48.9467C369.269 47.9182 370.224 46.5079 370.692 44.9119C371.16 43.316 371.12 41.6137 370.575 40.042C370.031 38.4703 369.011 37.1072 367.656 36.1425C366.301 35.1778 364.679 34.6594 363.016 34.6594C361.352 34.6594 359.73 35.1778 358.376 36.1425C357.021 37.1072 356 38.4703 355.456 40.042C354.912 41.6137 354.871 43.316 355.339 44.9119C355.808 46.5079 356.762 47.9182 358.069 48.9467C355.829 49.8441 353.875 51.3325 352.414 53.2532C350.954 55.174 350.042 57.4551 349.776 59.8534C349.756 60.0284 349.772 60.2056 349.821 60.3748C349.87 60.5439 349.952 60.7017 350.062 60.8391C350.285 61.1167 350.609 61.2945 350.962 61.3334C351.316 61.3723 351.671 61.2691 351.948 61.0465C352.226 60.824 352.403 60.5003 352.442 60.1467C352.735 57.5403 353.978 55.1331 355.933 53.3851C357.889 51.6371 360.419 50.6707 363.042 50.6707C365.665 50.6707 368.196 51.6371 370.151 53.3851C372.107 55.1331 373.35 57.5403 373.642 60.1467C373.679 60.4743 373.835 60.7769 374.081 60.996C374.327 61.2152 374.646 61.3354 374.976 61.3334H375.122C375.472 61.2931 375.791 61.1164 376.011 60.8417C376.231 60.567 376.333 60.2165 376.296 59.8667C376.028 57.4616 375.111 55.1747 373.643 53.251C372.175 51.3273 370.212 49.8393 367.962 48.9467V48.9467ZM363.016 48C361.961 48 360.93 47.6872 360.053 47.1012C359.176 46.5152 358.492 45.6822 358.088 44.7077C357.685 43.7331 357.579 42.6608 357.785 41.6262C357.991 40.5916 358.499 39.6413 359.244 38.8955C359.99 38.1496 360.941 37.6416 361.975 37.4358C363.01 37.23 364.082 37.3357 365.057 37.7393C366.031 38.143 366.864 38.8266 367.45 39.7036C368.036 40.5807 368.349 41.6119 368.349 42.6667C368.349 44.0812 367.787 45.4377 366.787 46.4379C365.787 47.4381 364.43 48 363.016 48Z" fill="#37A67E"/>
<defs>
<filter id="filter0_d_1311_6659" x="156.016" y="-193" width="446" height="446" filterUnits="userSpaceOnUse" color-interpolation-filters="sRGB">
<feFlood flood-opacity="0" result="BackgroundImageFix"/>
<feColorMatrix in="SourceAlpha" type="matrix" values="0 0 0 0 0 0 0 0 0 0 0 0 0 0 0 0 0 0 127 0" result="hardAlpha"/>
<feOffset/>
<feGaussianBlur stdDeviation="60"/>
<feComposite in2="hardAlpha" operator="out"/>
<feColorMatrix type="matrix" values="0 0 0 0 0 0 0 0 0 0.145098 0 0 0 0 0.615686 0 0 0 0.1 0"/>
<feBlend mode="normal" in2="BackgroundImageFix" result="effect1_dropShadow_1311_6659"/>
<feBlend mode="normal" in="SourceGraphic" in2="effect1_dropShadow_1311_6659" result="shape"/>
</filter>
</defs>
</svg>
