<svg width="56" height="58" viewBox="0 0 56 58" fill="none" xmlns="http://www.w3.org/2000/svg">
<g id="Frame 28">
<path id="Background" d="M0.803162 29.0625C0.803162 21.5735 3.70319 14.3912 8.86524 9.09568C14.0273 3.80016 21.0285 0.825195 28.3288 0.825195C35.629 0.825195 42.6302 3.80016 47.7923 9.09568C52.9543 14.3912 55.8544 21.5735 55.8544 29.0625C55.8544 36.5514 52.9543 43.7337 47.7923 49.0292C42.6302 54.3247 35.629 57.2997 28.3288 57.2997C21.0285 57.2997 14.0273 54.3247 8.86524 49.0292C3.70319 43.7337 0.803162 36.5514 0.803162 29.0625Z" fill="#DFF6EE"/>
<g id="Briefcase">
<path id="Vector" d="M37.7907 22.8855H18.8668C18.3918 22.8855 18.0067 23.2806 18.0067 23.7679V37.8865C18.0067 38.3739 18.3918 38.769 18.8668 38.769H37.7907C38.2657 38.769 38.6508 38.3739 38.6508 37.8865V23.7679C38.6508 23.2806 38.2657 22.8855 37.7907 22.8855Z" stroke="#4AB479" stroke-width="1.5"/>
<path id="Vector_2" d="M32.6296 22.8855V21.1207C32.6296 20.6526 32.4484 20.2037 32.1258 19.8727C31.8031 19.5418 31.3656 19.3558 30.9093 19.3558H25.7482C25.292 19.3558 24.8544 19.5418 24.5318 19.8727C24.2091 20.2037 24.0279 20.6526 24.0279 21.1207V22.8855" stroke="#4AB479" stroke-width="1.5"/>
<path id="Vector_3" d="M38.6508 28.8741C35.512 30.7313 31.9522 31.709 28.3288 31.709C24.7053 31.709 21.1455 30.7313 18.0067 28.8741" stroke="#4AB479" stroke-width="1.5"/>
<path id="Vector_4" d="M29.6133 28.1801H27.0327" stroke="#4AB479" stroke-width="1.5"/>
</g>
</g>
</svg>
