<svg width="20" height="20" viewBox="0 0 20 20" fill="none" xmlns="http://www.w3.org/2000/svg">
<g clip-path="url(#clip0_330_4510)">
<path d="M8.53423 13.5947L4.9987 10.0592L6.17721 8.8807L8.53423 11.2377L13.2483 6.52367L14.4268 7.70218L8.53423 13.5947Z" fill="#0D3B3F"/>
<path fill-rule="evenodd" clip-rule="evenodd" d="M0.832031 10C0.832031 4.93739 4.93609 0.833336 9.9987 0.833336C15.0613 0.833336 19.1654 4.93739 19.1654 10C19.1654 15.0626 15.0613 19.1667 9.9987 19.1667C4.93609 19.1667 0.832031 15.0626 0.832031 10ZM9.9987 17.5C5.85656 17.5 2.4987 14.1421 2.4987 10C2.4987 5.85787 5.85656 2.5 9.9987 2.5C14.1408 2.5 17.4987 5.85787 17.4987 10C17.4987 14.1421 14.1408 17.5 9.9987 17.5Z" fill="#0D3B3F"/>
</g>
<defs>
<clipPath id="clip0_330_4510">
<rect width="20" height="20" fill="white"/>
</clipPath>
</defs>
</svg>
