<svg width="20" height="20" viewBox="0 0 20 20" fill="none" xmlns="http://www.w3.org/2000/svg">
<g id="Iconsax/Linear/blend" clip-path="url(#clip0_163_384)">
<path id="Vector" d="M18.2881 10C18.2881 12.6894 16.1025 14.875 13.4131 14.875C12.2117 14.8777 11.0526 14.4315 10.1631 13.6238C11.1625 12.7381 11.7881 11.4381 11.7881 10C11.7881 8.56189 11.1625 7.26189 10.1631 6.37626C11.0526 5.56856 12.2117 5.1223 13.4131 5.12501C16.1025 5.12501 18.2881 7.31064 18.2881 10Z" stroke="white" stroke-width="2" stroke-linecap="round" stroke-linejoin="round"/>
<path id="Vector_2" d="M11.7881 10C11.7881 11.4381 11.1625 12.7381 10.1631 13.6237C9.27371 14.4315 8.1146 14.8777 6.91315 14.875C4.22377 14.875 2.03815 12.6894 2.03815 10C2.03815 7.31063 4.22377 5.125 6.91315 5.125C8.1644 5.125 9.3019 5.59625 10.1631 6.37625C11.1625 7.26187 11.7881 8.56188 11.7881 10Z" stroke="white" stroke-width="2" stroke-linecap="round" stroke-linejoin="round"/>
</g>
<defs>
<clipPath id="clip0_163_384">
<rect width="19.5" height="19.5" fill="white" transform="translate(0.4375 0.25)"/>
</clipPath>
</defs>
</svg>
