<svg width="21" height="20" viewBox="0 0 21 20" fill="none" xmlns="http://www.w3.org/2000/svg">
<g id="Iconsax/Linear/briefcase" clip-path="url(#clip0_163_401)">
<path id="Vector" d="M7.34375 5.125V4.475C7.34375 3.03687 7.34375 1.875 9.94375 1.875H11.2438C13.8438 1.875 13.8438 3.03687 13.8438 4.475V5.125M7.34375 18.125H13.8438C17.11 18.125 17.695 16.8169 17.8656 15.2244L18.475 8.72438C18.6944 6.74188 18.1256 5.125 14.6563 5.125H6.53125C3.06188 5.125 2.49313 6.74188 2.7125 8.72438L3.32188 15.2244C3.4925 16.8169 4.0775 18.125 7.34375 18.125Z" stroke="white" stroke-width="2" stroke-miterlimit="10" stroke-linecap="round" stroke-linejoin="round"/>
<path id="Vector_2" d="M12.2187 11.6413V10.8125C12.2187 10 12.2187 10 11.4062 10H9.78125C8.96875 10 8.96875 10 8.96875 10.8125V11.6494M12.2187 11.6413C12.2187 12.5269 12.2106 13.25 10.5937 13.25C8.985 13.25 8.96875 12.535 8.96875 11.6494M12.2187 11.6413C14.4647 11.3616 16.6031 10.5175 18.4344 9.1875M8.96875 11.6494C6.86438 11.4137 4.80062 10.6581 2.9725 9.40688" stroke="white" stroke-width="2" stroke-miterlimit="10" stroke-linecap="round" stroke-linejoin="round"/>
</g>
<defs>
<clipPath id="clip0_163_401">
<rect width="19.5" height="19.5" fill="white" transform="translate(0.84375 0.25)"/>
</clipPath>
</defs>
</svg>
