<svg width="40" height="40" viewBox="0 0 40 40" fill="none" xmlns="http://www.w3.org/2000/svg">
<circle cx="20" cy="20" r="20" fill="#EEEEEE"/>
<path d="M22.4733 20.4733C23.1269 19.9591 23.604 19.2539 23.8382 18.456C24.0723 17.658 24.0519 16.8068 23.7799 16.021C23.5078 15.2351 22.9975 14.5536 22.32 14.0712C21.6426 13.5889 20.8316 13.3297 20 13.3297C19.1684 13.3297 18.3574 13.5889 17.68 14.0712C17.0025 14.5536 16.4922 15.2351 16.2201 16.021C15.9481 16.8068 15.9277 17.658 16.1618 18.456C16.396 19.2539 16.8731 19.9591 17.5267 20.4733C16.4067 20.922 15.4295 21.6662 14.6993 22.6266C13.969 23.587 13.513 24.7275 13.38 25.9267C13.3704 26.0142 13.3781 26.1028 13.4027 26.1874C13.4273 26.2719 13.4683 26.3508 13.5234 26.4195C13.6347 26.5583 13.7965 26.6472 13.9733 26.6667C14.1501 26.6861 14.3274 26.6345 14.4662 26.5233C14.605 26.412 14.6939 26.2501 14.7133 26.0733C14.8597 24.7701 15.4811 23.5665 16.4588 22.6925C17.4365 21.8185 18.7019 21.3353 20.0133 21.3353C21.3247 21.3353 22.5902 21.8185 23.5679 22.6925C24.5455 23.5665 25.1669 24.7701 25.3133 26.0733C25.3315 26.2371 25.4096 26.3884 25.5327 26.498C25.6559 26.6076 25.8152 26.6677 25.98 26.6667H26.0533C26.2281 26.6466 26.3878 26.5582 26.4977 26.4208C26.6076 26.2835 26.6587 26.1082 26.64 25.9333C26.5063 24.7308 26.0479 23.5873 25.3139 22.6255C24.5799 21.6636 23.5979 20.9196 22.4733 20.4733ZM20 20C19.4726 20 18.957 19.8436 18.5185 19.5506C18.0799 19.2576 17.7382 18.8411 17.5363 18.3538C17.3345 17.8665 17.2817 17.3304 17.3846 16.8131C17.4875 16.2958 17.7414 15.8207 18.1144 15.4477C18.4873 15.0748 18.9625 14.8208 19.4798 14.7179C19.997 14.615 20.5332 14.6678 21.0205 14.8697C21.5078 15.0715 21.9242 15.4133 22.2173 15.8518C22.5103 16.2903 22.6667 16.8059 22.6667 17.3333C22.6667 18.0406 22.3857 18.7189 21.8856 19.2189C21.3855 19.719 20.7072 20 20 20Z" fill="black"/>
</svg>
