<svg width="32" height="32" viewBox="0 0 32 32" fill="none" xmlns="http://www.w3.org/2000/svg">
<g id="call">
<g id="Vector">
<path d="M14.7332 19.9334L12.2665 22.4001C11.7465 22.9201 10.9198 22.9201 10.3865 22.4134C10.2398 22.2667 10.0932 22.1334 9.9465 21.9867C8.57317 20.6001 7.33317 19.1467 6.2265 17.6267C5.13317 16.1067 4.25317 14.5867 3.61317 13.0801C2.9865 11.5601 2.6665 10.1067 2.6665 8.72008C2.6665 7.81341 2.8265 6.94675 3.1465 6.14675C3.4665 5.33341 3.97317 4.58675 4.67984 3.92008C5.53317 3.08008 6.4665 2.66675 7.45317 2.66675C7.8265 2.66675 8.19984 2.74675 8.53317 2.90675C8.87984 3.06675 9.1865 3.30675 9.4265 3.65341L12.5198 8.01342C12.7598 8.34675 12.9332 8.65342 13.0532 8.94675C13.1732 9.22675 13.2398 9.50675 13.2398 9.76008C13.2398 10.0801 13.1465 10.4001 12.9598 10.7067C12.7865 11.0134 12.5332 11.3334 12.2132 11.6534L11.1998 12.7067C11.0532 12.8534 10.9865 13.0267 10.9865 13.2401C10.9865 13.3467 10.9998 13.4401 11.0265 13.5467C11.0665 13.6534 11.1065 13.7334 11.1332 13.8134C11.3732 14.2534 11.7865 14.8267 12.3732 15.5201C12.9732 16.2134 13.6132 16.9201 14.3065 17.6267C14.4398 17.7601 14.5865 17.8934 14.7198 18.0267C15.2532 18.5467 15.2665 19.4001 14.7332 19.9334Z" fill="#2563EB"/>
<path d="M29.2932 24.4401C29.2932 24.8134 29.2265 25.2001 29.0932 25.5734C29.0532 25.6801 29.0132 25.7867 28.9598 25.8934C28.7332 26.3734 28.4398 26.8267 28.0532 27.2534C27.3998 27.9734 26.6798 28.4934 25.8665 28.8267C25.8532 28.8267 25.8398 28.8401 25.8265 28.8401C25.0398 29.1601 24.1865 29.3334 23.2665 29.3334C21.9065 29.3334 20.4532 29.0134 18.9198 28.3601C17.3865 27.7067 15.8532 26.8267 14.3332 25.7201C13.8132 25.3334 13.2932 24.9467 12.7998 24.5334L17.1598 20.1734C17.5332 20.4534 17.8665 20.6667 18.1465 20.8134C18.2132 20.8401 18.2932 20.8801 18.3865 20.9201C18.4932 20.9601 18.5998 20.9734 18.7198 20.9734C18.9465 20.9734 19.1198 20.8934 19.2665 20.7467L20.2798 19.7467C20.6132 19.4134 20.9332 19.1601 21.2398 19.0001C21.5465 18.8134 21.8532 18.7201 22.1865 18.7201C22.4398 18.7201 22.7065 18.7734 22.9998 18.8934C23.2932 19.0134 23.5998 19.1867 23.9332 19.4134L28.3465 22.5467C28.6932 22.7867 28.9332 23.0667 29.0798 23.4001C29.2132 23.7334 29.2932 24.0667 29.2932 24.4401Z" fill="#2563EB"/>
</g>
</g>
</svg>
