<svg width="16" height="17" viewBox="0 0 16 17" fill="none" xmlns="http://www.w3.org/2000/svg">
<g id="check-o">
<g id="check-o_2">
<path d="M6.82826 11.3759L3.99984 8.54744L4.94265 7.60464L6.82826 9.49025L10.5995 5.71902L11.5423 6.66183L6.82826 11.3759Z" fill="white"/>
<path fill-rule="evenodd" clip-rule="evenodd" d="M0.666504 8.50008C0.666504 4.44999 3.94975 1.16675 7.99984 1.16675C12.0499 1.16675 15.3332 4.44999 15.3332 8.50008C15.3332 12.5502 12.0499 15.8334 7.99984 15.8334C3.94975 15.8334 0.666504 12.5502 0.666504 8.50008ZM7.99984 14.5001C4.68613 14.5001 1.99984 11.8138 1.99984 8.50008C1.99984 5.18637 4.68613 2.50008 7.99984 2.50008C11.3135 2.50008 13.9998 5.18637 13.9998 8.50008C13.9998 11.8138 11.3135 14.5001 7.99984 14.5001Z" fill="white"/>
</g>
</g>
</svg>
