<svg width="54" height="54" viewBox="0 0 54 54" fill="none" xmlns="http://www.w3.org/2000/svg">
<path d="M24.6242 12.8163C25.1125 10.1818 28.8875 10.1818 29.3758 12.8163C29.7252 14.7009 32.0245 15.448 33.4149 14.1287C35.3585 12.2844 38.4125 14.5032 37.2591 16.9216C36.434 18.6516 37.8551 20.6076 39.7553 20.3574C42.4118 20.0078 43.5783 23.598 41.2237 24.8765C39.5393 25.7912 39.5393 28.2088 41.2237 29.1235C43.5783 30.402 42.4118 33.9922 39.7553 33.6426C37.855 33.3924 36.434 35.3484 37.2591 37.0784C38.4125 39.4968 35.3585 41.7156 33.4149 39.8713C32.0245 38.552 29.7252 39.2991 29.3758 41.1837C28.8875 43.8182 25.1125 43.8182 24.6242 41.1837C24.2748 39.2991 21.9755 38.552 20.5851 39.8713C18.6415 41.7156 15.5875 39.4968 16.7409 37.0784C17.566 35.3484 16.1449 33.3924 14.2447 33.6426C11.5882 33.9922 10.4217 30.402 12.7763 29.1235C14.4607 28.2088 14.4607 25.7912 12.7763 24.8765C10.4217 23.598 11.5882 20.0078 14.2447 20.3574C16.1449 20.6076 17.566 18.6516 16.7409 16.9216C15.5875 14.5032 18.6415 12.2844 20.5851 14.1287C21.9755 15.448 24.2748 14.7009 24.6242 12.8163Z" fill="#37A67E"/>
<path d="M33.4245 22.6417C33.3373 22.5539 33.2336 22.4841 33.1194 22.4365C33.0051 22.3889 32.8826 22.3644 32.7588 22.3644C32.6351 22.3644 32.5125 22.3889 32.3983 22.4365C32.284 22.4841 32.1804 22.5539 32.0932 22.6417L25.1088 29.6355L22.1745 26.6917C22.084 26.6043 21.9771 26.5356 21.8601 26.4894C21.743 26.4433 21.6181 26.4207 21.4923 26.4229C21.3665 26.4251 21.2423 26.452 21.1269 26.5021C21.0116 26.5523 20.9072 26.6247 20.8198 26.7152C20.7324 26.8056 20.6636 26.9125 20.6175 27.0295C20.5714 27.1466 20.5487 27.2716 20.5509 27.3974C20.5531 27.5232 20.58 27.6473 20.6302 27.7627C20.6803 27.8781 20.7527 27.9824 20.8432 28.0698L24.4432 31.6698C24.5304 31.7577 24.634 31.8275 24.7483 31.8751C24.8625 31.9227 24.9851 31.9472 25.1088 31.9472C25.2326 31.9472 25.3551 31.9227 25.4694 31.8751C25.5836 31.8275 25.6873 31.7577 25.7745 31.6698L33.4245 24.0198C33.5196 23.9321 33.5956 23.8255 33.6475 23.7069C33.6995 23.5883 33.7263 23.4603 33.7263 23.3308C33.7263 23.2013 33.6995 23.0732 33.6475 22.9547C33.5956 22.8361 33.5196 22.7295 33.4245 22.6417Z" fill="white"/>
</svg>
