<svg width="17" height="16" viewBox="0 0 17 16" fill="none" xmlns="http://www.w3.org/2000/svg">
<g clip-path="url(#clip0_398_3787)">
<path fill-rule="evenodd" clip-rule="evenodd" d="M1.41797 3.33332C1.41797 1.86056 2.61188 0.666656 4.08464 0.666656H13.418C14.8907 0.666656 16.0846 1.86056 16.0846 3.33332V12.6667C16.0846 14.1394 14.8907 15.3333 13.418 15.3333H4.08464C2.61188 15.3333 1.41797 14.1394 1.41797 12.6667V3.33332ZM4.08464 1.99999H13.418C14.1543 1.99999 14.7513 2.59694 14.7513 3.33332V12.6667C14.7513 13.403 14.1543 14 13.418 14H4.08464C3.34826 14 2.7513 13.403 2.7513 12.6667V3.33332C2.7513 2.59694 3.34826 1.99999 4.08464 1.99999Z" fill="#0D3B3F"/>
<path d="M7.50552 11.468C7.37535 11.5982 7.16429 11.5982 7.03412 11.468L3.80099 8.23486C3.67114 8.10501 3.67077 7.8946 3.80016 7.76429L4.37486 7.18551C4.5049 7.05455 4.7166 7.05417 4.8471 7.18467L7.03412 9.3717C7.16429 9.50187 7.37535 9.50187 7.50552 9.37169L12.6555 4.22171C12.786 4.09121 12.9977 4.09159 13.1277 4.22255L13.7024 4.80133C13.8318 4.93163 13.8315 5.14205 13.7016 5.2719L7.50552 11.468ZM13.9365 1.33332H3.56612C2.74389 1.33332 2.08464 1.99258 2.08464 2.8148V13.1852C2.08464 13.5781 2.24072 13.9549 2.51855 14.2327C2.79638 14.5106 3.1732 14.6667 3.56612 14.6667H13.9365C14.3294 14.6667 14.7062 14.5106 14.9841 14.2327C15.2619 13.9549 15.418 13.5781 15.418 13.1852V2.8148C15.418 1.99258 14.7513 1.33332 13.9365 1.33332Z" fill="#0D3B3F"/>
</g>
<defs>
<clipPath id="clip0_398_3787">
<rect width="16" height="16" fill="white" transform="translate(0.75)"/>
</clipPath>
</defs>
</svg>
