<svg width="20" height="21" viewBox="0 0 20 21" fill="none" xmlns="http://www.w3.org/2000/svg">
<g id="close-circle">
<path id="Vector" d="M10 2.16663C5.40835 2.16663 1.66669 5.90829 1.66669 10.5C1.66669 15.0916 5.40835 18.8333 10 18.8333C14.5917 18.8333 18.3334 15.0916 18.3334 10.5C18.3334 5.90829 14.5917 2.16663 10 2.16663ZM12.8 12.4166C13.0417 12.6583 13.0417 13.0583 12.8 13.3C12.675 13.425 12.5167 13.4833 12.3584 13.4833C12.2 13.4833 12.0417 13.425 11.9167 13.3L10 11.3833L8.08335 13.3C7.95835 13.425 7.80002 13.4833 7.64169 13.4833C7.48335 13.4833 7.32502 13.425 7.20002 13.3C6.95835 13.0583 6.95835 12.6583 7.20002 12.4166L9.11669 10.5L7.20002 8.58329C6.95835 8.34163 6.95835 7.94163 7.20002 7.69996C7.44169 7.45829 7.84169 7.45829 8.08335 7.69996L10 9.61663L11.9167 7.69996C12.1584 7.45829 12.5584 7.45829 12.8 7.69996C13.0417 7.94163 13.0417 8.34163 12.8 8.58329L10.8834 10.5L12.8 12.4166Z" fill="#2563EB"/>
</g>
</svg>
