<svg width="16" height="17" viewBox="0 0 16 17" fill="none" xmlns="http://www.w3.org/2000/svg">
<path d="M4.14979 3.70747C3.88944 3.44712 3.46733 3.44712 3.20698 3.70747C2.94663 3.96782 2.94663 4.38993 3.20698 4.65028L7.0568 8.5001L3.20702 12.3499C2.94667 12.6102 2.94667 13.0323 3.20702 13.2927C3.46737 13.553 3.88948 13.553 4.14983 13.2927L7.99961 9.44291L11.8494 13.2927C12.1097 13.553 12.5319 13.553 12.7922 13.2927C13.0526 13.0323 13.0526 12.6102 12.7922 12.3499L8.94242 8.5001L12.7922 4.65028C13.0526 4.38993 13.0526 3.96782 12.7922 3.70747C12.5319 3.44712 12.1098 3.44712 11.8494 3.70747L7.99961 7.55729L4.14979 3.70747Z" fill="#37A67E"/>
</svg>
