<svg width="20" height="21" viewBox="0 0 20 21" fill="none" xmlns="http://www.w3.org/2000/svg">
<g id="coin">
<g id="Vector">
<path d="M18.2668 14.4584C17.9918 16.675 16.1751 18.4917 13.9584 18.7667C12.6168 18.9334 11.3668 18.5667 10.3918 17.85C9.83344 17.4417 9.96678 16.575 10.6334 16.375C13.1418 15.6167 15.1168 13.6334 15.8834 11.125C16.0834 10.4667 16.9501 10.3334 17.3584 10.8834C18.0668 11.8667 18.4334 13.1167 18.2668 14.4584Z" fill="#2563EB"/>
<path d="M8.32502 2.16663C4.65002 2.16663 1.66669 5.14996 1.66669 8.82496C1.66669 12.5 4.65002 15.4833 8.32502 15.4833C12 15.4833 14.9834 12.5 14.9834 8.82496C14.975 5.14996 12 2.16663 8.32502 2.16663ZM7.54169 7.89163L9.55002 8.59163C10.275 8.84996 10.625 9.35829 10.625 10.1416C10.625 11.0416 9.90835 11.7833 9.03335 11.7833H8.95835V11.825C8.95835 12.1666 8.67502 12.45 8.33335 12.45C7.99169 12.45 7.70835 12.1666 7.70835 11.825V11.775C6.78335 11.7333 6.04169 10.9583 6.04169 9.99163C6.04169 9.64996 6.32502 9.36663 6.66669 9.36663C7.00835 9.36663 7.29169 9.64996 7.29169 9.99163C7.29169 10.2916 7.50835 10.5333 7.77502 10.5333H9.02502C9.21669 10.5333 9.36669 10.3583 9.36669 10.1416C9.36669 9.84996 9.31669 9.83329 9.12502 9.76663L7.11669 9.06663C6.40002 8.81663 6.04169 8.30829 6.04169 7.51663C6.04169 6.61663 6.75835 5.87496 7.63335 5.87496H7.70835V5.84163C7.70835 5.49996 7.99169 5.21663 8.33335 5.21663C8.67502 5.21663 8.95835 5.49996 8.95835 5.84163V5.89163C9.88335 5.93329 10.625 6.70829 10.625 7.67496C10.625 8.01663 10.3417 8.29996 10 8.29996C9.65835 8.29996 9.37502 8.01663 9.37502 7.67496C9.37502 7.37496 9.15835 7.13329 8.89169 7.13329H7.64169C7.45002 7.13329 7.30002 7.30829 7.30002 7.52496C7.29169 7.80829 7.34169 7.82496 7.54169 7.89163Z" fill="#2563EB"/>
</g>
</g>
</svg>
