<svg width="25" height="24" viewBox="0 0 25 24" fill="none" xmlns="http://www.w3.org/2000/svg">
<g id="coin">
<g id="Vector">
<path d="M22.4201 16.7501C22.0901 19.4101 19.9101 21.5901 17.2501 21.9201C15.6401 22.1201 14.1401 21.6801 12.9701 20.8201C12.3001 20.3301 12.4601 19.2901 13.2601 19.0501C16.2701 18.1401 18.6401 15.7601 19.5601 12.7501C19.8001 11.9601 20.8401 11.8001 21.3301 12.4601C22.1801 13.6401 22.6201 15.1401 22.4201 16.7501Z" fill="white"/>
<path d="M10.49 2C6.08 2 2.5 5.58 2.5 9.99C2.5 14.4 6.08 17.98 10.49 17.98C14.9 17.98 18.48 14.4 18.48 9.99C18.47 5.58 14.9 2 10.49 2ZM9.55 8.87L11.96 9.71C12.83 10.02 13.25 10.63 13.25 11.57C13.25 12.65 12.39 13.54 11.34 13.54H11.25V13.59C11.25 14 10.91 14.34 10.5 14.34C10.09 14.34 9.75 14 9.75 13.59V13.53C8.64 13.48 7.75 12.55 7.75 11.39C7.75 10.98 8.09 10.64 8.5 10.64C8.91 10.64 9.25 10.98 9.25 11.39C9.25 11.75 9.51 12.04 9.83 12.04H11.33C11.56 12.04 11.74 11.83 11.74 11.57C11.74 11.22 11.68 11.2 11.45 11.12L9.04 10.28C8.18 9.98 7.75 9.37 7.75 8.42C7.75 7.34 8.61 6.45 9.66 6.45H9.75V6.41C9.75 6 10.09 5.66 10.5 5.66C10.91 5.66 11.25 6 11.25 6.41V6.47C12.36 6.52 13.25 7.45 13.25 8.61C13.25 9.02 12.91 9.36 12.5 9.36C12.09 9.36 11.75 9.02 11.75 8.61C11.75 8.25 11.49 7.96 11.17 7.96H9.67C9.44 7.96 9.26 8.17 9.26 8.43C9.25 8.77 9.31 8.79 9.55 8.87Z" fill="white"/>
</g>
</g>
</svg>
