<svg width="17" height="17" viewBox="0 0 17 17" fill="none" xmlns="http://www.w3.org/2000/svg">
<g id="u:comment-alt-dots">
<path id="Vector" d="M8.50065 6.5C8.3688 6.5 8.2399 6.53909 8.13027 6.61235C8.02064 6.6856 7.93519 6.78972 7.88473 6.91154C7.83427 7.03336 7.82107 7.1674 7.84679 7.29672C7.87252 7.42604 7.93601 7.54483 8.02925 7.63807C8.12248 7.7313 8.24127 7.7948 8.37059 7.82052C8.49991 7.84624 8.63396 7.83304 8.75577 7.78258C8.87759 7.73212 8.98171 7.64668 9.05496 7.53704C9.12822 7.42741 9.16732 7.29852 9.16732 7.16666C9.16732 6.98985 9.09708 6.82028 8.97206 6.69526C8.84703 6.57023 8.67746 6.5 8.50065 6.5ZM13.1673 1.83333H3.83398C3.30355 1.83333 2.79484 2.04404 2.41977 2.41911C2.0447 2.79419 1.83398 3.3029 1.83398 3.83333V10.5C1.83398 11.0304 2.0447 11.5391 2.41977 11.9142C2.79484 12.2893 3.30355 12.5 3.83398 12.5H11.5607L14.0273 14.9733C14.0896 15.0351 14.1635 15.084 14.2447 15.1172C14.3259 15.1504 14.4129 15.1672 14.5007 15.1667C14.5881 15.1689 14.6749 15.1507 14.754 15.1133C14.8757 15.0633 14.9799 14.9784 15.0535 14.8692C15.1271 14.7601 15.1667 14.6316 15.1673 14.5V3.83333C15.1673 3.3029 14.9566 2.79419 14.5815 2.41911C14.2065 2.04404 13.6978 1.83333 13.1673 1.83333ZM13.834 12.8933L12.3073 11.36C12.245 11.2982 12.1711 11.2493 12.0899 11.2161C12.0087 11.183 11.9217 11.1662 11.834 11.1667H3.83398C3.65717 11.1667 3.4876 11.0964 3.36258 10.9714C3.23756 10.8464 3.16732 10.6768 3.16732 10.5V3.83333C3.16732 3.65652 3.23756 3.48695 3.36258 3.36192C3.4876 3.2369 3.65717 3.16666 3.83398 3.16666H13.1673C13.3441 3.16666 13.5137 3.2369 13.6387 3.36192C13.7637 3.48695 13.834 3.65652 13.834 3.83333V12.8933ZM5.83398 6.5C5.70213 6.5 5.57324 6.53909 5.4636 6.61235C5.35397 6.6856 5.26852 6.78972 5.21806 6.91154C5.16761 7.03336 5.1544 7.1674 5.18013 7.29672C5.20585 7.42604 5.26935 7.54483 5.36258 7.63807C5.45582 7.7313 5.5746 7.7948 5.70392 7.82052C5.83325 7.84624 5.96729 7.83304 6.08911 7.78258C6.21092 7.73212 6.31504 7.64668 6.3883 7.53704C6.46155 7.42741 6.50065 7.29852 6.50065 7.16666C6.50065 6.98985 6.43041 6.82028 6.30539 6.69526C6.18036 6.57023 6.0108 6.5 5.83398 6.5ZM11.1673 6.5C11.0355 6.5 10.9066 6.53909 10.7969 6.61235C10.6873 6.6856 10.6019 6.78972 10.5514 6.91154C10.5009 7.03336 10.4877 7.1674 10.5135 7.29672C10.5392 7.42604 10.6027 7.54483 10.6959 7.63807C10.7891 7.7313 10.9079 7.7948 11.0373 7.82052C11.1666 7.84624 11.3006 7.83304 11.4224 7.78258C11.5443 7.73212 11.6484 7.64668 11.7216 7.53704C11.7949 7.42741 11.834 7.29852 11.834 7.16666C11.834 6.98985 11.7637 6.82028 11.6387 6.69526C11.5137 6.57023 11.3441 6.5 11.1673 6.5Z" fill="black"/>
</g>
</svg>
