<svg width="25" height="24" viewBox="0 0 25 24" fill="none" xmlns="http://www.w3.org/2000/svg">
<g id="crown">
<g id="Vector">
<path d="M17.5 22H7.50001C7.09001 22 6.75001 21.66 6.75001 21.25C6.75001 20.84 7.09001 20.5 7.50001 20.5H17.5C17.91 20.5 18.25 20.84 18.25 21.25C18.25 21.66 17.91 22 17.5 22Z" fill="white"/>
<path d="M20.85 5.52L16.85 8.38C16.32 8.76 15.56 8.53 15.33 7.92L13.44 2.88C13.12 2.01 11.89 2.01 11.57 2.88L9.67001 7.91C9.44001 8.53 8.69001 8.76 8.16001 8.37L4.16001 5.51C3.36001 4.95 2.30001 5.74 2.63001 6.67L6.79001 18.32C6.93001 18.72 7.31001 18.98 7.73001 18.98H17.26C17.68 18.98 18.06 18.71 18.2 18.32L22.36 6.67C22.7 5.74 21.64 4.95 20.85 5.52ZM15 14.75H10C9.59001 14.75 9.25001 14.41 9.25001 14C9.25001 13.59 9.59001 13.25 10 13.25H15C15.41 13.25 15.75 13.59 15.75 14C15.75 14.41 15.41 14.75 15 14.75Z" fill="white"/>
</g>
</g>
</svg>
