<svg width="26" height="26" viewBox="0 0 26 26" fill="none" xmlns="http://www.w3.org/2000/svg">
<g id="Iconsax/Linear/cup">
<path id="Vector" d="M13.1559 17.6801V19.8641" stroke="white" stroke-width="1.5" stroke-linecap="round" stroke-linejoin="round"/>
<path id="Vector_2" d="M7.9559 23.4H18.3559V22.36C18.3559 21.216 17.4199 20.28 16.2759 20.28H10.0359C8.8919 20.28 7.9559 21.216 7.9559 22.36V23.4Z" stroke="white" stroke-width="1.5" stroke-miterlimit="10"/>
<path id="Vector_3" d="M6.91591 23.4H19.3959M12.9999 17.16C8.97511 17.16 5.71991 13.9048 5.71991 9.87997V6.75997C5.71991 4.46158 7.58151 2.59998 9.87991 2.59998H16.1199C18.4183 2.59998 20.2799 4.46158 20.2799 6.75997V9.87997C20.2799 13.9048 17.0247 17.16 12.9999 17.16Z" stroke="white" stroke-width="2" stroke-linecap="round" stroke-linejoin="round"/>
<path id="Vector_4" d="M6.20871 12.6361C5.42871 12.3865 4.74231 11.9289 4.20151 11.3881C3.26551 10.3481 2.64151 9.10007 2.64151 7.64407C2.64151 6.18807 3.78551 5.04407 5.24151 5.04407H5.91751C5.70951 5.52247 5.60551 6.05287 5.60551 6.60407V9.72407C5.60551 10.7641 5.82391 11.7417 6.20871 12.6361ZM19.7911 12.6361C20.5711 12.3865 21.2575 11.9289 21.7983 11.3881C22.7343 10.3481 23.3583 9.10007 23.3583 7.64407C23.3583 6.18807 22.2143 5.04407 20.7583 5.04407H20.0823C20.2903 5.52247 20.3943 6.05287 20.3943 6.60407V9.72407C20.3943 10.7641 20.1759 11.7417 19.7911 12.6361Z" stroke="white" stroke-width="2" stroke-linecap="round" stroke-linejoin="round"/>
</g>
</svg>
