<svg width="25" height="24" viewBox="0 0 25 24" fill="none" xmlns="http://www.w3.org/2000/svg">
<g id="cup">
<g id="Vector">
<path d="M11.75 18.25H9.50003C8.40003 18.25 7.50003 19.15 7.50003 20.25V20.5H6.50003C6.09003 20.5 5.75003 20.84 5.75003 21.25C5.75003 21.66 6.09003 22 6.50003 22H18.5C18.91 22 19.25 21.66 19.25 21.25C19.25 20.84 18.91 20.5 18.5 20.5H17.5V20.25C17.5 19.15 16.6 18.25 15.5 18.25H13.25V15.96C13 15.99 12.75 16 12.5 16C12.25 16 12 15.99 11.75 15.96V18.25Z" fill="white"/>
<path d="M18.98 11.64C19.64 11.39 20.22 10.98 20.68 10.52C21.61 9.49 22.22 8.26 22.22 6.82C22.22 5.38 21.09 4.25 19.65 4.25H19.09C18.44 2.92 17.08 2 15.5 2H9.50003C7.92003 2 6.56003 2.92 5.91003 4.25H5.35003C3.91003 4.25 2.78003 5.38 2.78003 6.82C2.78003 8.26 3.39003 9.49 4.32003 10.52C4.78003 10.98 5.36003 11.39 6.02003 11.64C7.06003 14.2 9.56003 16 12.5 16C15.44 16 17.94 14.2 18.98 11.64ZM15.34 8.45L14.72 9.21C14.62 9.32 14.55 9.54 14.56 9.69L14.62 10.67C14.66 11.27 14.23 11.58 13.67 11.36L12.76 11C12.62 10.95 12.38 10.95 12.24 11L11.33 11.36C10.77 11.58 10.34 11.27 10.38 10.67L10.44 9.69C10.45 9.54 10.38 9.32 10.28 9.21L9.66003 8.45C9.27003 7.99 9.44003 7.48 10.02 7.33L10.97 7.09C11.12 7.05 11.3 6.91 11.38 6.78L11.91 5.96C12.24 5.45 12.76 5.45 13.09 5.96L13.62 6.78C13.7 6.91 13.88 7.05 14.03 7.09L14.98 7.33C15.56 7.48 15.73 7.99 15.34 8.45Z" fill="white"/>
</g>
</g>
</svg>
