<svg width="20" height="20" viewBox="0 0 20 20" fill="none" xmlns="http://www.w3.org/2000/svg">
<path d="M12.3333 7.49998C12.1824 7.23811 11.963 7.02223 11.6988 6.87544C11.4346 6.72865 11.1354 6.65647 10.8333 6.66664H9.16667C8.72464 6.66664 8.30072 6.84224 7.98816 7.1548C7.67559 7.46736 7.5 7.89128 7.5 8.33331C7.5 8.77534 7.67559 9.19926 7.98816 9.51182C8.30072 9.82438 8.72464 9.99998 9.16667 9.99998H10.8333C11.2754 9.99998 11.6993 10.1756 12.0118 10.4881C12.3244 10.8007 12.5 11.2246 12.5 11.6666C12.5 12.1087 12.3244 12.5326 12.0118 12.8452C11.6993 13.1577 11.2754 13.3333 10.8333 13.3333H9.16667C8.86458 13.3435 8.56541 13.2713 8.30118 13.1245C8.03696 12.9777 7.81763 12.7618 7.66667 12.5M10 5V6.66667M10 13.3333V15M17.5 10C17.5 14.1421 14.1421 17.5 10 17.5C5.85786 17.5 2.5 14.1421 2.5 10C2.5 5.85786 5.85786 2.5 10 2.5C14.1421 2.5 17.5 5.85786 17.5 10Z" stroke="#0D3B3F" stroke-width="1.5" stroke-linecap="round" stroke-linejoin="round"/>
</svg>
