<svg width="16" height="17" viewBox="0 0 16 17" fill="none" xmlns="http://www.w3.org/2000/svg">
<g id="Icons">
<path id="Vector" d="M9.86667 6.49998C9.7459 6.29049 9.57043 6.11778 9.35905 6.00035C9.14768 5.88292 8.90834 5.82518 8.66667 5.83332H7.33333C6.97971 5.83332 6.64057 5.97379 6.39052 6.22384C6.14048 6.47389 6 6.81303 6 7.16665C6 7.52027 6.14048 7.85941 6.39052 8.10946C6.64057 8.35951 6.97971 8.49998 7.33333 8.49998H8.66667C9.02029 8.49998 9.35943 8.64046 9.60948 8.89051C9.85952 9.14056 10 9.47969 10 9.83332C10 10.1869 9.85952 10.5261 9.60948 10.7761C9.35943 11.0262 9.02029 11.1666 8.66667 11.1666H7.33333C7.09166 11.1748 6.85233 11.117 6.64095 10.9996C6.42957 10.8822 6.2541 10.7095 6.13333 10.5M8 4.5V5.83333M8 11.1667V12.5M14 8.5C14 11.8137 11.3137 14.5 8 14.5C4.68629 14.5 2 11.8137 2 8.5C2 5.18629 4.68629 2.5 8 2.5C11.3137 2.5 14 5.18629 14 8.5Z" stroke="white" stroke-width="1.3" stroke-linecap="round" stroke-linejoin="round"/>
</g>
</svg>
