<svg width="20" height="20" viewBox="0 0 20 20" fill="none" xmlns="http://www.w3.org/2000/svg">
<g id="Icon-left">
<path id="Vector" d="M17.8917 14.2145L17.8911 14.2132L15.2828 8.11322L15.2824 8.11236C14.8412 7.0752 14.2565 6.6517 13.7251 6.62431L13.7248 6.6243C13.2025 6.59709 12.5719 6.95849 12.0214 7.95084L12.021 7.95167L10.4379 10.7928L17.8917 14.2145ZM17.8917 14.2145C18.267 15.0855 18.1812 16.0797 17.6454 16.8692L17.6454 16.8692L17.642 16.8743C17.1181 17.6672 16.2334 18.1416 15.2842 18.1416H4.65085C3.66613 18.1416 2.76848 17.64 2.25106 16.8036C1.73528 15.9699 1.69101 14.9456 2.13165 14.0564C2.1318 14.0561 2.13196 14.0558 2.13211 14.0555L3.57217 11.1837C3.57229 11.1835 3.5724 11.1832 3.57252 11.183C3.94566 10.4444 4.46143 10.0756 4.99227 10.0225C5.53101 9.96862 6.11066 10.2157 6.62554 10.8604C6.62591 10.8609 6.62628 10.8613 6.62665 10.8618L6.80748 11.092M17.8917 14.2145L6.80748 11.092M6.80748 11.092C7.29932 11.7188 7.97382 12.1176 8.71965 12.0481M6.80748 11.092L8.71965 12.0481M8.71965 12.0481C9.45331 11.9874 10.0529 11.4856 10.4376 10.7933L8.71965 12.0481ZM8.12585 4.16664C8.12585 5.4461 7.08864 6.48331 5.80918 6.48331C4.52972 6.48331 3.49251 5.4461 3.49251 4.16664C3.49251 2.88718 4.52972 1.84998 5.80918 1.84998C7.08864 1.84998 8.12585 2.88718 8.12585 4.16664Z" fill="#292D32" stroke="#71717A"/>
</g>
</svg>
