<svg width="24" height="24" viewBox="0 0 24 24" fill="none" xmlns="http://www.w3.org/2000/svg">
<g id="eye">
<g id="Vector">
<path d="M15.5801 12C15.5801 13.98 13.9801 15.58 12.0001 15.58C10.0201 15.58 8.42009 13.98 8.42009 12C8.42009 10.02 10.0201 8.41997 12.0001 8.41997C13.9801 8.41997 15.5801 10.02 15.5801 12Z" stroke="#18181B" stroke-width="1.5" stroke-linecap="round" stroke-linejoin="round"/>
<path d="M12.0001 20.27C15.5301 20.27 18.8201 18.19 21.1101 14.59C22.0101 13.18 22.0101 10.81 21.1101 9.39997C18.8201 5.79997 15.5301 3.71997 12.0001 3.71997C8.47009 3.71997 5.18009 5.79997 2.89009 9.39997C1.99009 10.81 1.99009 13.18 2.89009 14.59C5.18009 18.19 8.47009 20.27 12.0001 20.27Z" stroke="#18181B" stroke-width="1.5" stroke-linecap="round" stroke-linejoin="round"/>
</g>
</g>
</svg>
