<svg width="20" height="21" viewBox="0 0 20 21" fill="none" xmlns="http://www.w3.org/2000/svg">
<g id="eye">
<g id="Vector">
<path d="M17.7077 8.125C15.7827 5.1 12.966 3.35834 9.99935 3.35834C8.51602 3.35834 7.07435 3.79167 5.75768 4.6C4.44102 5.41667 3.25768 6.60834 2.29102 8.125C1.45768 9.43334 1.45768 11.5583 2.29102 12.8667C4.21602 15.9 7.03268 17.6333 9.99935 17.6333C11.4827 17.6333 12.9243 17.2 14.241 16.3917C15.5577 15.575 16.741 14.3833 17.7077 12.8667C18.541 11.5667 18.541 9.43334 17.7077 8.125ZM9.99935 13.8667C8.13268 13.8667 6.63268 12.3583 6.63268 10.5C6.63268 8.64167 8.13268 7.13334 9.99935 7.13334C11.866 7.13334 13.366 8.64167 13.366 10.5C13.366 12.3583 11.866 13.8667 9.99935 13.8667Z" fill="#18181B"/>
<path d="M9.99935 8.11667C8.69102 8.11667 7.62435 9.18334 7.62435 10.5C7.62435 11.8083 8.69102 12.875 9.99935 12.875C11.3077 12.875 12.3827 11.8083 12.3827 10.5C12.3827 9.19167 11.3077 8.11667 9.99935 8.11667Z" fill="#18181B"/>
</g>
</g>
</svg>
