<svg width="21" height="20" viewBox="0 0 21 20" fill="none" xmlns="http://www.w3.org/2000/svg">
<g id="Social icon" clip-path="url(#clip0_212_14839)">
<path id="Vector" d="M20.5005 10C20.5005 4.47715 16.0233 0 10.5005 0C4.97764 0 0.500488 4.47715 0.500488 10C0.500488 14.9912 4.15732 19.1283 8.93799 19.8785V12.8906H6.39893V10H8.93799V7.79688C8.93799 5.29063 10.431 3.90625 12.7151 3.90625C13.8089 3.90625 14.9536 4.10156 14.9536 4.10156V6.5625H13.6927C12.4505 6.5625 12.063 7.3334 12.063 8.125V10H14.8364L14.3931 12.8906H12.063V19.8785C16.8437 19.1283 20.5005 14.9912 20.5005 10Z" fill="#1877F2"/>
<path id="Vector_2" d="M14.3931 12.8906L14.8364 10H12.063V8.125C12.063 7.33418 12.4505 6.5625 13.6927 6.5625H14.9536V4.10156C14.9536 4.10156 13.8093 3.90625 12.7151 3.90625C10.431 3.90625 8.93799 5.29063 8.93799 7.79688V10H6.39893V12.8906H8.93799V19.8785C9.97336 20.0405 11.0276 20.0405 12.063 19.8785V12.8906H14.3931Z" fill="white"/>
</g>
<defs>
<clipPath id="clip0_212_14839">
<rect width="20" height="20" fill="white" transform="translate(0.500488)"/>
</clipPath>
</defs>
</svg>
