<svg width="32" height="32" viewBox="0 0 32 32" fill="none" xmlns="http://www.w3.org/2000/svg">
<g id="facebook">
<path id="Vector" d="M29.3332 21.5868C29.3332 26.4401 26.4398 29.3334 21.5865 29.3334H19.9998C19.2665 29.3334 18.6665 28.7334 18.6665 28.0001V20.3068C18.6665 19.9468 18.9598 19.6401 19.3198 19.6401L21.6665 19.6001C21.8532 19.5868 22.0132 19.4534 22.0532 19.2668L22.5199 16.7201C22.5599 16.4801 22.3732 16.2534 22.1198 16.2534L19.2798 16.2934C18.9065 16.2934 18.6132 16.0001 18.5999 15.6401L18.5465 12.3734C18.5465 12.1601 18.7198 11.9734 18.9465 11.9734L22.1465 11.9201C22.3732 11.9201 22.5465 11.7468 22.5465 11.5201L22.4932 8.32007C22.4932 8.0934 22.3198 7.92008 22.0932 7.92008L18.4932 7.97343C16.2798 8.01343 14.5199 9.82675 14.5599 12.0401L14.6265 15.7067C14.6398 16.0801 14.3465 16.3734 13.9732 16.3868L12.3732 16.4134C12.1465 16.4134 11.9732 16.5867 11.9732 16.8134L12.0132 19.3468C12.0132 19.5734 12.1865 19.7467 12.4132 19.7467L14.0132 19.7201C14.3865 19.7201 14.6798 20.0134 14.6932 20.3734L14.8132 27.9734C14.8265 28.7201 14.2265 29.3334 13.4798 29.3334H10.4132C5.55983 29.3334 2.6665 26.4401 2.6665 21.5734V10.4134C2.6665 5.56008 5.55983 2.66675 10.4132 2.66675H21.5865C26.4398 2.66675 29.3332 5.56008 29.3332 10.4134V21.5868Z" fill="#2563EB"/>
</g>
</svg>
