<svg width="37" height="36" viewBox="0 0 37 36" fill="none" xmlns="http://www.w3.org/2000/svg">
<g id="fi:upload-cloud" clip-path="url(#clip0_756_5838)">
<path id="Vector" d="M24.5 24L18.5 18L12.5 24" stroke="#0D3B3F" stroke-width="2" stroke-linecap="round" stroke-linejoin="round"/>
<path id="Vector_2" d="M18.5 18V31.5" stroke="#0D3B3F" stroke-width="2" stroke-linecap="round" stroke-linejoin="round"/>
<path id="Vector_3" d="M31.0852 27.585C32.5482 26.7874 33.7039 25.5253 34.37 23.9979C35.0361 22.4705 35.1745 20.7648 34.7635 19.15C34.3525 17.5352 33.4154 16.1032 32.1002 15.0801C30.785 14.057 29.1665 13.5011 27.5002 13.5H25.6102C25.1562 11.7438 24.3099 10.1135 23.1351 8.73147C21.9603 7.34945 20.4875 6.25175 18.8273 5.52089C17.1672 4.79002 15.363 4.44501 13.5504 4.5118C11.7377 4.57858 9.96379 5.05543 8.36195 5.90647C6.76011 6.75752 5.37205 7.96063 4.30212 9.42535C3.23218 10.8901 2.50822 12.5783 2.18465 14.3631C1.86109 16.1479 1.94634 17.9828 2.434 19.7299C2.92167 21.477 3.79905 23.0908 5.00019 24.45" stroke="#0D3B3F" stroke-width="2" stroke-linecap="round" stroke-linejoin="round"/>
<path id="Vector_4" d="M24.5 24L18.5 18L12.5 24" stroke="#0D3B3F" stroke-width="2" stroke-linecap="round" stroke-linejoin="round"/>
</g>
<defs>
<clipPath id="clip0_756_5838">
<rect width="36" height="36" fill="white" transform="translate(0.5)"/>
</clipPath>
</defs>
</svg>
