<svg width="21" height="20" viewBox="0 0 21 20" fill="none" xmlns="http://www.w3.org/2000/svg">
<g id="Social icon" clip-path="url(#clip0_212_14832)">
<path id="Vector" d="M20.1387 10.2305C20.1387 9.55068 20.0836 8.86724 19.966 8.19849H10.5337V12.0493H15.9351C15.711 13.2913 14.9908 14.3899 13.9362 15.0881V17.5867H17.1587C19.0511 15.845 20.1387 13.2729 20.1387 10.2305Z" fill="#3479E9"/>
<path id="Vector_2" d="M10.5334 20.0008C13.2305 20.0008 15.5049 19.1152 17.1621 17.5867L13.9396 15.088C13.0431 15.698 11.8856 16.0434 10.5371 16.0434C7.92824 16.0434 5.71622 14.2833 4.92254 11.917H1.59717V14.4928C3.29476 17.8696 6.75241 20.0008 10.5334 20.0008Z" fill="#34A853"/>
<path id="Vector_3" d="M4.91914 11.917C4.50025 10.675 4.50025 9.3302 4.91914 8.08824V5.51245H1.59744C0.179108 8.3381 0.179108 11.6671 1.59744 14.4928L4.91914 11.917Z" fill="#FBBC04"/>
<path id="Vector_4" d="M10.5334 3.95805C11.9591 3.936 13.337 4.47247 14.3695 5.45722L17.2246 2.60218C15.4168 0.904587 13.0173 -0.0287217 10.5334 0.000673888C6.75241 0.000673888 3.29476 2.13185 1.59717 5.51234L4.91887 8.08813C5.70887 5.71811 7.92456 3.95805 10.5334 3.95805Z" fill="#EA4335"/>
</g>
<defs>
<clipPath id="clip0_212_14832">
<rect width="20" height="20" fill="white" transform="translate(0.333496)"/>
</clipPath>
</defs>
</svg>
