<svg width="111" height="15" viewBox="0 0 111 15" fill="none" xmlns="http://www.w3.org/2000/svg">
<path d="M2.41818 12.7893C6.78116 11.5433 12.4871 10.1246 19.116 8.74305C27.9512 6.9017 38.4257 5.12645 49.5449 3.91439C55.8058 3.23192 62.2711 2.728 68.7631 2.49139C74.2516 2.29136 79.7593 2.28238 85.1787 2.51807C87.8741 2.6353 90.5477 2.81305 93.1863 3.05792C94.5306 3.18267 95.8658 3.32484 97.1901 3.48531C97.995 3.58284 98.7959 3.68712 99.5924 3.79836C100.263 3.892 100.93 3.99057 101.594 4.09418C102.4 4.21992 103.201 4.35308 103.997 4.49388C104.398 4.56499 104.799 4.63804 105.198 4.71307C106.48 4.95424 107.748 5.21581 108.999 5.49868" stroke="#BCF26E" stroke-width="4" stroke-linecap="round" stroke-linejoin="round"/>
</svg>
