<svg width="33" height="32" viewBox="0 0 33 32" fill="none" xmlns="http://www.w3.org/2000/svg">
<g id="u:user">
<path id="Vector" d="M20.9623 16.9466C22.2695 15.9182 23.2236 14.5079 23.6919 12.9119C24.1603 11.3159 24.1195 9.61365 23.5753 8.04192C23.0312 6.47019 22.0106 5.10715 20.6557 4.14244C19.3008 3.17772 17.6789 2.6593 16.0156 2.6593C14.3524 2.6593 12.7304 3.17772 11.3755 4.14244C10.0206 5.10715 9.00008 6.47019 8.4559 8.04192C7.91173 9.61365 7.87097 11.3159 8.3393 12.9119C8.80763 14.5079 9.76176 15.9182 11.069 16.9466C8.82906 17.844 6.87467 19.3324 5.41414 21.2532C3.95362 23.1739 3.0417 25.455 2.77562 27.8533C2.75636 28.0284 2.77178 28.2056 2.82099 28.3747C2.8702 28.5438 2.95224 28.7016 3.06244 28.8391C3.28498 29.1166 3.60867 29.2944 3.96229 29.3333C4.31591 29.3722 4.6705 29.269 4.94805 29.0465C5.22561 28.8239 5.40339 28.5002 5.44229 28.1466C5.73507 25.5402 6.97787 23.133 8.93325 21.385C10.8886 19.637 13.4195 18.6707 16.0423 18.6707C18.6651 18.6707 21.196 19.637 23.1513 21.385C25.1067 23.133 26.3495 25.5402 26.6423 28.1466C26.6785 28.4743 26.8349 28.7768 27.0811 28.996C27.3273 29.2151 27.646 29.3353 27.9756 29.3333H28.1223C28.4718 29.2931 28.7913 29.1164 29.011 28.8416C29.2308 28.5669 29.3331 28.2164 29.2956 27.8666C29.0283 25.4616 28.1115 23.1746 26.6434 21.2509C25.1754 19.3272 23.2115 17.8393 20.9623 16.9466ZM16.0156 16C14.9608 16 13.9296 15.6872 13.0526 15.1011C12.1755 14.5151 11.4919 13.6821 11.0883 12.7076C10.6846 11.7331 10.579 10.6607 10.7848 9.62615C10.9906 8.59158 11.4985 7.64127 12.2444 6.89539C12.9903 6.14951 13.9406 5.64156 14.9751 5.43577C16.0097 5.22999 17.0821 5.3356 18.0566 5.73927C19.0311 6.14294 19.8641 6.82653 20.4501 7.70359C21.0362 8.58065 21.349 9.6118 21.349 10.6666C21.349 12.0811 20.7871 13.4377 19.7869 14.4379C18.7867 15.4381 17.4301 16 16.0156 16Z" fill="#37A67E"/>
</g>
</svg>
