<svg width="39" height="38" viewBox="0 0 39 38" fill="none" xmlns="http://www.w3.org/2000/svg">
<g id="u:bag-alt">
<path id="Vector" d="M30.099 10.2917H25.349V8.70837C25.349 7.4486 24.8485 6.24041 23.9577 5.34962C23.0669 4.45882 21.8587 3.95837 20.599 3.95837H17.4323C16.1725 3.95837 14.9643 4.45882 14.0735 5.34962C13.1827 6.24041 12.6823 7.4486 12.6823 8.70837V10.2917H7.9323C6.67252 10.2917 5.46434 10.7922 4.57354 11.683C3.68274 12.5737 3.1823 13.7819 3.1823 15.0417V29.2917C3.1823 30.5515 3.68274 31.7597 4.57354 32.6505C5.46434 33.5413 6.67252 34.0417 7.9323 34.0417H30.099C31.3587 34.0417 32.5669 33.5413 33.4577 32.6505C34.3485 31.7597 34.849 30.5515 34.849 29.2917V15.0417C34.849 13.7819 34.3485 12.5737 33.4577 11.683C32.5669 10.7922 31.3587 10.2917 30.099 10.2917ZM15.849 8.70837C15.849 8.28845 16.0158 7.88572 16.3127 7.58879C16.6096 7.29186 17.0124 7.12504 17.4323 7.12504H20.599C21.0189 7.12504 21.4216 7.29186 21.7185 7.58879C22.0155 7.88572 22.1823 8.28845 22.1823 8.70837V10.2917H15.849V8.70837ZM31.6823 29.2917C31.6823 29.7116 31.5155 30.1144 31.2185 30.4113C30.9216 30.7082 30.5189 30.875 30.099 30.875H7.9323C7.51237 30.875 7.10964 30.7082 6.81271 30.4113C6.51578 30.1144 6.34896 29.7116 6.34896 29.2917V20.5834C10.3805 22.1828 14.6784 23.0047 19.0156 23.0059C23.3527 23.0032 27.6503 22.1813 31.6823 20.5834V29.2917ZM31.6823 17.1159C27.6898 18.8699 23.3765 19.7755 19.0156 19.7755C14.6548 19.7755 10.3415 18.8699 6.34896 17.1159V15.0417C6.34896 14.6218 6.51578 14.2191 6.81271 13.9221C7.10964 13.6252 7.51237 13.4584 7.9323 13.4584H30.099C30.5189 13.4584 30.9216 13.6252 31.2185 13.9221C31.5155 14.2191 31.6823 14.6218 31.6823 15.0417V17.1159Z" fill="#37A67E"/>
</g>
</svg>
