<svg width="121" height="205" viewBox="0 0 121 205" fill="none" xmlns="http://www.w3.org/2000/svg">
<g id="Group 96" opacity="0.5">
<path id="Rectangle 105" d="M25.4654 192.729H29.4533V197.27C29.4522 199.073 28.8223 200.802 27.702 202.077C26.5817 203.351 25.0627 204.067 23.479 204.067H19.491V199.527C19.4922 197.724 20.1221 195.995 21.2424 194.72C22.3627 193.445 23.8816 192.729 25.4654 192.729Z" fill="#662D91"/>
<path id="Rectangle 106" d="M71.2114 192.729H75.1994V197.27C75.1982 199.073 74.5683 200.802 73.448 202.077C72.3277 203.351 70.8088 204.067 69.225 204.067H65.2371V199.527C65.2382 197.724 65.8681 195.995 66.9884 194.72C68.1087 193.445 69.6277 192.729 71.2114 192.729Z" fill="#662D91"/>
<path id="Rectangle 107" d="M116.957 192.729H120.945V197.27C120.944 199.073 120.314 200.802 119.194 202.077C118.074 203.351 116.555 204.067 114.971 204.067H110.983V199.527C110.984 197.724 111.614 195.995 112.734 194.72C113.855 193.445 115.374 192.729 116.957 192.729Z" fill="#662D91"/>
<path id="Rectangle 80" d="M25.4654 0.611816H29.4533V5.15233C29.4522 6.95553 28.8223 8.68443 27.702 9.95902C26.5817 11.2336 25.0627 11.9496 23.479 11.9496H19.491V7.40908C19.4922 5.60589 20.1221 3.87699 21.2424 2.60239C22.3627 1.3278 23.8816 0.611816 25.4654 0.611816Z" fill="#662D91"/>
<path id="Rectangle 91" d="M25.4654 39.0356H29.4533V43.5762C29.4522 45.3794 28.8223 47.1083 27.702 48.3828C26.5817 49.6574 25.0627 50.3734 23.479 50.3734H19.491V45.8329C19.4922 44.0297 20.1221 42.3008 21.2424 41.0262C22.3627 39.7516 23.8816 39.0356 25.4654 39.0356Z" fill="#662D91"/>
<path id="Rectangle 92" d="M25.4654 77.4592H29.4533V81.9997C29.4522 83.8029 28.8223 85.5318 27.702 86.8064C26.5817 88.081 25.0627 88.797 23.479 88.797H19.491V84.2565C19.4922 82.4533 20.1221 80.7244 21.2424 79.4498C22.3627 78.1752 23.8816 77.4592 25.4654 77.4592Z" fill="#662D91"/>
<path id="Rectangle 93" d="M25.4654 115.883H29.4533V120.424C29.4522 122.227 28.8223 123.956 27.702 125.231C26.5817 126.505 25.0627 127.221 23.479 127.221H19.491V122.681C19.4922 120.877 20.1221 119.148 21.2424 117.874C22.3627 116.599 23.8816 115.883 25.4654 115.883Z" fill="#662D91"/>
<path id="Rectangle 94" d="M25.4654 154.307H29.4533V158.848C29.4522 160.651 28.8223 162.38 27.702 163.654C26.5817 164.929 25.0627 165.645 23.479 165.645H19.491V161.104C19.4922 159.301 20.1221 157.572 21.2424 156.298C22.3627 155.023 23.8816 154.307 25.4654 154.307Z" fill="#662D91"/>
<path id="Rectangle 81" d="M71.2114 0.611816H75.1994V5.15233C75.1982 6.95553 74.5683 8.68443 73.448 9.95902C72.3277 11.2336 70.8088 11.9496 69.225 11.9496H65.2371V7.40908C65.2382 5.60589 65.8681 3.87699 66.9884 2.60239C68.1087 1.3278 69.6277 0.611816 71.2114 0.611816Z" fill="#662D91"/>
<path id="Rectangle 95" d="M71.2114 39.0356H75.1994V43.5762C75.1982 45.3794 74.5683 47.1083 73.448 48.3828C72.3277 49.6574 70.8088 50.3734 69.225 50.3734H65.2371V45.8329C65.2382 44.0297 65.8681 42.3008 66.9884 41.0262C68.1087 39.7516 69.6277 39.0356 71.2114 39.0356Z" fill="#662D91"/>
<path id="Rectangle 96" d="M71.2114 77.4592H75.1994V81.9997C75.1982 83.8029 74.5683 85.5318 73.448 86.8064C72.3277 88.081 70.8088 88.797 69.225 88.797H65.2371V84.2565C65.2382 82.4533 65.8681 80.7244 66.9884 79.4498C68.1087 78.1752 69.6277 77.4592 71.2114 77.4592Z" fill="#662D91"/>
<path id="Rectangle 97" d="M71.2114 115.883H75.1994V120.424C75.1982 122.227 74.5683 123.956 73.448 125.231C72.3277 126.505 70.8088 127.221 69.225 127.221H65.2371V122.681C65.2382 120.877 65.8681 119.148 66.9884 117.874C68.1087 116.599 69.6277 115.883 71.2114 115.883Z" fill="#662D91"/>
<path id="Rectangle 98" d="M71.2114 154.307H75.1994V158.848C75.1982 160.651 74.5683 162.38 73.448 163.654C72.3277 164.929 70.8088 165.645 69.225 165.645H65.2371V161.104C65.2382 159.301 65.8681 157.572 66.9884 156.298C68.1087 155.023 69.6277 154.307 71.2114 154.307Z" fill="#662D91"/>
<path id="Rectangle 82" d="M116.959 0.611816H120.947V5.15233C120.945 6.95553 120.315 8.68443 119.195 9.95902C118.075 11.2336 116.556 11.9496 114.972 11.9496H110.984V7.40908C110.985 5.60589 111.615 3.87699 112.736 2.60239C113.856 1.3278 115.375 0.611816 116.959 0.611816Z" fill="#662D91"/>
<path id="Rectangle 99" d="M116.959 39.0356H120.947V43.5762C120.945 45.3794 120.315 47.1083 119.195 48.3828C118.075 49.6574 116.556 50.3734 114.972 50.3734H110.984V45.8329C110.985 44.0297 111.615 42.3008 112.736 41.0262C113.856 39.7516 115.375 39.0356 116.959 39.0356Z" fill="#662D91"/>
<path id="Rectangle 100" d="M116.959 77.4592H120.947V81.9997C120.945 83.8029 120.315 85.5318 119.195 86.8064C118.075 88.081 116.556 88.797 114.972 88.797H110.984V84.2565C110.985 82.4533 111.615 80.7244 112.736 79.4498C113.856 78.1752 115.375 77.4592 116.959 77.4592Z" fill="#662D91"/>
<path id="Rectangle 101" d="M116.959 115.883H120.947V120.424C120.945 122.227 120.315 123.956 119.195 125.231C118.075 126.505 116.556 127.221 114.972 127.221H110.984V122.681C110.985 120.877 111.615 119.148 112.736 117.874C113.856 116.599 115.375 115.883 116.959 115.883Z" fill="#662D91"/>
<path id="Rectangle 102" d="M116.959 154.307H120.947V158.848C120.945 160.651 120.315 162.38 119.195 163.654C118.075 164.929 116.556 165.645 114.972 165.645H110.984V161.104C110.985 159.301 111.615 157.572 112.736 156.298C113.856 155.023 115.375 154.307 116.959 154.307Z" fill="#662D91"/>
</g>
</svg>
