<svg width="20" height="20" viewBox="0 0 20 20" fill="none" xmlns="http://www.w3.org/2000/svg">
<path d="M9.99922 4.86249L9.80359 4.92186L1.99109 7.53936L0.214844 8.12499L1.24922 8.45624V13.925C0.876094 14.1419 0.624219 14.5375 0.624219 15C0.624219 15.3315 0.755915 15.6495 0.990335 15.8839C1.22476 16.1183 1.5427 16.25 1.87422 16.25C2.20574 16.25 2.52368 16.1183 2.7581 15.8839C2.99252 15.6495 3.12422 15.3315 3.12422 15C3.12422 14.5375 2.87234 14.1419 2.49922 13.925V8.88749L3.74922 9.29686V12.5C3.74922 13.0125 4.06172 13.4375 4.43297 13.7312C4.80422 14.0231 5.26547 14.2294 5.81922 14.4144C6.92797 14.7831 8.38922 15 9.99922 15C11.6092 15 13.0705 14.7837 14.1792 14.4137C14.733 14.2294 15.1942 14.0231 15.5655 13.7306C15.9367 13.4375 16.2492 13.0125 16.2492 12.5V9.29686L18.0073 8.71061L19.7836 8.12499L18.0067 7.53874L10.1942 4.92186L9.99922 4.86249ZM9.99922 6.17186L15.8586 8.12499L9.99922 10.0781L4.13984 8.12499L9.99922 6.17186ZM4.99922 9.72686L9.80422 11.3281L9.99922 11.3869L10.1948 11.3275L14.9992 9.72624V12.5C14.9992 12.5062 15.0017 12.5787 14.8036 12.7344C14.6061 12.8906 14.2517 13.0875 13.788 13.2425C12.8617 13.5506 11.4961 13.75 9.99922 13.75C8.50234 13.75 7.13672 13.5512 6.20984 13.2419C5.74734 13.0875 5.39234 12.89 5.19484 12.7344C4.99609 12.5781 4.99922 12.5062 4.99922 12.5V9.72686Z" fill="black"/>
</svg>
