<svg width="21" height="20" viewBox="0 0 21 20" fill="none" xmlns="http://www.w3.org/2000/svg">
<g id="Icon">
<path id="Vector" d="M7.88546 15.2075C7.96244 15.2791 8.07075 15.3603 8.20165 15.4123C8.33449 15.4695 8.47449 15.5 8.62565 15.5C8.77362 15.5 8.91089 15.4708 9.04122 15.4159C9.19251 15.3607 9.32328 15.2678 9.42087 15.1702L9.06732 14.8167L9.42087 15.1702L11.0875 13.5035C11.5245 13.0666 11.5245 12.35 11.0875 11.9131C10.7275 11.5531 10.1775 11.4897 9.75065 11.7231V9.37499C9.75065 8.75718 9.24346 8.24999 8.62565 8.24999C8.00784 8.24999 7.50065 8.75718 7.50065 9.37499V11.7102C7.07497 11.4822 6.52981 11.5471 6.1721 11.9048C5.73517 12.3417 5.73517 13.0583 6.1721 13.4952L7.80674 15.1299C7.83499 15.1644 7.86358 15.1901 7.88546 15.2075ZM15.0309 6.84168V6.84166H15.0257C14.0302 6.84166 13.234 6.0441 13.234 5.11666V2.20832C13.234 2.20156 13.2349 2.19874 13.235 2.19853L13.235 2.19852L13.235 2.1985C13.2351 2.19826 13.2352 2.19801 13.2357 2.19732C13.2371 2.19539 13.243 2.18899 13.2556 2.18402C13.2682 2.17907 13.28 2.17852 13.2882 2.18C13.2938 2.18101 13.3019 2.18335 13.3138 2.19521C14.1457 3.0271 15.3944 4.28721 16.4878 5.3906C17.0145 5.92211 17.5052 6.41726 17.8959 6.81065L17.8971 6.81188C17.8986 6.81339 17.8998 6.81469 17.9007 6.81577C17.9016 6.81679 17.9022 6.81761 17.9027 6.81821L17.9031 6.81889C17.9029 6.82041 17.9024 6.8231 17.9007 6.82682C17.8975 6.83419 17.8923 6.84003 17.8872 6.84348C17.8849 6.84505 17.8821 6.84644 17.8786 6.84753C17.8752 6.84858 17.869 6.84999 17.859 6.84999C16.9163 6.84999 15.8194 6.84998 15.0309 6.84168ZM15.1757 8.99166H17.584C17.7662 8.99166 17.9173 9.1428 17.9173 9.32499V13.6917C17.9173 15.0565 17.4449 16.0797 16.7167 16.7637C15.9835 17.4523 14.9519 17.8333 13.7757 17.8333H7.22565C6.04943 17.8333 5.01783 17.4523 4.28462 16.7637C3.55635 16.0797 3.08398 15.0565 3.08398 13.6917V6.30832C3.08398 4.94348 3.55635 3.92031 4.28462 3.23632C5.01783 2.54769 6.04943 2.16666 7.22565 2.16666H10.759C10.9412 2.16666 11.0923 2.3178 11.0923 2.49999V4.90832C11.0923 7.15947 12.9245 8.99166 15.1757 8.99166Z" fill="#292D32" stroke="#17171B"/>
</g>
</svg>
