<svg width="20" height="20" viewBox="0 0 20 20" fill="none" xmlns="http://www.w3.org/2000/svg">
<path d="M14.4513 4.55008C14.2535 4.55008 14.0602 4.60873 13.8957 4.71861C13.7313 4.82849 13.6031 4.98467 13.5274 5.1674C13.4517 5.35012 13.4319 5.55119 13.4705 5.74517C13.5091 5.93915 13.6043 6.11734 13.7442 6.25719C13.884 6.39704 14.0622 6.49228 14.2562 6.53087C14.4502 6.56945 14.6513 6.54965 14.834 6.47396C15.0167 6.39827 15.1729 6.2701 15.2828 6.10565C15.3927 5.9412 15.4513 5.74786 15.4513 5.55008C15.4513 5.28486 15.3459 5.03051 15.1584 4.84297C14.9709 4.65544 14.7165 4.55008 14.4513 4.55008V4.55008ZM18.2846 6.56675C18.2684 5.87533 18.1389 5.19125 17.9013 4.54175C17.6894 3.98603 17.3596 3.48281 16.9346 3.06675C16.522 2.6396 16.0176 2.3119 15.4596 2.10841C14.8118 1.86355 14.127 1.73109 13.4346 1.71675C12.5513 1.66675 12.268 1.66675 10.0013 1.66675C7.73464 1.66675 7.4513 1.66675 6.56797 1.71675C5.8756 1.73109 5.19075 1.86355 4.54297 2.10841C3.98603 2.31396 3.48208 2.64138 3.06797 3.06675C2.64082 3.4794 2.31312 3.98378 2.10964 4.54175C1.86477 5.18953 1.73231 5.87438 1.71797 6.56675C1.66797 7.45008 1.66797 7.73341 1.66797 10.0001C1.66797 12.2667 1.66797 12.5501 1.71797 13.4334C1.73231 14.1258 1.86477 14.8106 2.10964 15.4584C2.31312 16.0164 2.64082 16.5208 3.06797 16.9334C3.48208 17.3588 3.98603 17.6862 4.54297 17.8917C5.19075 18.1366 5.8756 18.2691 6.56797 18.2834C7.4513 18.3334 7.73464 18.3334 10.0013 18.3334C12.268 18.3334 12.5513 18.3334 13.4346 18.2834C14.127 18.2691 14.8118 18.1366 15.4596 17.8917C16.0176 17.6883 16.522 17.3606 16.9346 16.9334C17.3615 16.5189 17.6916 16.0152 17.9013 15.4584C18.1389 14.8089 18.2684 14.1248 18.2846 13.4334C18.2846 12.5501 18.3346 12.2667 18.3346 10.0001C18.3346 7.73341 18.3346 7.45008 18.2846 6.56675V6.56675ZM16.7846 13.3334C16.7786 13.8624 16.6828 14.3865 16.5013 14.8834C16.3682 15.2461 16.1545 15.5738 15.8763 15.8417C15.606 16.1172 15.279 16.3304 14.918 16.4667C14.4211 16.6482 13.8969 16.744 13.368 16.7501C12.5346 16.7917 12.2263 16.8001 10.0346 16.8001C7.84297 16.8001 7.53464 16.8001 6.7013 16.7501C6.15204 16.7604 5.60513 16.6758 5.08464 16.5001C4.73945 16.3568 4.42743 16.1441 4.16797 15.8751C3.89138 15.6074 3.68034 15.2794 3.5513 14.9167C3.34785 14.4127 3.23501 13.8767 3.21797 13.3334C3.21797 12.5001 3.16797 12.1917 3.16797 10.0001C3.16797 7.80841 3.16797 7.50008 3.21797 6.66675C3.2217 6.12596 3.32043 5.59004 3.50964 5.08341C3.65634 4.73167 3.88152 4.41813 4.16797 4.16675C4.42115 3.88022 4.73404 3.65266 5.08464 3.50008C5.59259 3.31678 6.12797 3.22098 6.66797 3.21675C7.5013 3.21675 7.80964 3.16675 10.0013 3.16675C12.193 3.16675 12.5013 3.16675 13.3346 3.21675C13.8636 3.22282 14.3877 3.31862 14.8846 3.50008C15.2633 3.64063 15.6032 3.86912 15.8763 4.16675C16.1494 4.42273 16.3628 4.73569 16.5013 5.08341C16.6865 5.59086 16.7824 6.12656 16.7846 6.66675C16.8263 7.50008 16.8346 7.80841 16.8346 10.0001C16.8346 12.1917 16.8263 12.5001 16.7846 13.3334ZM10.0013 5.72508C9.15614 5.72673 8.33044 5.97885 7.62851 6.4496C6.92659 6.92034 6.37995 7.58858 6.05766 8.36988C5.73538 9.15117 5.65191 10.0105 5.8178 10.8392C5.98369 11.6679 6.3915 12.4289 6.9897 13.0259C7.5879 13.6229 8.34964 14.0293 9.17869 14.1935C10.0077 14.3578 10.8669 14.2727 11.6475 13.9489C12.4282 13.6251 13.0954 13.0771 13.5647 12.3743C14.0341 11.6714 14.2846 10.8452 14.2846 10.0001C14.2857 9.43767 14.1756 8.88059 13.9607 8.36088C13.7457 7.84117 13.4301 7.36909 13.032 6.97179C12.634 6.57449 12.1613 6.25981 11.6411 6.04586C11.121 5.8319 10.5637 5.72288 10.0013 5.72508V5.72508ZM10.0013 12.7751C9.45246 12.7751 8.91594 12.6123 8.45959 12.3074C8.00325 12.0025 7.64757 11.5691 7.43754 11.062C7.2275 10.555 7.17255 9.997 7.27962 9.45871C7.3867 8.92041 7.65099 8.42595 8.03908 8.03786C8.42717 7.64977 8.92163 7.38548 9.45993 7.2784C9.99822 7.17133 10.5562 7.22628 11.0632 7.43632C11.5703 7.64635 12.0037 8.00203 12.3086 8.45837C12.6136 8.91472 12.7763 9.45124 12.7763 10.0001C12.7763 10.3645 12.7045 10.7253 12.5651 11.062C12.4256 11.3987 12.2212 11.7046 11.9635 11.9623C11.7058 12.22 11.3999 12.4244 11.0632 12.5638C10.7266 12.7033 10.3657 12.7751 10.0013 12.7751V12.7751Z" fill="black"/>
</svg>
