<svg width="32" height="32" viewBox="0 0 32 32" fill="none" xmlns="http://www.w3.org/2000/svg">
<g id="instagram">
<path id="Vector" d="M21.5865 2.66675H10.4132C5.55984 2.66675 2.6665 5.56008 2.6665 10.4134V21.5734C2.6665 26.4401 5.55984 29.3334 10.4132 29.3334H21.5732C26.4265 29.3334 29.3198 26.4401 29.3198 21.5868V10.4134C29.3332 5.56008 26.4398 2.66675 21.5865 2.66675ZM15.9998 21.1734C13.1465 21.1734 10.8265 18.8534 10.8265 16.0001C10.8265 13.1467 13.1465 10.8267 15.9998 10.8267C18.8532 10.8267 21.1732 13.1467 21.1732 16.0001C21.1732 18.8534 18.8532 21.1734 15.9998 21.1734ZM23.8932 9.17342C23.8265 9.33342 23.7332 9.48008 23.6132 9.61341C23.4798 9.73342 23.3332 9.82675 23.1732 9.89341C23.0132 9.96008 22.8398 10.0001 22.6665 10.0001C22.3065 10.0001 21.9732 9.86675 21.7198 9.61341C21.5998 9.48008 21.5065 9.33342 21.4398 9.17342C21.3732 9.01341 21.3332 8.84008 21.3332 8.66675C21.3332 8.49341 21.3732 8.32008 21.4398 8.16008C21.5065 7.98675 21.5998 7.85342 21.7198 7.72008C22.0265 7.41341 22.4932 7.26675 22.9198 7.36008C23.0132 7.37341 23.0932 7.40008 23.1732 7.44008C23.2532 7.46675 23.3332 7.50675 23.4132 7.56008C23.4798 7.60008 23.5465 7.66675 23.6132 7.72008C23.7332 7.85342 23.8265 7.98675 23.8932 8.16008C23.9598 8.32008 23.9998 8.49341 23.9998 8.66675C23.9998 8.84008 23.9598 9.01341 23.8932 9.17342Z" fill="#2563EB"/>
</g>
</svg>
