<svg width="16" height="16" viewBox="0 0 16 16" fill="none" xmlns="http://www.w3.org/2000/svg">
<g id="ri:instagram-fill">
<path id="Vector" d="M8.68442 1.33383C9.17091 1.33196 9.6574 1.33685 10.1437 1.34849L10.2731 1.35316C10.4224 1.35849 10.5697 1.36516 10.7477 1.37316C11.4571 1.40649 11.9411 1.51849 12.3657 1.68316C12.8057 1.85249 13.1764 2.08183 13.5471 2.45249C13.886 2.78557 14.1483 3.18846 14.3158 3.63316C14.4804 4.05783 14.5924 4.54249 14.6258 5.25183C14.6338 5.42916 14.6404 5.57716 14.6458 5.72649L14.6497 5.85583C14.6616 6.34196 14.6667 6.82823 14.6651 7.3145L14.6658 7.81183V8.68516C14.6674 9.17165 14.6623 9.65814 14.6504 10.1445L14.6464 10.2738C14.6411 10.4232 14.6344 10.5705 14.6264 10.7485C14.5931 11.4578 14.4798 11.9418 14.3158 12.3665C14.1488 12.8117 13.8865 13.2149 13.5471 13.5478C13.2137 13.8867 12.8106 14.149 12.3657 14.3165C11.9411 14.4812 11.4571 14.5932 10.7477 14.6265C10.5697 14.6345 10.4224 14.6412 10.2731 14.6465L10.1437 14.6505C9.6574 14.6623 9.17091 14.6675 8.68442 14.6658L8.18708 14.6665H7.31442C6.82792 14.6681 6.34143 14.663 5.85508 14.6512L5.72575 14.6472C5.56749 14.6414 5.40926 14.6348 5.25108 14.6272C4.54175 14.5938 4.05775 14.4805 3.63242 14.3165C3.18754 14.1494 2.78457 13.887 2.45175 13.5478C2.11245 13.2147 1.8499 12.8115 1.68242 12.3665C1.51775 11.9418 1.40575 11.4578 1.37242 10.7485C1.36499 10.5903 1.35832 10.4321 1.35242 10.2738L1.34908 10.1445C1.33679 9.65815 1.33124 9.17166 1.33242 8.68516V7.3145C1.33056 6.82823 1.33544 6.34196 1.34708 5.85583L1.35175 5.72649C1.35708 5.57716 1.36375 5.42916 1.37175 5.25183C1.40508 4.54183 1.51708 4.05849 1.68175 3.63316C1.84933 3.18824 2.11239 2.78546 2.45242 2.45316C2.78501 2.11366 3.18772 1.85088 3.63242 1.68316C4.05775 1.51849 4.54108 1.40649 5.25108 1.37316L5.72575 1.35316L5.85508 1.34983C6.34121 1.33754 6.82747 1.33199 7.31375 1.33316L8.68442 1.33383ZM7.99908 4.66716C7.55742 4.66091 7.11892 4.74251 6.70907 4.90721C6.29921 5.0719 5.92618 5.31641 5.61165 5.62653C5.29711 5.93665 5.04735 6.30619 4.87687 6.71367C4.7064 7.12115 4.61861 7.55846 4.61861 8.00016C4.61861 8.44187 4.7064 8.87917 4.87687 9.28665C5.04735 9.69414 5.29711 10.0637 5.61165 10.3738C5.92618 10.6839 6.29921 10.9284 6.70907 11.0931C7.11892 11.2578 7.55742 11.3394 7.99908 11.3332C8.88314 11.3332 9.73098 10.982 10.3561 10.3569C10.9812 9.73173 11.3324 8.88388 11.3324 7.99983C11.3324 7.11577 10.9812 6.26793 10.3561 5.64281C9.73098 5.01768 8.88314 4.66716 7.99908 4.66716ZM7.99908 6.00049C8.26475 5.9956 8.52874 6.04369 8.77561 6.14197C9.02249 6.24024 9.24731 6.38672 9.43694 6.57286C9.62656 6.75899 9.7772 6.98105 9.88004 7.22606C9.98289 7.47106 10.0359 7.73411 10.0359 7.99982C10.036 8.26554 9.98307 8.5286 9.8803 8.77364C9.77754 9.01868 9.62698 9.24079 9.43741 9.42699C9.24785 9.61318 9.02308 9.75974 8.77623 9.8581C8.52939 9.95645 8.26542 10.0046 7.99975 9.99983C7.46932 9.99983 6.96061 9.78911 6.58554 9.41404C6.21046 9.03897 5.99975 8.53026 5.99975 7.99983C5.99975 7.4694 6.21046 6.96069 6.58554 6.58561C6.96061 6.21054 7.46932 5.99983 7.99975 5.99983L7.99908 6.00049ZM11.4991 3.66716C11.284 3.67577 11.0806 3.76726 10.9315 3.92248C10.7824 4.07769 10.6991 4.28458 10.6991 4.49983C10.6991 4.71507 10.7824 4.92197 10.9315 5.07718C11.0806 5.23239 11.284 5.32389 11.4991 5.33249C11.7201 5.33249 11.9321 5.2447 12.0883 5.08842C12.2446 4.93214 12.3324 4.72018 12.3324 4.49916C12.3324 4.27815 12.2446 4.06619 12.0883 3.90991C11.9321 3.75363 11.7201 3.66583 11.4991 3.66583V3.66716Z" fill="white"/>
</g>
</svg>
