<svg width="20" height="20" viewBox="0 0 20 20" fill="none" xmlns="http://www.w3.org/2000/svg">
<g id="key">
<path id="key_2" fill-rule="evenodd" clip-rule="evenodd" d="M5 6.66667C3.61929 6.66667 2.5 7.78595 2.5 9.16667V10.8333C2.5 12.214 3.61929 13.3333 5 13.3333C6.38071 13.3333 7.5 12.214 7.5 10.8333H12.5V12.5H14.1667V10.8333H15V12.5H16.6667V9.16667H7.5C7.5 7.78595 6.38071 6.66667 5 6.66667ZM5.83333 10.8333V9.16667C5.83333 8.70643 5.46024 8.33333 5 8.33333C4.53976 8.33333 4.16667 8.70643 4.16667 9.16667V10.8333C4.16667 11.2936 4.53976 11.6667 5 11.6667C5.46024 11.6667 5.83333 11.2936 5.83333 10.8333Z" fill="black"/>
</g>
</svg>
