<svg width="17" height="17" viewBox="0 0 17 17" fill="none" xmlns="http://www.w3.org/2000/svg">
<g id="link">
<g id="link_2">
<path d="M10.3865 8.49998L11.3293 9.44279L13.215 7.55717C14.2564 6.51577 14.2564 4.82733 13.215 3.78593C12.1736 2.74453 10.4851 2.74453 9.44373 3.78593L7.55811 5.67155L8.50092 6.61436L10.3865 4.72874C10.9072 4.20804 11.7515 4.20804 12.2722 4.72874C12.7929 5.24944 12.7929 6.09366 12.2722 6.61436L10.3865 8.49998Z" fill="#333333"/>
<path d="M8.50095 10.3856L9.44376 11.3285L7.55814 13.2141C6.51675 14.2555 4.82831 14.2555 3.78691 13.2141C2.74551 12.1727 2.74551 10.4842 3.78691 9.44284L5.67253 7.55722L6.61533 8.50003L4.72972 10.3856C4.20902 10.9063 4.20902 11.7506 4.72972 12.2713C5.25042 12.792 6.09464 12.792 6.61533 12.2713L8.50095 10.3856Z" fill="#333333"/>
<path d="M10.3866 7.55712C10.6469 7.29677 10.6469 6.87466 10.3866 6.61431C10.1262 6.35396 9.70411 6.35396 9.44376 6.61431L6.61533 9.44274C6.35498 9.70309 6.35498 10.1252 6.61533 10.3855C6.87568 10.6459 7.29779 10.6459 7.55814 10.3855L10.3866 7.55712Z" fill="#333333"/>
</g>
</g>
</svg>
