<svg width="20" height="20" viewBox="0 0 20 20" fill="none" xmlns="http://www.w3.org/2000/svg">
<path d="M7.9625 7.61245H10.65V8.83745V8.98745H10.8H10.8375H10.9283L10.9704 8.90705C11.3579 8.16716 12.3203 7.37495 13.775 7.37495C15.313 7.37495 16.1886 7.87823 16.6917 8.6797C17.2049 9.49722 17.35 10.6531 17.35 12V17.35H14.5375V12.625V12.6092C14.5375 12.045 14.5375 11.3594 14.3258 10.8144C14.2171 10.5347 14.0501 10.2841 13.7932 10.1044C13.536 9.92452 13.2019 9.82495 12.775 9.82495C12.3523 9.82495 12.008 9.90776 11.7309 10.0616C11.453 10.2159 11.2515 10.4366 11.1077 10.6979C10.8239 11.2135 10.7625 11.8909 10.7625 12.55V17.35H7.9625V7.61245ZM5.95 4.31245C5.95 5.21779 5.21648 5.96245 4.3 5.96245C3.39534 5.96245 2.65 5.21711 2.65 4.31245C2.65 3.40779 3.39534 2.66245 4.3 2.66245C5.20466 2.66245 5.95 3.40779 5.95 4.31245ZM2.9 7.62495H5.7125V17.35H2.9V7.62495Z" fill="#0D3B3F" stroke="white" stroke-width="0.3"/>
</svg>
