<svg width="21" height="20" viewBox="0 0 21 20" fill="none" xmlns="http://www.w3.org/2000/svg">
<g id="Social icon" clip-path="url(#clip0_212_14844)">
<path id="Vector" d="M18.6906 0H1.64338C1.25182 0 0.876293 0.155548 0.599417 0.432425C0.32254 0.709301 0.166992 1.08483 0.166992 1.47639V18.5236C0.166992 18.9152 0.32254 19.2907 0.599417 19.5676C0.876293 19.8445 1.25182 20 1.64338 20H18.6906C19.0822 20 19.4577 19.8445 19.7346 19.5676C20.0114 19.2907 20.167 18.9152 20.167 18.5236V1.47639C20.167 1.08483 20.0114 0.709301 19.7346 0.432425C19.4577 0.155548 19.0822 0 18.6906 0ZM6.1281 17.0375H3.12116V7.48611H6.1281V17.0375ZM4.62255 6.1625C4.28146 6.16058 3.94859 6.05766 3.66594 5.86674C3.38329 5.67582 3.16353 5.40544 3.03439 5.08974C2.90525 4.77404 2.87253 4.42716 2.94035 4.09288C3.00817 3.7586 3.17349 3.4519 3.41545 3.21148C3.65742 2.97107 3.96517 2.80772 4.29988 2.74205C4.63459 2.67638 4.98125 2.71133 5.29612 2.84249C5.61098 2.97365 5.87994 3.19514 6.06905 3.47901C6.25815 3.76288 6.35893 4.09641 6.35866 4.4375C6.36188 4.66586 6.31909 4.89253 6.23284 5.104C6.14659 5.31547 6.01864 5.50742 5.85663 5.66839C5.69463 5.82936 5.50187 5.95607 5.28985 6.04096C5.07783 6.12585 4.85088 6.16718 4.62255 6.1625ZM17.2114 17.0458H14.2059V11.8278C14.2059 10.2889 13.5517 9.81389 12.7073 9.81389C11.8156 9.81389 10.9406 10.4861 10.9406 11.8667V17.0458H7.93366V7.49306H10.8253V8.81667H10.8642C11.1545 8.22917 12.1712 7.225 13.7225 7.225C15.4003 7.225 17.2128 8.22083 17.2128 11.1375L17.2114 17.0458Z" fill="#0A66C2"/>
</g>
<defs>
<clipPath id="clip0_212_14844">
<rect width="20" height="20" fill="white" transform="translate(0.166992)"/>
</clipPath>
</defs>
</svg>
