<svg width="21" height="20" viewBox="0 0 21 20" fill="none" xmlns="http://www.w3.org/2000/svg">
<g id="u:location-point">
<path id="Vector" d="M15.625 3.73318C14.2989 2.40709 12.5004 1.66211 10.625 1.66211C8.74963 1.66211 6.95107 2.40709 5.62499 3.73318C4.29891 5.05926 3.55392 6.85781 3.55392 8.73318C3.55392 10.6085 4.29891 12.4071 5.62499 13.7332L10.0167 18.1332C10.0941 18.2113 10.1863 18.2733 10.2878 18.3156C10.3894 18.3579 10.4983 18.3797 10.6083 18.3797C10.7183 18.3797 10.8273 18.3579 10.9288 18.3156C11.0304 18.2733 11.1225 18.2113 11.2 18.1332L15.625 13.6915C16.9455 12.3709 17.6874 10.5799 17.6874 8.71234C17.6874 6.8448 16.9455 5.05374 15.625 3.73318ZM14.4333 12.4998L10.625 16.3248L6.81666 12.4998C6.06428 11.7468 5.55206 10.7875 5.34474 9.74342C5.13742 8.69929 5.24432 7.61713 5.65191 6.63374C6.05951 5.65036 6.74951 4.80989 7.63468 4.21857C8.51986 3.62726 9.56048 3.31166 10.625 3.31166C11.6895 3.31166 12.7301 3.62726 13.6153 4.21857C14.5005 4.80989 15.1905 5.65036 15.5981 6.63374C16.0057 7.61713 16.1126 8.69929 15.9052 9.74342C15.6979 10.7875 15.1857 11.7468 14.4333 12.4998ZM8.12499 6.17484C7.45225 6.84965 7.07449 7.76365 7.07449 8.71651C7.07449 9.66937 7.45225 10.5834 8.12499 11.2582C8.62479 11.7588 9.26131 12.1007 9.9547 12.241C10.6481 12.3813 11.3675 12.3137 12.0226 12.0466C12.6777 11.7796 13.2393 11.3251 13.6371 10.7401C14.0348 10.155 14.2509 9.46557 14.2583 8.75818C14.2621 8.28585 14.1711 7.81756 13.9907 7.381C13.8104 6.94444 13.5443 6.54847 13.2083 6.21651C12.8781 5.87866 12.4842 5.60946 12.0495 5.4244C11.6148 5.23934 11.1478 5.14207 10.6753 5.1382C10.2029 5.13433 9.73432 5.22392 9.29663 5.40183C8.85895 5.57974 8.46076 5.84245 8.12499 6.17484ZM12.0333 10.0748C11.7175 10.3955 11.3002 10.5964 10.8526 10.6434C10.405 10.6903 9.95505 10.5804 9.57958 10.3323C9.20412 10.0842 8.92649 9.71338 8.79416 9.28325C8.66184 8.85311 8.68303 8.39037 8.85412 7.97414C9.02521 7.5579 9.33558 7.21402 9.73215 7.00129C10.1287 6.78856 10.5869 6.72018 11.0283 6.80786C11.4697 6.89553 11.8669 7.13381 12.1521 7.48195C12.4372 7.8301 12.5926 8.26649 12.5917 8.71651C12.5795 9.2309 12.3637 9.71945 11.9917 10.0748H12.0333Z" fill="white"/>
</g>
</svg>
