<svg width="20" height="20" viewBox="0 0 20 20" fill="none" xmlns="http://www.w3.org/2000/svg">
<g id="location">
<path id="Vector" d="M17.1829 7.04165C16.3079 3.19165 12.9496 1.45831 9.99959 1.45831C9.99959 1.45831 9.99959 1.45831 9.99126 1.45831C7.04959 1.45831 3.68292 3.18331 2.80792 7.03331C1.83292 11.3333 4.46626 14.975 6.84959 17.2666C7.73292 18.1166 8.86626 18.5416 9.99959 18.5416C11.1329 18.5416 12.2663 18.1166 13.1413 17.2666C15.5246 14.975 18.1579 11.3416 17.1829 7.04165ZM9.99959 11.2166C8.54959 11.2166 7.37459 10.0416 7.37459 8.59165C7.37459 7.14165 8.54959 5.96665 9.99959 5.96665C11.4496 5.96665 12.6246 7.14165 12.6246 8.59165C12.6246 10.0416 11.4496 11.2166 9.99959 11.2166Z" fill="#18181B"/>
</g>
</svg>
