<svg width="32" height="32" viewBox="0 0 32 32" fill="none" xmlns="http://www.w3.org/2000/svg">
<g id="location">
<path id="Vector" d="M27.4935 11.2666C26.0935 5.10659 20.7201 2.33325 16.0001 2.33325C16.0001 2.33325 16.0001 2.33325 15.9868 2.33325C11.2801 2.33325 5.89346 5.09325 4.49346 11.2533C2.93346 18.1333 7.14679 23.9599 10.9601 27.6266C12.3735 28.9866 14.1868 29.6666 16.0001 29.6666C17.8135 29.6666 19.6268 28.9866 21.0268 27.6266C24.8401 23.9599 29.0535 18.1466 27.4935 11.2666ZM16.0001 17.9466C13.6801 17.9466 11.8001 16.0666 11.8001 13.7466C11.8001 11.4266 13.6801 9.54658 16.0001 9.54658C18.3201 9.54658 20.2001 11.4266 20.2001 13.7466C20.2001 16.0666 18.3201 17.9466 16.0001 17.9466Z" fill="#2563EB"/>
</g>
</svg>
