<svg width="20" height="20" viewBox="0 0 20 20" fill="none" xmlns="http://www.w3.org/2000/svg">
<path d="M15.0008 3.73333C13.6747 2.40725 11.8761 1.66227 10.0008 1.66227C8.12539 1.66227 6.32684 2.40725 5.00076 3.73333C3.67467 5.05942 2.92969 6.85797 2.92969 8.73333C2.92969 10.6087 3.67467 12.4073 5.00076 13.7333L9.39242 18.1333C9.46989 18.2114 9.56206 18.2734 9.66361 18.3157C9.76516 18.358 9.87408 18.3798 9.98409 18.3798C10.0941 18.3798 10.203 18.358 10.3046 18.3157C10.4061 18.2734 10.4983 18.2114 10.5758 18.1333L15.0008 13.6917C16.3213 12.3711 17.0632 10.58 17.0632 8.7125C17.0632 6.84496 16.3213 5.0539 15.0008 3.73333ZM13.8091 12.5L10.0008 16.325L6.19242 12.5C5.44004 11.7469 4.92782 10.7877 4.7205 9.74358C4.51318 8.69945 4.62008 7.61729 5.02768 6.6339C5.43527 5.65051 6.12527 4.81004 7.01045 4.21873C7.89563 3.62742 8.93624 3.31182 10.0008 3.31182C11.0653 3.31182 12.1059 3.62742 12.9911 4.21873C13.8762 4.81004 14.5662 5.65051 14.9738 6.6339C15.3814 7.61729 15.4883 8.69945 15.281 9.74358C15.0737 10.7877 14.5615 11.7469 13.8091 12.5ZM7.50075 6.175C6.82802 6.84981 6.45025 7.76381 6.45025 8.71667C6.45025 9.66953 6.82802 10.5835 7.50075 11.2583C8.00056 11.759 8.63708 12.1009 9.33046 12.2412C10.0238 12.3814 10.7432 12.3138 11.3983 12.0468C12.0534 11.7798 12.6151 11.3252 13.0128 10.7402C13.4106 10.1552 13.6267 9.46573 13.6341 8.75833C13.6378 8.286 13.5469 7.81772 13.3665 7.38116C13.1862 6.9446 12.9201 6.54863 12.5841 6.21667C12.2538 5.87882 11.86 5.60962 11.4253 5.42456C10.9906 5.2395 10.5235 5.14223 10.0511 5.13836C9.57864 5.13448 9.11009 5.22408 8.6724 5.40199C8.23471 5.5799 7.83652 5.84261 7.50075 6.175ZM11.4091 10.075C11.0933 10.3956 10.6759 10.5966 10.2284 10.6435C9.78079 10.6905 9.33081 10.5805 8.95534 10.3324C8.57988 10.0843 8.30225 9.71354 8.16993 9.2834C8.0376 8.85327 8.0588 8.39053 8.22989 7.9743C8.40098 7.55806 8.71134 7.21418 9.10791 7.00145C9.50448 6.78871 9.96263 6.72034 10.404 6.80801C10.8454 6.89569 11.2427 7.13397 11.5278 7.48211C11.813 7.83025 11.9684 8.26664 11.9674 8.71667C11.9553 9.23106 11.7395 9.71961 11.3674 10.075H11.4091Z" fill="#0B3A48"/>
</svg>
