<svg width="282" height="144" viewBox="0 0 282 144" fill="none" xmlns="http://www.w3.org/2000/svg">
<path fill-rule="evenodd" clip-rule="evenodd" d="M20.4774 0C15.0465 0 9.83795 2.15745 5.99769 5.99785C2.15743 9.83825 0 15.047 0 20.4781C0 25.9093 2.15743 31.118 5.99769 34.9584C9.83795 38.7988 15.0465 40.9563 20.4774 40.9563H23.5305C27.5016 40.9607 31.3089 42.54 34.117 45.348C36.9252 48.1559 38.5051 51.9632 38.5099 55.9344V122.841C38.4971 128.129 40.5291 133.218 44.1811 137.042C47.8331 140.866 52.8222 143.131 58.1051 143.362C63.388 143.592 68.5555 141.772 72.527 138.28C75.7555 135.442 77.9904 131.679 78.9545 127.539C79.3776 125.723 80.5642 124.095 81.2028 122.343V122.343C81.5422 121.411 81.5778 120.396 81.3044 119.443C81.031 118.49 80.4626 117.648 79.6809 117.038C78.8992 116.429 77.9443 116.082 76.9534 116.049C75.9625 116.016 74.9866 116.297 74.1657 116.853C73.3449 117.409 72.7212 118.211 72.3844 119.143C72.0476 120.076 72.015 121.091 72.2911 122.044V122.044C72.8018 123.804 73.8687 125.577 73.3195 127.326C72.4785 130.005 70.8958 132.413 68.7278 134.258C65.8049 136.745 62.0402 138.016 58.2082 137.812C54.3762 137.607 50.7683 135.941 48.1271 133.157C45.4858 130.373 44.012 126.683 44.0089 122.845V55.9344C44.002 50.5053 41.8422 45.3005 38.0032 41.4617C34.1642 37.6229 28.9595 35.4635 23.5305 35.4572H20.4774C18.5103 35.4572 16.5625 35.0698 14.7451 34.317C12.9277 33.5641 11.2763 32.4606 9.88529 31.0696C8.49432 29.6786 7.39097 28.0272 6.63819 26.2098C5.8854 24.3923 5.49802 22.4444 5.49802 20.4772C5.49802 18.51 5.8854 16.5621 6.63819 14.7446C7.39097 12.9272 8.49432 11.2758 9.88529 9.8848C11.2763 8.49378 12.9277 7.39039 14.7451 6.63758C16.5625 5.88477 18.5103 5.49726 20.4774 5.49726H97.4511C101.424 5.49726 105.234 7.07551 108.043 9.8848C110.852 12.6941 112.431 16.5043 112.431 20.4772C112.431 24.4501 110.852 28.2603 108.043 31.0696C105.234 33.8789 101.424 35.4572 97.4511 35.4572H94.4867C89.0579 35.4635 83.8533 37.623 80.0146 41.4618C76.1759 45.3007 74.0165 50.5055 74.0102 55.9344V92.9071L74.0231 97.4685C74.0231 99.0367 73.4001 100.54 72.2914 101.649C71.1826 102.758 69.6788 103.381 68.1107 103.381C66.5426 103.381 65.0388 102.758 63.93 101.649C62.8212 100.54 62.1983 99.0367 62.1983 97.4685V50.7398L62.2648 38.0821C62.257 32.653 60.0962 27.4486 56.2565 23.6105C52.4168 19.7724 47.2117 17.6139 41.7827 17.6086H33.0884C31.2445 17.6086 29.5711 16.4821 27.8172 15.9131V15.9131C26.8789 15.6088 25.8685 15.6091 24.9305 15.9143C23.9925 16.2194 23.1752 16.8135 22.5955 17.6116C22.0159 18.4097 21.7037 19.3708 21.7037 20.3572C21.7037 21.3436 22.0159 22.3047 22.5955 23.1028C23.1752 23.9009 23.9925 24.4951 24.9305 24.8002C25.8685 25.1053 26.8789 25.1058 27.8172 24.8014V24.8014C29.5711 24.2325 31.2445 23.1059 33.0884 23.1059H41.7827C45.7521 23.1093 49.5581 24.6865 52.3664 27.4918C55.1747 30.2971 56.7561 34.1016 56.7639 38.0711L56.6957 50.7288V97.4685C56.6957 100.495 57.8979 103.397 60.0377 105.537C62.1776 107.677 65.0799 108.879 68.1061 108.879C71.1323 108.879 74.0346 107.677 76.1744 105.537C78.3143 103.397 79.5165 100.495 79.5165 97.4685L79.5036 55.9344C79.5084 51.9632 81.0883 48.1559 83.8965 45.348C86.7046 42.54 90.5119 40.9607 94.483 40.9563H97.4475C102.878 40.9563 108.087 38.7988 111.927 34.9584C115.768 31.118 117.925 25.9093 117.925 20.4781C117.925 15.047 115.768 9.83825 111.927 5.99785C108.087 2.15745 102.878 0 97.4475 0H20.4774Z" fill="url(#paint0_linear_220_146)"/>
<path fill-rule="evenodd" clip-rule="evenodd" d="M107.511 55.9177V51.6627H131.493V55.9251H121.752V95.3769H117.307V55.9177H107.511ZM169.365 63.0412V95.3695H165.288V89.8316C163.767 91.826 161.804 93.4411 159.554 94.5502C157.305 95.6593 154.829 96.2322 152.32 96.2242C150.104 96.2793 147.9 95.8657 145.854 95.0107C143.808 94.1556 141.966 92.8783 140.448 91.2623C138.891 89.6531 137.67 87.7507 136.854 85.6656C136.039 83.5805 135.646 81.3541 135.698 79.1158C135.648 76.8908 136.049 74.6788 136.876 72.6124C137.702 70.546 138.938 68.6681 140.508 67.0913C142.05 65.4934 143.906 64.2327 145.96 63.3891C148.014 62.5455 150.221 62.1373 152.44 62.1902C154.97 62.1846 157.463 62.7974 159.703 63.9752C161.942 65.1531 163.859 66.8603 165.288 68.9483V63.0412H169.365ZM152.776 66.2071C150.497 66.1233 148.242 66.6992 146.282 67.8656C144.322 69.0319 142.74 70.7392 141.727 72.7824C140.57 74.7585 139.96 77.007 139.96 79.2968C139.96 81.5866 140.57 83.8351 141.727 85.8112C142.837 87.8216 144.471 89.494 146.454 90.6513C148.367 91.7872 150.551 92.3866 152.776 92.3865C155.037 92.4912 157.28 91.9444 159.239 90.8112C161.198 89.6779 162.79 88.0059 163.826 85.9939C164.962 83.9678 165.549 81.6804 165.53 79.3577C165.584 77.6297 165.296 75.9079 164.681 74.2919C164.067 72.676 163.138 71.198 161.948 69.9433C160.768 68.7101 159.341 67.7395 157.761 67.0945C156.181 66.4494 154.482 66.1445 152.776 66.1996V66.2071ZM178.065 50.5607H182.205V95.3695H178.065V50.5552V50.5607ZM218.064 84.6556L221.597 86.4812C219.779 90.3819 216.531 93.4337 212.524 95.004C210.489 95.8096 208.32 96.2231 206.132 96.2224C203.897 96.3006 201.67 95.9164 199.591 95.094C197.511 94.2717 195.624 93.0288 194.047 91.4432C192.48 89.8426 191.254 87.941 190.444 85.8533C189.633 83.7656 189.253 81.5352 189.329 79.2968C189.288 75.3185 190.621 71.448 193.104 68.3391C194.587 66.3653 196.522 64.7765 198.746 63.7062C200.971 62.6359 203.421 62.1153 205.888 62.1884C208.431 62.1048 210.957 62.6309 213.256 63.7227C215.554 64.8146 217.557 66.4406 219.099 68.4647C221.534 71.6339 222.803 75.5454 222.691 79.5405H193.591C193.499 82.9116 194.722 86.1861 197 88.6724C198.105 89.889 199.462 90.8512 200.975 91.4925C202.489 92.1337 204.123 92.4388 205.766 92.3865C208.981 92.5306 212.126 91.4169 214.534 89.2816C215.896 87.8901 217.081 86.3365 218.064 84.6556ZM218.064 75.9482C217.731 74.1278 216.973 72.412 215.85 70.9412C214.727 69.4704 213.272 68.2865 211.603 67.4863C209.84 66.6293 207.902 66.1915 205.942 66.2071C199.935 66.2071 195.958 69.4541 194.01 75.9482H218.064ZM230.431 63.0412H234.692V68.8302C236.004 66.8151 237.794 65.1552 239.903 63.9975C242.011 62.8399 244.372 62.2204 246.777 62.1939C249.034 62.0587 251.275 62.647 253.175 63.8734C255.075 65.0997 256.534 66.9002 257.341 69.013C258.403 72.1452 258.857 75.4514 258.679 78.7541V95.3677H254.539V79.965C254.62 77.4588 254.456 74.9505 254.051 72.476C253.775 70.5547 252.772 68.8128 251.248 67.6104C249.725 66.4079 247.797 65.8368 245.865 66.0151C243.389 65.9839 240.988 66.8614 239.116 68.4813C237.19 70.116 235.798 72.2896 235.118 74.7225C234.847 75.8185 234.704 76.9422 234.692 78.0711V95.3603H230.433L230.431 63.0412ZM271.225 50.9871H275.486V63.0412H282V66.5726H275.473V95.3695H271.227V66.5726H265.505V63.0412H271.227L271.225 50.9871Z" fill="#111111"/>
<path fill-rule="evenodd" clip-rule="evenodd" d="M117.477 101.478H118.585V102.955C118.883 102.438 119.311 102.009 119.827 101.709C120.342 101.409 120.927 101.248 121.523 101.243C121.911 101.225 122.298 101.294 122.656 101.445C123.014 101.595 123.333 101.824 123.591 102.115C123.872 102.474 124.091 102.879 124.237 103.311C124.462 102.857 124.774 102.451 125.157 102.118C125.539 101.786 125.984 101.532 126.465 101.373C126.764 101.282 127.075 101.238 127.388 101.243C127.948 101.206 128.506 101.352 128.976 101.661C129.445 101.97 129.8 102.425 129.987 102.955C130.237 103.729 130.346 104.542 130.31 105.354V110.038H129.18V105.38C129.194 104.878 129.167 104.375 129.099 103.878C129.024 103.43 128.788 103.025 128.436 102.739C128.078 102.459 127.632 102.313 127.177 102.327C126.645 102.322 126.126 102.493 125.701 102.813C125.266 103.132 124.933 103.569 124.739 104.072C124.481 104.924 124.372 105.814 124.416 106.704V110.064H123.334V105.67C123.347 105.125 123.315 104.58 123.236 104.04C123.208 103.558 122.99 103.107 122.63 102.786C122.27 102.465 121.797 102.3 121.315 102.327C120.784 102.316 120.263 102.476 119.83 102.785C119.398 103.094 119.077 103.534 118.915 104.04C118.661 104.81 118.551 105.621 118.592 106.431V110.064H117.485V101.487L117.477 101.478ZM141.184 101.478V110.054H140.102V108.578C139.699 109.106 139.178 109.535 138.581 109.829C137.984 110.123 137.327 110.274 136.662 110.272C136.074 110.287 135.489 110.177 134.946 109.951C134.404 109.724 133.915 109.385 133.512 108.956C133.1 108.529 132.776 108.025 132.56 107.472C132.344 106.919 132.24 106.328 132.254 105.735C132.24 105.145 132.346 104.558 132.566 104.01C132.785 103.461 133.113 102.963 133.529 102.545C133.939 102.123 134.432 101.79 134.977 101.567C135.522 101.345 136.106 101.238 136.695 101.253C137.366 101.251 138.027 101.414 138.621 101.726C139.215 102.039 139.723 102.491 140.102 103.045V101.478H141.184ZM136.783 102.318C136.179 102.295 135.58 102.447 135.06 102.757C134.54 103.066 134.121 103.52 133.852 104.062C133.545 104.586 133.383 105.183 133.383 105.79C133.383 106.398 133.545 106.994 133.852 107.518C134.145 108.054 134.579 108.501 135.106 108.81C135.614 109.111 136.193 109.27 136.783 109.27C137.383 109.297 137.978 109.152 138.497 108.852C139.017 108.551 139.439 108.108 139.715 107.575C140.016 107.037 140.172 106.43 140.167 105.814C140.181 105.356 140.104 104.899 139.941 104.471C139.778 104.043 139.532 103.651 139.216 103.318C138.903 102.992 138.525 102.734 138.105 102.563C137.686 102.392 137.236 102.311 136.783 102.325V102.318ZM143.656 101.478H144.785V103.012C145.134 102.477 145.609 102.037 146.168 101.73C146.727 101.424 147.354 101.259 147.992 101.253C148.591 101.217 149.185 101.373 149.689 101.698C150.193 102.024 150.58 102.501 150.794 103.062C151.075 103.893 151.196 104.77 151.148 105.646V110.054H150.05V105.967C150.071 105.303 150.028 104.637 149.921 103.981C149.847 103.472 149.581 103.01 149.176 102.691C148.772 102.373 148.26 102.222 147.748 102.27C147.092 102.262 146.455 102.495 145.959 102.925C145.447 103.36 145.077 103.939 144.898 104.587C144.827 104.877 144.789 105.175 144.785 105.474V110.062H143.656V101.485V101.478ZM162.065 101.478V110.054H160.983V108.578C160.579 109.106 160.059 109.534 159.462 109.828C158.866 110.122 158.209 110.274 157.544 110.272C156.956 110.287 156.371 110.178 155.828 109.951C155.285 109.724 154.796 109.385 154.393 108.956C153.981 108.529 153.657 108.024 153.441 107.471C153.225 106.919 153.121 106.328 153.134 105.735C153.122 105.145 153.228 104.558 153.447 104.01C153.666 103.462 153.994 102.963 154.41 102.545C154.82 102.123 155.313 101.79 155.858 101.567C156.402 101.345 156.987 101.238 157.576 101.253C158.247 101.251 158.908 101.414 159.502 101.726C160.096 102.039 160.604 102.491 160.983 103.045V101.478H162.065ZM157.664 102.318C157.059 102.295 156.461 102.447 155.941 102.757C155.421 103.066 155.001 103.52 154.733 104.062C154.426 104.586 154.264 105.183 154.264 105.79C154.264 106.398 154.426 106.994 154.733 107.518C155.026 108.054 155.46 108.501 155.988 108.81C156.495 109.111 157.074 109.27 157.664 109.27C158.264 109.297 158.858 109.152 159.378 108.852C159.897 108.551 160.32 108.108 160.596 107.575C160.896 107.037 161.052 106.43 161.048 105.814C161.062 105.356 160.985 104.899 160.822 104.471C160.659 104.043 160.413 103.651 160.097 103.318C159.784 102.992 159.405 102.734 158.986 102.563C158.567 102.392 158.117 102.311 157.664 102.325V102.318ZM171.933 101.478H173.063V108.308C173.104 109.203 172.995 110.098 172.74 110.957C172.429 111.763 171.859 112.442 171.119 112.887C170.379 113.331 169.512 113.516 168.655 113.412C167.412 113.494 166.188 113.082 165.247 112.266C164.812 111.824 164.466 111.302 164.228 110.73H165.421C165.733 111.285 166.199 111.739 166.762 112.036C167.326 112.334 167.963 112.464 168.597 112.41C169.189 112.418 169.775 112.303 170.32 112.072C170.873 111.848 171.331 111.436 171.612 110.909C171.866 110.257 171.976 109.557 171.935 108.858V108.421C171.531 108.943 171.01 109.362 170.414 109.646C169.817 109.929 169.163 110.068 168.503 110.052C167.73 110.052 166.971 109.849 166.301 109.464C165.63 109.092 165.073 108.545 164.692 107.88C164.309 107.215 164.11 106.46 164.117 105.692C164.124 104.52 164.59 103.398 165.417 102.567C166.243 101.736 167.363 101.264 168.535 101.251C169.193 101.266 169.84 101.427 170.428 101.723C171.016 102.019 171.531 102.442 171.935 102.962V101.485L171.933 101.478ZM168.693 102.318C168.092 102.297 167.497 102.445 166.975 102.745C166.453 103.044 166.025 103.484 165.74 104.014C165.423 104.541 165.256 105.144 165.256 105.759C165.238 106.199 165.314 106.637 165.48 107.046C165.645 107.454 165.895 107.822 166.214 108.125C166.874 108.73 167.745 109.051 168.64 109.021C169.086 109.04 169.533 108.971 169.952 108.815C170.371 108.66 170.754 108.422 171.08 108.116C171.393 107.798 171.636 107.418 171.795 107.002C171.953 106.585 172.024 106.14 172.003 105.694C172.038 105.1 171.904 104.508 171.616 103.987C171.328 103.467 170.897 103.039 170.375 102.753C169.864 102.464 169.286 102.314 168.699 102.318H168.693ZM182.623 107.212L183.56 107.697C183.079 108.73 182.221 109.54 181.161 109.958C180.621 110.171 180.046 110.28 179.466 110.28C178.873 110.3 178.283 110.198 177.731 109.98C177.179 109.762 176.679 109.433 176.26 109.013C175.844 108.588 175.519 108.084 175.304 107.53C175.089 106.976 174.988 106.384 175.008 105.79C174.998 104.735 175.351 103.708 176.009 102.883C176.402 102.36 176.916 101.939 177.506 101.655C178.096 101.371 178.745 101.233 179.4 101.253C180.074 101.229 180.745 101.368 181.355 101.657C181.965 101.946 182.497 102.377 182.907 102.914C183.552 103.755 183.889 104.793 183.859 105.853H176.14C176.116 106.747 176.44 107.616 177.044 108.277C177.338 108.599 177.698 108.854 178.099 109.023C178.501 109.193 178.934 109.274 179.37 109.261C180.223 109.299 181.057 109.004 181.696 108.437C182.057 108.068 182.372 107.656 182.632 107.21L182.623 107.212ZM182.623 104.902C182.535 104.42 182.334 103.965 182.036 103.574C181.739 103.184 181.354 102.87 180.911 102.657C180.443 102.43 179.929 102.314 179.409 102.318C178.66 102.3 177.929 102.551 177.349 103.025C176.768 103.499 176.377 104.165 176.245 104.902H182.623ZM185.901 101.478H186.999V102.955C187.298 102.438 187.726 102.009 188.242 101.708C188.758 101.408 189.343 101.248 189.94 101.243C190.327 101.225 190.714 101.294 191.071 101.445C191.429 101.595 191.748 101.824 192.005 102.115C192.288 102.474 192.507 102.878 192.653 103.311C192.877 102.856 193.19 102.451 193.572 102.118C193.955 101.785 194.4 101.532 194.881 101.373C195.18 101.282 195.492 101.238 195.804 101.243C196.365 101.205 196.923 101.352 197.393 101.661C197.862 101.97 198.218 102.424 198.405 102.955C198.655 103.729 198.764 104.542 198.728 105.354V110.038H197.598V105.38C197.613 104.878 197.585 104.375 197.517 103.878C197.441 103.43 197.206 103.026 196.854 102.739C196.495 102.459 196.05 102.314 195.595 102.327C195.063 102.322 194.544 102.493 194.119 102.813C193.686 103.132 193.353 103.569 193.159 104.072C192.901 104.924 192.792 105.814 192.836 106.704V110.064H191.752V105.67C191.766 105.125 191.734 104.58 191.656 104.04C191.628 103.558 191.41 103.108 191.049 102.787C190.689 102.466 190.217 102.3 189.735 102.327C189.204 102.316 188.683 102.476 188.25 102.785C187.818 103.094 187.497 103.534 187.335 104.04C187.082 104.81 186.972 105.621 187.012 106.431V110.064H185.914V101.487L185.901 101.478ZM208.269 107.212L209.205 107.697C208.725 108.73 207.866 109.54 206.806 109.958C206.266 110.171 205.691 110.28 205.111 110.28C204.518 110.3 203.928 110.198 203.376 109.98C202.824 109.762 202.323 109.433 201.905 109.013C201.489 108.588 201.164 108.084 200.949 107.53C200.734 106.976 200.633 106.384 200.653 105.79C200.642 104.734 200.996 103.707 201.656 102.883C202.049 102.359 202.562 101.938 203.152 101.654C203.742 101.371 204.392 101.233 205.046 101.253C205.721 101.229 206.392 101.368 207.002 101.657C207.612 101.946 208.144 102.377 208.554 102.914C209.2 103.755 209.537 104.793 209.508 105.853H201.788C201.764 106.747 202.088 107.616 202.691 108.277C202.985 108.599 203.345 108.853 203.746 109.023C204.148 109.193 204.581 109.274 205.017 109.261C205.87 109.299 206.704 109.004 207.343 108.437C207.704 108.068 208.019 107.656 208.281 107.21L208.269 107.212ZM208.269 104.902C208.181 104.42 207.979 103.965 207.682 103.575C207.384 103.185 206.998 102.87 206.556 102.657C206.089 102.431 205.575 102.315 205.056 102.318C204.306 102.3 203.575 102.55 202.995 103.024C202.414 103.498 202.022 104.164 201.89 104.902H208.269ZM211.548 101.478H212.677V103.012C213.026 102.477 213.501 102.037 214.06 101.73C214.619 101.424 215.246 101.259 215.884 101.253C216.482 101.217 217.077 101.373 217.581 101.698C218.085 102.024 218.472 102.501 218.686 103.062C218.967 103.893 219.088 104.77 219.04 105.646V110.054H217.942V105.967C217.963 105.303 217.92 104.637 217.813 103.981C217.739 103.472 217.473 103.011 217.069 102.692C216.665 102.374 216.154 102.223 215.642 102.27C214.985 102.261 214.347 102.494 213.851 102.925C213.339 103.36 212.969 103.939 212.79 104.587C212.719 104.877 212.681 105.175 212.677 105.474V110.062H211.548V101.485V101.478ZM222.368 98.2808H223.498V101.478H225.226V102.416H223.498V110.054H222.368V102.416H220.849V101.478H222.368V98.2808Z" fill="#111111"/>
<defs>
<linearGradient id="paint0_linear_220_146" x1="6.55139" y1="-19.9141" x2="147.854" y2="-0.651532" gradientUnits="userSpaceOnUse">
<stop offset="0.185417" stop-color="#37A67E"/>
<stop offset="1" stop-color="#1730A4"/>
</linearGradient>
</defs>
</svg>
