<svg width="24" height="24" viewBox="0 0 24 24" fill="none" xmlns="http://www.w3.org/2000/svg">
<g id="logout">
<g id="Vector">
<path d="M16.8014 2H14.2014C11.0014 2 9.00141 4 9.00141 7.2V11.25H15.2514C15.6614 11.25 16.0014 11.59 16.0014 12C16.0014 12.41 15.6614 12.75 15.2514 12.75H9.00141V16.8C9.00141 20 11.0014 22 14.2014 22H16.7914C19.9914 22 21.9914 20 21.9914 16.8V7.2C22.0014 4 20.0014 2 16.8014 2Z" fill="#DC2626"/>
<path d="M4.56141 11.25L6.63141 9.18C6.78141 9.03 6.85141 8.84 6.85141 8.65C6.85141 8.46 6.78141 8.26 6.63141 8.12C6.34141 7.83 5.86141 7.83 5.57141 8.12L2.22141 11.47C1.93141 11.76 1.93141 12.24 2.22141 12.53L5.57141 15.88C5.86141 16.17 6.34141 16.17 6.63141 15.88C6.92141 15.59 6.92141 15.11 6.63141 14.82L4.56141 12.75H9.00141V11.25H4.56141Z" fill="#DC2626"/>
</g>
</g>
</svg>
