<svg width="123" height="63" viewBox="0 0 123 63" fill="none" xmlns="http://www.w3.org/2000/svg">
<g clip-path="url(#clip0_152_3719)">
<path fill-rule="evenodd" clip-rule="evenodd" d="M8.93088 0C6.562 0 4.29014 0.948385 2.6151 2.63657C0.940051 4.32476 -0.000976563 6.61444 -0.000976562 9.00189C-0.000976563 11.3893 0.940051 13.679 2.6151 15.3672C4.29014 17.0554 6.562 18.0038 8.93088 18.0038H10.2626C11.9947 18.0057 13.6553 18.7 14.8802 19.9343C16.1051 21.1687 16.7942 22.8423 16.7963 24.588V53.9993C16.7907 56.3239 17.677 58.5606 19.27 60.2417C20.8629 61.9229 23.039 62.9183 25.3433 63.0197C27.6476 63.1212 29.9016 62.3209 31.6339 60.7861C33.3662 59.2513 34.4427 57.101 34.6382 54.7848C34.997 54.5414 35.27 54.1897 35.4181 53.7802C35.5661 53.3707 35.5817 52.9245 35.4624 52.5056C35.3431 52.0867 35.0952 51.7166 34.7543 51.4485C34.4133 51.1804 33.9968 51.0281 33.5646 51.0135C33.1324 50.9988 32.7067 51.1227 32.3487 51.3671C31.9906 51.6115 31.7186 51.9639 31.5717 52.3738C31.4248 52.7837 31.4105 53.23 31.531 53.6486C31.6514 54.0672 31.9004 54.4365 32.2422 54.7036C32.0624 56.3808 31.2516 57.9248 29.9767 59.0179C28.7018 60.111 27.0597 60.67 25.3883 60.58C23.7168 60.49 22.1432 59.7577 20.9911 58.5339C19.839 57.3101 19.1962 55.6879 19.1948 54.0009V24.588C19.1918 22.2014 18.2498 19.9135 16.5753 18.226C14.9008 16.5385 12.6306 15.5893 10.2626 15.5865H8.93088C8.07285 15.5865 7.22324 15.4162 6.43053 15.0853C5.63782 14.7543 4.9175 14.2692 4.31079 13.6578C3.70408 13.0463 3.22282 12.3204 2.89447 11.5215C2.56612 10.7225 2.39715 9.86625 2.39715 9.0015C2.39715 8.13674 2.56612 7.28046 2.89447 6.48154C3.22282 5.68261 3.70408 4.95669 4.31079 4.34522C4.9175 3.73375 5.63782 3.24871 6.43053 2.91779C7.22324 2.58686 8.07285 2.41652 8.93088 2.41652H42.5053C44.2381 2.41652 45.9 3.1103 47.1254 4.34522C48.3507 5.58014 49.039 7.25505 49.039 9.0015C49.039 10.7479 48.3507 12.4228 47.1254 13.6578C45.9 14.8927 44.2381 15.5865 42.5053 15.5865H41.2122C38.8443 15.5893 36.5742 16.5385 34.8998 18.226C33.2254 19.9135 32.2836 22.2015 32.2808 24.588V40.8407L32.2864 42.8458C32.2864 43.5351 32.0147 44.1962 31.5311 44.6836C31.0474 45.171 30.3915 45.4449 29.7076 45.4449C29.0236 45.4449 28.3676 45.171 27.884 44.6836C27.4004 44.1962 27.1287 43.5351 27.1287 42.8458V22.3045L27.1577 16.7404C27.1543 14.3538 26.2118 12.066 24.537 10.3789C22.8622 8.69168 20.5918 7.74284 18.2238 7.74048H13.1514C12.8983 7.38984 12.5416 7.12898 12.1323 6.99519C11.7231 6.86139 11.2823 6.86156 10.8732 6.99568C10.4641 7.12981 10.1076 7.39098 9.85474 7.74181C9.60192 8.09265 9.46574 8.51514 9.46574 8.94875C9.46574 9.38236 9.60192 9.80485 9.85474 10.1557C10.1076 10.5065 10.4641 10.7677 10.8732 10.9018C11.2823 11.0359 11.7231 11.0362 12.1323 10.9024C12.5416 10.7686 12.8983 10.5077 13.1514 10.157H18.2238C19.9552 10.1585 21.6153 10.8519 22.8402 12.085C24.0652 13.3182 24.7549 14.9906 24.7583 16.7355L24.7286 22.2997V42.8458C24.7286 44.1761 25.2529 45.452 26.1863 46.3927C27.1197 47.3334 28.3856 47.8618 29.7056 47.8618C31.0255 47.8618 32.2914 47.3334 33.2248 46.3927C34.1582 45.452 34.6826 44.1761 34.6826 42.8458L34.6769 24.588C34.679 22.8423 35.3681 21.1687 36.593 19.9343C37.8179 18.7 39.4785 18.0057 41.2106 18.0038H42.5037C44.8726 18.0038 47.1444 17.0554 48.8195 15.3672C50.4945 13.679 51.4356 11.3893 51.4356 9.00189C51.4356 6.61444 50.4945 4.32476 48.8195 2.63657C47.1444 0.948385 44.8726 0 42.5037 0H8.93088Z" fill="url(#paint0_linear_152_3719)"/>
<path fill-rule="evenodd" clip-rule="evenodd" d="M46.8936 24.5809V22.7105H57.354V24.5842H53.1052V41.9267H51.1664V24.5809H46.8936ZM73.8731 27.7123V41.9234H72.0945V39.489C71.431 40.3657 70.575 41.0757 69.5937 41.5632C68.6124 42.0508 67.5324 42.3026 66.4384 42.2991C65.4715 42.3233 64.5104 42.1415 63.618 41.7657C62.7256 41.3898 61.922 40.8283 61.2597 40.1179C60.5808 39.4105 60.0481 38.5742 59.6924 37.6577C59.3368 36.7411 59.1654 35.7624 59.1881 34.7785C59.1664 33.8004 59.3411 32.828 59.7017 31.9197C60.0622 31.0113 60.6012 30.1858 61.2863 29.4927C61.9587 28.7903 62.7684 28.2361 63.6643 27.8653C64.5601 27.4944 65.5225 27.315 66.4907 27.3383C67.5943 27.3358 68.6817 27.6052 69.6583 28.1229C70.635 28.6407 71.4713 29.3911 72.0945 30.309V27.7123H73.8731ZM66.6373 29.104C65.6431 29.0672 64.6595 29.3203 63.8046 29.833C62.9497 30.3457 62.2598 31.0962 61.8177 31.9944C61.3131 32.8631 61.0471 33.8515 61.0471 34.858C61.0471 35.8646 61.3131 36.853 61.8177 37.7217C62.3019 38.6054 63.0144 39.3406 63.8796 39.8493C64.7142 40.3486 65.6668 40.6121 66.6373 40.6121C67.6233 40.6581 68.6017 40.4178 69.4561 39.9196C70.3105 39.4214 71.0049 38.6864 71.4568 37.802C71.9522 36.9114 72.2084 35.9058 72.2 34.8848C72.2239 34.1252 72.0982 33.3683 71.8301 32.658C71.562 31.9477 71.1568 31.2979 70.638 30.7464C70.1232 30.2043 69.5009 29.7776 68.8116 29.4941C68.1222 29.2105 67.3814 29.0765 66.6373 29.1007V29.104ZM77.6677 22.2261H79.4736V41.9234H77.6677V22.2236V22.2261ZM95.1143 37.2137L96.6554 38.0162C95.8627 39.7309 94.4457 41.0725 92.6981 41.7627C91.8105 42.1169 90.8645 42.2986 89.9099 42.2983C88.9351 42.3327 87.9638 42.1638 87.0567 41.8023C86.1497 41.4408 85.3265 40.8944 84.6386 40.1974C83.9554 39.4938 83.4207 38.6579 83.067 37.7402C82.7133 36.8225 82.5479 35.842 82.5807 34.858C82.5628 33.1092 83.1444 31.4078 84.2272 30.0412C84.8741 29.1736 85.7182 28.4751 86.6886 28.0046C87.659 27.5341 88.7273 27.3053 89.8036 27.3374C90.9128 27.3007 92.0147 27.532 93.0171 28.0119C94.0196 28.4919 94.8935 29.2066 95.566 30.0964C96.6282 31.4895 97.1815 33.209 97.1328 34.9652H84.4398C84.3999 36.447 84.9331 37.8865 85.9269 38.9794C86.409 39.5143 87.0006 39.9372 87.6607 40.2191C88.3209 40.501 89.0339 40.6351 89.7505 40.6121C91.1529 40.6754 92.5246 40.1859 93.5749 39.2472C94.1688 38.6355 94.6858 37.9526 95.1143 37.2137ZM95.1143 33.3861C94.9694 32.5858 94.6385 31.8316 94.1487 31.185C93.6589 30.5385 93.0241 30.0181 92.2963 29.6663C91.5272 29.2896 90.6821 29.0971 89.827 29.104C87.207 29.104 85.4722 30.5313 84.6225 33.3861H95.1143ZM100.509 27.7123H102.367V30.2571C102.94 29.3713 103.72 28.6416 104.64 28.1327C105.559 27.6238 106.589 27.3515 107.638 27.3399C108.623 27.2804 109.601 27.539 110.429 28.0781C111.258 28.6172 111.894 29.4087 112.246 30.3374C112.71 31.7143 112.908 33.1677 112.83 34.6195V41.9226H111.024V35.1518C111.059 34.0501 110.988 32.9475 110.811 31.8597C110.691 31.0151 110.253 30.2494 109.589 29.7208C108.924 29.1923 108.084 28.9412 107.241 29.0196C106.161 29.0059 105.114 29.3916 104.297 30.1037C103.457 30.8223 102.85 31.7778 102.553 32.8472C102.435 33.329 102.373 33.823 102.367 34.3192V41.9193H100.51L100.509 27.7123ZM118.302 22.4135H120.161V27.7123H123.002V29.2647H120.155V41.9234H118.303V29.2647H115.807V27.7123H118.303L118.302 22.4135Z" fill="white"/>
<path fill-rule="evenodd" clip-rule="evenodd" d="M51.2402 44.6086H51.7233V45.2577C51.8535 45.0308 52.0403 44.842 52.2651 44.71C52.4899 44.5781 52.745 44.5076 53.0051 44.5055C53.1743 44.4974 53.3431 44.5276 53.4991 44.5939C53.6551 44.6602 53.7945 44.7609 53.9069 44.8885C54.0296 45.0465 54.1249 45.2243 54.1887 45.4143C54.2867 45.2146 54.423 45.0364 54.5898 44.8901C54.7566 44.7439 54.9506 44.6325 55.1605 44.5623C55.2909 44.5224 55.4267 44.5032 55.563 44.5055C55.8076 44.4888 56.0509 44.5533 56.2556 44.6892C56.4603 44.825 56.6152 45.0247 56.6967 45.2577C56.8058 45.5981 56.8535 45.9553 56.8376 46.3126V48.3713H56.3448V46.324C56.3511 46.1032 56.3392 45.8823 56.3094 45.6635C56.2767 45.4667 56.1739 45.2887 56.0204 45.1628C55.8639 45.0397 55.6697 44.9756 55.4713 44.9818C55.2391 44.9797 55.0127 45.0547 54.8271 45.1953C54.6377 45.3355 54.4922 45.5276 54.4077 45.7487C54.2953 46.1234 54.2477 46.5148 54.2668 46.9058V48.3827H53.795V46.4514C53.8007 46.2118 53.7864 45.9721 53.7523 45.7349C53.74 45.5231 53.6449 45.3248 53.4878 45.1836C53.3306 45.0424 53.1243 44.9699 52.9141 44.9818C52.6824 44.9767 52.4553 45.0473 52.2666 45.183C52.078 45.3188 51.9379 45.5123 51.8674 45.7349C51.7566 46.0734 51.7088 46.4297 51.7265 46.7857V48.3827H51.2435V44.6126L51.2402 44.6086ZM61.5807 44.6086V48.3786H61.1089V47.7294C60.9327 47.9619 60.7056 48.1502 60.4452 48.2794C60.1848 48.4086 59.8983 48.4754 59.6081 48.4744C59.3516 48.4809 59.0967 48.4327 58.86 48.333C58.6232 48.2333 58.4101 48.0843 58.2345 47.8958C58.0545 47.7082 57.9132 47.4864 57.819 47.2433C57.7247 47.0002 57.6793 46.7407 57.6854 46.4798C57.6796 46.2203 57.7259 45.9624 57.8215 45.7214C57.9171 45.4805 58.0601 45.2615 58.2418 45.0776C58.4205 44.8919 58.6355 44.7456 58.8731 44.6478C59.1108 44.5501 59.366 44.503 59.6226 44.5096C59.9153 44.5089 60.2037 44.5804 60.4627 44.7177C60.7217 44.855 60.9436 45.0541 61.1089 45.2975V44.6086H61.5807ZM59.6612 44.9778C59.3974 44.9677 59.1364 45.0348 58.9095 45.1708C58.6827 45.3069 58.4997 45.5061 58.3827 45.7446C58.2487 45.975 58.1781 46.2371 58.1781 46.5041C58.1781 46.7711 58.2487 47.0333 58.3827 47.2637C58.5106 47.4993 58.6995 47.6956 58.9293 47.8317C59.151 47.9639 59.4037 48.0336 59.6612 48.0337C59.9227 48.0458 60.1821 47.982 60.4087 47.85C60.6354 47.7179 60.8197 47.5232 60.9398 47.2888C61.071 47.0524 61.139 46.7856 61.137 46.5147C61.1432 46.3133 61.1098 46.1126 61.0386 45.9243C60.9675 45.736 60.86 45.5638 60.7224 45.4176C60.5858 45.2739 60.4207 45.1608 60.2379 45.0856C60.0551 45.0104 59.8586 44.9747 59.6612 44.981V44.9778ZM62.6588 44.6086H63.1515V45.2829C63.3035 45.048 63.5106 44.8545 63.7546 44.7196C63.9986 44.5847 64.2718 44.5125 64.55 44.5096C64.8112 44.4938 65.0706 44.5624 65.2904 44.7054C65.5102 44.8485 65.679 45.0584 65.7723 45.3048C65.8951 45.6701 65.9476 46.0557 65.9268 46.4408V48.3786H65.4478V46.582C65.4572 46.2898 65.4383 45.9974 65.3914 45.7089C65.3593 45.4849 65.2431 45.282 65.0667 45.142C64.8903 45.002 64.6673 44.9356 64.4438 44.9567C64.1575 44.953 63.8798 45.0556 63.6636 45.2448C63.4401 45.4359 63.2788 45.6903 63.2006 45.9751C63.1695 46.1029 63.153 46.2338 63.1515 46.3654V48.3819H62.6588V44.6118V44.6086ZM70.6884 44.6086V48.3786H70.2166V47.7294C70.0406 47.9618 69.8136 48.15 69.5533 48.2792C69.2931 48.4085 69.0068 48.4752 68.7167 48.4744C68.4601 48.481 68.205 48.4329 67.9681 48.3331C67.7312 48.2334 67.518 48.0844 67.3423 47.8958C67.1624 47.7081 67.0212 47.4863 66.9269 47.2432C66.8327 47.0002 66.7872 46.7407 66.7932 46.4798C66.7876 46.2204 66.8339 45.9625 66.9295 45.7215C67.0251 45.4806 67.168 45.2616 67.3495 45.0776C67.5283 44.892 67.7433 44.7457 67.9809 44.6479C68.2186 44.5502 68.4737 44.5031 68.7303 44.5096C69.023 44.5089 69.3114 44.5804 69.5705 44.7177C69.8295 44.855 70.0513 45.0541 70.2166 45.2975V44.6086H70.6884ZM68.769 44.9778C68.5052 44.9677 68.2441 45.0348 68.0173 45.1708C67.7904 45.3069 67.6075 45.5061 67.4904 45.7446C67.3565 45.975 67.2858 46.2371 67.2858 46.5041C67.2858 46.7711 67.3565 47.0333 67.4904 47.2637C67.6184 47.4995 67.8077 47.6959 68.0379 47.8317C68.2592 47.9638 68.5117 48.0336 68.769 48.0337C69.0305 48.0458 69.2899 47.982 69.5165 47.85C69.7431 47.7179 69.9274 47.5232 70.0476 47.2888C70.1788 47.0524 70.2468 46.7856 70.2448 46.5147C70.251 46.3133 70.2176 46.1126 70.1464 45.9243C70.0752 45.736 69.9678 45.5638 69.8302 45.4176C69.6935 45.2739 69.5285 45.1608 69.3456 45.0856C69.1628 45.0104 68.9664 44.9747 68.769 44.981V44.9778ZM74.9927 44.6086H75.4855V47.611C75.5034 48.0043 75.4558 48.3979 75.3446 48.7754C75.2093 49.1296 74.9605 49.4281 74.6377 49.6236C74.3149 49.8191 73.9366 49.9004 73.5628 49.8546C73.0208 49.8906 72.4867 49.7095 72.0765 49.3507C71.8868 49.1564 71.736 48.9272 71.6321 48.6756H72.1522C72.2886 48.9196 72.4917 49.119 72.7374 49.2499C72.9831 49.3808 73.2609 49.4378 73.5378 49.414C73.7958 49.4178 74.0516 49.3672 74.289 49.2655C74.5306 49.1671 74.7301 48.9861 74.8526 48.7543C74.9634 48.4675 75.0114 48.16 74.9935 47.8528V47.6605C74.8173 47.8899 74.59 48.0744 74.33 48.199C74.07 48.3236 73.7846 48.3848 73.4968 48.3778C73.1597 48.3777 72.8284 48.2885 72.5363 48.1189C72.2435 47.9558 72.0007 47.715 71.8342 47.4227C71.6671 47.1304 71.5806 46.7984 71.5838 46.4611C71.5865 45.946 71.79 45.4526 72.1505 45.0873C72.5109 44.7221 72.9994 44.5143 73.5105 44.5088C73.7976 44.5152 74.0797 44.586 74.3363 44.7162C74.5928 44.8463 74.8173 45.0324 74.9935 45.261V44.6118L74.9927 44.6086ZM73.5797 44.9778C73.3173 44.9686 73.0577 45.0336 72.83 45.1654C72.6024 45.2972 72.4158 45.4905 72.2915 45.7235C72.1533 45.955 72.0804 46.2202 72.0805 46.4903C72.0726 46.6837 72.1058 46.8766 72.1779 47.056C72.25 47.2354 72.3592 47.3972 72.4984 47.5306C72.7863 47.7963 73.1662 47.9376 73.5564 47.9242C73.7511 47.933 73.9457 47.9023 74.1285 47.834C74.3113 47.7657 74.4787 47.6612 74.6208 47.5266C74.757 47.3867 74.8632 47.2199 74.9324 47.0367C75.0017 46.8534 75.0327 46.6578 75.0233 46.4619C75.0388 46.2008 74.9802 45.9406 74.8545 45.7117C74.7287 45.4828 74.541 45.2947 74.3132 45.1693C74.0903 45.0422 73.8382 44.9762 73.5821 44.9778H73.5797ZM79.6553 47.129L80.0643 47.3424C79.8547 47.7966 79.48 48.1524 79.0176 48.3364C78.7823 48.4299 78.5315 48.4778 78.2785 48.4776C78.02 48.4866 77.7624 48.4418 77.5217 48.346C77.2811 48.2503 77.0627 48.1056 76.88 47.9209C76.6987 47.7342 76.5569 47.5124 76.4631 47.2689C76.3693 47.0254 76.3254 46.7652 76.3341 46.5041C76.3295 46.0402 76.4836 45.5889 76.7705 45.2261C76.9422 44.9961 77.1661 44.8111 77.4235 44.6864C77.6808 44.5617 77.9641 44.5011 78.2495 44.5096C78.5439 44.4993 78.8363 44.5603 79.1025 44.6873C79.3686 44.8144 79.6007 45.0039 79.7793 45.2399C80.0609 45.6096 80.2076 46.0658 80.1948 46.5317H76.8277C76.8173 46.925 76.9588 47.3069 77.2222 47.5972C77.3503 47.7388 77.5073 47.8508 77.6824 47.9254C77.8575 48.0001 78.0466 48.0357 78.2367 48.0297C78.6087 48.0467 78.9726 47.9169 79.2511 47.6678C79.4088 47.5056 79.5459 47.3243 79.6593 47.1281L79.6553 47.129ZM79.6553 46.1138C79.617 45.9017 79.5294 45.7017 79.3997 45.5302C79.2699 45.3587 79.1018 45.2205 78.909 45.1271C78.7048 45.0273 78.4805 44.9762 78.2536 44.9778C77.9269 44.9699 77.6081 45.0801 77.355 45.2885C77.1019 45.4968 76.9311 45.7896 76.8736 46.1138H79.6553ZM81.0853 44.6086H81.5643V45.2577C81.6946 45.0306 81.8815 44.8418 82.1064 44.7098C82.3314 44.5779 82.5866 44.5075 82.8469 44.5055C83.0159 44.4974 83.1846 44.5276 83.3405 44.5939C83.4965 44.6602 83.6356 44.7609 83.7479 44.8885C83.8712 45.0462 83.9668 45.2241 84.0305 45.4143C84.1282 45.2144 84.2645 45.0361 84.4314 44.8898C84.5982 44.7436 84.7923 44.6322 85.0023 44.5623C85.1327 44.5223 85.2685 44.5032 85.4048 44.5055C85.6495 44.4888 85.8929 44.5533 86.0977 44.6891C86.3026 44.8249 86.4577 45.0247 86.5393 45.2577C86.6484 45.5981 86.6961 45.9553 86.6802 46.3126V48.3713H86.1874V46.324C86.1936 46.1032 86.1818 45.8823 86.152 45.6635C86.1189 45.4668 86.0162 45.289 85.863 45.1628C85.7064 45.0399 85.5122 44.9759 85.3139 44.9818C85.0817 44.9797 84.8553 45.0547 84.6698 45.1953C84.4808 45.3359 84.3356 45.5278 84.2511 45.7487C84.1388 46.1234 84.0911 46.5148 84.1102 46.9058V48.3827H83.6376V46.4514C83.6434 46.2118 83.6294 45.9721 83.5957 45.7349C83.5832 45.5231 83.488 45.325 83.3309 45.1839C83.1738 45.0427 82.9677 44.9701 82.7575 44.9818C82.5258 44.9769 82.2988 45.0475 82.1101 45.1832C81.9215 45.3189 81.7815 45.5124 81.7108 45.7349C81.6004 46.0735 81.5526 46.4297 81.5699 46.7857V48.3827H81.0909V44.6126L81.0853 44.6086ZM90.842 47.129L91.2502 47.3424C91.0405 47.7966 90.6658 48.1524 90.2035 48.3364C89.9681 48.4299 89.7174 48.4778 89.4644 48.4776C89.2058 48.4867 88.9482 48.4419 88.7076 48.3461C88.4669 48.2503 88.2485 48.1056 88.0658 47.9209C87.8846 47.7342 87.7427 47.5124 87.6489 47.2689C87.5551 47.0254 87.5112 46.7652 87.52 46.5041C87.5152 46.0401 87.6696 45.5886 87.9571 45.2261C88.1287 44.996 88.3526 44.8108 88.61 44.6861C88.8674 44.5614 89.1507 44.5009 89.4362 44.5096C89.7305 44.4993 90.023 44.5602 90.2892 44.6873C90.5554 44.8143 90.7874 45.0038 90.966 45.2399C91.2479 45.6095 91.3949 46.0657 91.3822 46.5317H88.0151C88.0045 46.9249 88.1456 47.3068 88.4088 47.5972C88.537 47.7387 88.694 47.8507 88.8691 47.9254C89.0442 48 89.2333 48.0356 89.4233 48.0297C89.7953 48.0467 90.1592 47.9169 90.4378 47.6678C90.5955 47.5055 90.7329 47.3242 90.8468 47.1281L90.842 47.129ZM90.842 46.1138C90.8033 45.9017 90.7155 45.7017 90.5856 45.5303C90.4558 45.3588 90.2876 45.2207 90.0948 45.1271C89.8908 45.0274 89.6669 44.9763 89.4402 44.9778C89.1134 44.9697 88.7944 45.0798 88.5412 45.2882C88.2879 45.4966 88.117 45.7895 88.0594 46.1138H90.842ZM92.2719 44.6086H92.7647V45.2829C92.9166 45.048 93.1238 44.8545 93.3677 44.7196C93.6117 44.5847 93.8849 44.5125 94.1632 44.5096C94.4244 44.4938 94.6837 44.5624 94.9035 44.7054C95.1233 44.8485 95.2921 45.0584 95.3854 45.3048C95.5082 45.6701 95.5607 46.0557 95.54 46.4408V48.3786H95.0609V46.582C95.0703 46.2898 95.0514 45.9974 95.0046 45.7089C94.9725 45.4851 94.8564 45.2823 94.6801 45.1423C94.5039 45.0023 94.2811 44.9358 94.0577 44.9567C93.7711 44.9528 93.4931 45.0554 93.2767 45.2448C93.0532 45.4359 92.8919 45.6903 92.8138 45.9751C92.7827 46.1029 92.7662 46.2338 92.7647 46.3654V48.3819H92.2719V44.6118V44.6086ZM96.9917 43.2031H97.4844V44.6086H98.238V45.0208H97.4844V48.3786H96.9917V45.0208H96.329V44.6086H96.9917V43.2031Z" fill="white"/>
</g>
<defs>
<linearGradient id="paint0_linear_152_3719" x1="25.7173" y1="0" x2="25.7173" y2="85.9076" gradientUnits="userSpaceOnUse">
<stop stop-color="#A3F5B7"/>
<stop offset="1" stop-color="#41AAD2"/>
</linearGradient>
<clipPath id="clip0_152_3719">
<rect width="123" height="63" fill="white"/>
</clipPath>
</defs>
</svg>
