<svg width="102" height="52" viewBox="0 0 102 52" fill="none" xmlns="http://www.w3.org/2000/svg">
<g id="jrngtrnh 1" clip-path="url(#clip0_45_6956)">
<g id="&#208;&#161;&#208;&#179;&#209;&#128;&#209;&#131;&#208;&#191;&#208;&#191;&#208;&#184;&#209;&#128;&#208;&#190;&#208;&#178;&#208;&#176;&#209;&#130;&#209;&#140; 7116">
<path id="&#208;&#154;&#208;&#190;&#208;&#189;&#209;&#130;&#209;&#131;&#209;&#128; 7877" fill-rule="evenodd" clip-rule="evenodd" d="M7.40641 7.62939e-06C5.44198 7.62939e-06 3.558 0.782801 2.16894 2.17622C0.779876 3.56965 -0.000488281 5.45954 -0.000488281 7.43014C-0.000488281 9.40074 0.779876 11.2906 2.16894 12.6841C3.558 14.0775 5.44198 14.8603 7.40641 14.8603H8.51075C9.94715 14.8619 11.3243 15.4349 12.34 16.4537C13.3558 17.4726 13.9272 18.854 13.929 20.2949V44.5709C13.9243 46.4895 14.6593 48.3357 15.9803 49.7233C17.3012 51.111 19.1059 51.9326 21.0167 52.0163C22.9276 52.1 24.7968 51.4394 26.2333 50.1727C27.6698 48.9059 28.5625 47.131 28.7247 45.2192C29.0222 45.0183 29.2486 44.728 29.3714 44.39C29.4942 44.052 29.5071 43.6837 29.4082 43.338C29.3093 42.9922 29.1037 42.6867 28.8209 42.4654C28.5382 42.2442 28.1928 42.1185 27.8344 42.1064C27.476 42.0943 27.123 42.1965 26.826 42.3982C26.5291 42.5999 26.3035 42.8908 26.1817 43.2292C26.0599 43.5675 26.0481 43.9359 26.148 44.2814C26.2479 44.6269 26.4543 44.9318 26.7377 45.1522C26.5887 46.5366 25.9163 47.811 24.8591 48.7132C23.8018 49.6154 22.4401 50.0769 21.054 50.0026C19.6679 49.9282 18.3629 49.3238 17.4076 48.3137C16.4522 47.3036 15.9191 45.9646 15.918 44.5722V20.2949C15.9155 18.325 15.1343 16.4365 13.7457 15.0437C12.357 13.6508 10.4744 12.8673 8.51075 12.865H7.40641C6.69488 12.865 5.99032 12.7245 5.33296 12.4513C4.67559 12.1782 4.07825 11.7778 3.57512 11.2731C3.072 10.7684 2.6729 10.1692 2.40061 9.50978C2.12832 8.85035 1.9882 8.14358 1.9882 7.42981C1.9882 6.71605 2.12832 6.00928 2.40061 5.34985C2.6729 4.69042 3.072 4.09125 3.57512 3.58654C4.07825 3.08183 4.67559 2.68149 5.33296 2.40834C5.99032 2.13519 6.69488 1.9946 7.40641 1.9946H35.2486C36.6856 1.9946 38.0638 2.56724 39.0799 3.58654C40.096 4.60584 40.6668 5.9883 40.6668 7.42981C40.6668 8.87132 40.096 10.2538 39.0799 11.2731C38.0638 12.2924 36.6856 12.865 35.2486 12.865H34.1763C32.2127 12.8673 30.3301 13.6509 28.9416 15.0437C27.5531 16.4366 26.7721 18.3251 26.7698 20.2949V33.7098L26.7744 35.3648C26.7744 35.9338 26.5491 36.4794 26.148 36.8817C25.747 37.284 25.2031 37.5101 24.6359 37.5101C24.0687 37.5101 23.5247 37.284 23.1236 36.8817C22.7226 36.4794 22.4973 35.9338 22.4973 35.3648V18.4101L22.5213 13.8175C22.5185 11.8476 21.7369 9.95927 20.3481 8.56668C18.9592 7.17409 17.0765 6.39092 15.1128 6.38897H10.9064C10.6965 6.09956 10.4006 5.88425 10.0613 5.77381C9.72191 5.66338 9.35641 5.66352 9.01713 5.77422C8.67785 5.88493 8.38221 6.1005 8.17255 6.39008C7.96289 6.67966 7.84996 7.02838 7.84996 7.38628C7.84996 7.74417 7.96289 8.0929 8.17255 8.38248C8.38221 8.67206 8.67785 8.88763 9.01713 8.99833C9.35641 9.10904 9.72191 9.10921 10.0613 8.99878C10.4006 8.88835 10.6965 8.67299 10.9064 8.38358H15.1128C16.5485 8.38482 17.9252 8.95709 18.941 9.97495C19.9568 10.9928 20.5288 12.3732 20.5316 13.8134L20.5069 18.4061V35.3648C20.5069 36.4629 20.9418 37.5159 21.7158 38.2924C22.4898 39.0688 23.5396 39.505 24.6342 39.505C25.7288 39.505 26.7786 39.0688 27.5526 38.2924C28.3266 37.5159 28.7615 36.4629 28.7615 35.3648L28.7568 20.2949C28.7585 18.854 29.33 17.4726 30.3457 16.4537C31.3615 15.4349 32.7386 14.8619 34.175 14.8603H35.2473C37.2117 14.8603 39.0957 14.0775 40.4848 12.6841C41.8738 11.2906 42.6542 9.40074 42.6542 7.43014C42.6542 5.45954 41.8738 3.56965 40.4848 2.17622C39.0957 0.782801 37.2117 7.62939e-06 35.2473 7.62939e-06H7.40641Z" fill="url(#paint0_linear_45_6956)"/>
<path id="&#208;&#154;&#208;&#190;&#208;&#189;&#209;&#130;&#209;&#131;&#209;&#128; 7878" fill-rule="evenodd" clip-rule="evenodd" d="M38.8877 20.2888V18.745H47.5622V20.2915H44.0388V34.6059H42.4311V20.2888H38.8877ZM61.261 22.8735V34.6033H59.786V32.5939C59.2358 33.3176 58.526 33.9036 57.7122 34.306C56.8985 34.7084 56.0029 34.9163 55.0956 34.9134C54.2938 34.9333 53.4968 34.7833 52.7568 34.4731C52.0167 34.1628 51.3503 33.6994 50.8011 33.113C50.2381 32.5291 49.7963 31.8389 49.5014 31.0823C49.2065 30.3258 49.0643 29.518 49.0832 28.7059C49.0652 27.8986 49.21 27.096 49.509 26.3462C49.808 25.5965 50.255 24.9151 50.8231 24.343C51.3808 23.7632 52.0522 23.3058 52.7951 22.9997C53.538 22.6936 54.3361 22.5455 55.139 22.5647C56.0541 22.5627 56.9559 22.785 57.7658 23.2124C58.5757 23.6397 59.2692 24.2592 59.786 25.0168V22.8735H61.261ZM55.2605 24.0222C54.4361 23.9918 53.6205 24.2007 52.9115 24.6239C52.2026 25.0471 51.6304 25.6665 51.2638 26.4079C50.8454 27.1249 50.6248 27.9407 50.6248 28.7715C50.6248 29.6024 50.8454 30.4182 51.2638 31.1352C51.6654 31.8646 52.2562 32.4714 52.9737 32.8913C53.6658 33.3034 54.4557 33.5209 55.2605 33.5209C56.0782 33.5589 56.8895 33.3605 57.5981 32.9493C58.3066 32.5382 58.8825 31.9315 59.2572 31.2015C59.668 30.4663 59.8805 29.6364 59.8735 28.7936C59.8934 28.1666 59.7891 27.5419 59.5668 26.9556C59.3444 26.3693 59.0084 25.833 58.5782 25.3778C58.1513 24.9304 57.6352 24.5782 57.0636 24.3441C56.492 24.1101 55.8776 23.9995 55.2605 24.0195V24.0222ZM64.4077 18.3451H65.9053V34.6033H64.4077V18.3431V18.3451ZM78.8757 30.7159L80.1536 31.3783C79.4962 32.7936 78.3211 33.9009 76.872 34.4706C76.1359 34.763 75.3514 34.9129 74.5598 34.9127C73.7514 34.9411 72.9459 34.8017 72.1937 34.5033C71.4416 34.2049 70.7589 33.754 70.1885 33.1787C69.6219 32.5979 69.1785 31.9079 68.8852 31.1504C68.5919 30.393 68.4547 29.5837 68.4819 28.7715C68.4671 27.3281 68.9494 25.9237 69.8473 24.7957C70.3837 24.0796 71.0837 23.5031 71.8884 23.1147C72.6932 22.7264 73.5791 22.5375 74.4717 22.5641C75.3915 22.5337 76.3052 22.7246 77.1365 23.1208C77.9678 23.5169 78.6926 24.1069 79.2502 24.8413C80.131 25.9912 80.5899 27.4104 80.5495 28.8599H70.0236C69.9905 30.0831 70.4327 31.2712 71.2568 32.1733C71.6566 32.6148 72.1472 32.9639 72.6946 33.1965C73.2421 33.4292 73.8333 33.5399 74.4276 33.5209C75.5905 33.5732 76.7281 33.1691 77.5991 32.3943C78.0916 31.8895 78.5203 31.3258 78.8757 30.7159ZM78.8757 27.5566C78.7555 26.8961 78.4811 26.2735 78.0749 25.7398C77.6687 25.2062 77.1423 24.7766 76.5388 24.4863C75.901 24.1754 75.2001 24.0165 74.491 24.0222C72.3184 24.0222 70.8798 25.2003 70.1751 27.5566H78.8757ZM83.3491 22.8735H84.8901V24.9739C85.365 24.2428 86.0124 23.6405 86.775 23.2205C87.5375 22.8004 88.3915 22.5757 89.2614 22.5661C90.0779 22.517 90.8887 22.7304 91.5759 23.1754C92.2631 23.6204 92.7909 24.2736 93.0825 25.0402C93.4668 26.1767 93.6311 27.3763 93.5666 28.5746V34.6026H92.069V29.014C92.0984 28.1046 92.0394 27.1946 91.8927 26.2967C91.793 25.5996 91.43 24.9676 90.8789 24.5313C90.3278 24.095 89.6307 23.8878 88.9316 23.9525C88.0362 23.9412 87.1677 24.2596 86.4905 24.8473C85.794 25.4405 85.2903 26.2291 85.0444 27.1118C84.9464 27.5095 84.8947 27.9172 84.8901 28.3268V34.5999H83.3498L83.3491 22.8735ZM98.1048 18.4999H99.6458V22.8735H102.002V24.1548H99.6412V34.6033H98.1055V24.1548H96.0357V22.8735H98.1055L98.1048 18.4999Z" fill="#111111"/>
<path id="&#208;&#154;&#208;&#190;&#208;&#189;&#209;&#130;&#209;&#131;&#209;&#128; 7879" fill-rule="evenodd" clip-rule="evenodd" d="M42.4922 36.8195H42.8928V37.3554C43.0008 37.168 43.1556 37.0122 43.3421 36.9033C43.5285 36.7944 43.74 36.7362 43.9557 36.7345C44.096 36.7278 44.236 36.7527 44.3654 36.8074C44.4948 36.8621 44.6103 36.9452 44.7035 37.0506C44.8053 37.181 44.8844 37.3277 44.9372 37.4846C45.0185 37.3197 45.1316 37.1727 45.2699 37.052C45.4082 36.9312 45.5691 36.8393 45.7431 36.7814C45.8513 36.7484 45.9639 36.7326 46.077 36.7345C46.2798 36.7207 46.4815 36.774 46.6513 36.8861C46.821 36.9982 46.9495 37.163 47.017 37.3554C47.1075 37.6363 47.1471 37.9312 47.1339 38.2261V39.9253H46.7253V38.2355C46.7305 38.0532 46.7206 37.8709 46.6959 37.6903C46.6687 37.5278 46.5835 37.3809 46.4562 37.277C46.3265 37.1754 46.1654 37.1225 46.0008 37.1276C45.8083 37.1258 45.6206 37.1877 45.4667 37.3038C45.3096 37.4196 45.1889 37.5781 45.1188 37.7606C45.0257 38.0699 44.9862 38.393 45.002 38.7157V39.9347H44.6107V38.3406C44.6155 38.1428 44.6036 37.945 44.5753 37.7492C44.5652 37.5744 44.4863 37.4107 44.356 37.2942C44.2257 37.1777 44.0546 37.1178 43.8803 37.1276C43.6881 37.1234 43.4998 37.1817 43.3433 37.2937C43.1869 37.4057 43.0708 37.5655 43.0123 37.7492C42.9204 38.0286 42.8808 38.3227 42.8955 38.6166V39.9347H42.4949V36.8229L42.4922 36.8195ZM51.0672 36.8195V39.9313H50.6759V39.3955C50.5299 39.5874 50.3415 39.7428 50.1256 39.8494C49.9097 39.9561 49.6721 40.0112 49.4314 40.0104C49.2187 40.0157 49.0073 39.976 48.811 39.8937C48.6147 39.8114 48.4379 39.6884 48.2923 39.5328C48.143 39.378 48.0259 39.1949 47.9477 38.9943C47.8696 38.7936 47.8319 38.5794 47.837 38.364C47.8321 38.1499 47.8705 37.937 47.9498 37.7381C48.0291 37.5392 48.1476 37.3584 48.2983 37.2067C48.4466 37.0534 48.6248 36.9327 48.8219 36.852C49.019 36.7713 49.2306 36.7324 49.4434 36.7378C49.6861 36.7373 49.9253 36.7963 50.1401 36.9096C50.3549 37.023 50.5389 37.1873 50.6759 37.3882V36.8195H51.0672ZM49.4754 37.1243C49.2567 37.116 49.0402 37.1713 48.8521 37.2836C48.664 37.3959 48.5122 37.5604 48.4152 37.7572C48.3041 37.9474 48.2455 38.1638 48.2455 38.3841C48.2455 38.6045 48.3041 38.8209 48.4152 39.011C48.5213 39.2056 48.6779 39.3676 48.8685 39.4799C49.0523 39.589 49.2619 39.6466 49.4754 39.6467C49.6923 39.6566 49.9074 39.604 50.0953 39.495C50.2833 39.386 50.4361 39.2253 50.5357 39.0318C50.6446 38.8367 50.7009 38.6165 50.6993 38.3928C50.7044 38.2266 50.6767 38.061 50.6177 37.9056C50.5587 37.7501 50.4695 37.608 50.3554 37.4873C50.2421 37.3687 50.1053 37.2753 49.9536 37.2133C49.802 37.1512 49.6391 37.1218 49.4754 37.127V37.1243ZM51.9612 36.8195H52.3698V37.3761C52.4959 37.1822 52.6676 37.0225 52.87 36.9112C53.0723 36.7998 53.2988 36.7403 53.5296 36.7378C53.7462 36.7248 53.9612 36.7815 54.1435 36.8995C54.3258 37.0176 54.4658 37.1909 54.5431 37.3942C54.645 37.6957 54.6885 38.014 54.6713 38.3319V39.9313H54.2741V38.4484C54.2818 38.2073 54.2662 37.9659 54.2273 37.7278C54.2007 37.5429 54.1043 37.3754 53.958 37.2598C53.8118 37.1443 53.6268 37.0895 53.4415 37.1069C53.204 37.1039 52.9738 37.1885 52.7945 37.3446C52.6091 37.5024 52.4754 37.7124 52.4106 37.9474C52.3848 38.0529 52.3711 38.161 52.3698 38.2696V39.934H51.9612V36.8222V36.8195ZM58.62 36.8195V39.9313H58.2287V39.3955C58.0827 39.5873 57.8945 39.7426 57.6787 39.8493C57.4629 39.956 57.2254 40.0111 56.9848 40.0104C56.772 40.0158 56.5605 39.9761 56.3641 39.8938C56.1677 39.8115 55.9908 39.6885 55.8451 39.5328C55.6959 39.3779 55.5788 39.1948 55.5007 38.9942C55.4225 38.7936 55.3848 38.5794 55.3897 38.364C55.3851 38.1499 55.4235 37.9371 55.5028 37.7382C55.5821 37.5393 55.7006 37.3585 55.8511 37.2067C55.9994 37.0535 56.1777 36.9327 56.3747 36.852C56.5718 36.7713 56.7834 36.7325 56.9962 36.7378C57.2389 36.7373 57.4781 36.7963 57.6929 36.9096C57.9077 37.023 58.0916 37.1873 58.2287 37.3882V36.8195H58.62ZM57.0282 37.1243C56.8095 37.116 56.593 37.1713 56.4049 37.2836C56.2168 37.3959 56.065 37.5604 55.968 37.7572C55.8569 37.9474 55.7983 38.1638 55.7983 38.3841C55.7983 38.6045 55.8569 38.8209 55.968 39.011C56.0741 39.2057 56.2311 39.3678 56.422 39.4799C56.6055 39.589 56.8149 39.6466 57.0282 39.6467C57.2451 39.6566 57.4602 39.604 57.6481 39.495C57.836 39.386 57.9889 39.2253 58.0885 39.0318C58.1973 38.8367 58.2537 38.6165 58.2521 38.3928C58.2572 38.2266 58.2295 38.061 58.1705 37.9056C58.1115 37.7501 58.0223 37.608 57.9082 37.4873C57.7949 37.3687 57.658 37.2753 57.5064 37.2133C57.3548 37.1512 57.1919 37.1218 57.0282 37.127V37.1243ZM62.1894 36.8195H62.598V39.2977C62.6129 39.6224 62.5734 39.9473 62.4812 40.2588C62.3689 40.5512 62.1626 40.7976 61.895 40.9589C61.6273 41.1203 61.3136 41.1874 61.0036 41.1496C60.5542 41.1793 60.1112 41.0298 59.7711 40.7337C59.6138 40.5733 59.4886 40.3842 59.4025 40.1765H59.8338C59.9469 40.3779 60.1154 40.5424 60.3191 40.6505C60.5229 40.7585 60.7533 40.8056 60.9829 40.786C61.1968 40.7891 61.409 40.7473 61.6058 40.6634C61.8062 40.5821 61.9716 40.4327 62.0732 40.2414C62.165 40.0047 62.2049 39.7509 62.1901 39.4973V39.3386C62.0439 39.5279 61.8554 39.6802 61.6398 39.7831C61.4242 39.8859 61.1875 39.9365 60.9488 39.9307C60.6693 39.9306 60.3946 39.8569 60.1523 39.717C59.9096 39.5824 59.7082 39.3836 59.5701 39.1423C59.4315 38.9011 59.3598 38.627 59.3624 38.3486C59.3647 37.9235 59.5335 37.5162 59.8324 37.2147C60.1313 36.9132 60.5364 36.7417 60.9602 36.7372C61.1983 36.7425 61.4322 36.8009 61.645 36.9083C61.8577 37.0157 62.0439 37.1694 62.1901 37.358V36.8222L62.1894 36.8195ZM61.0176 37.1243C60.8 37.1167 60.5847 37.1704 60.3959 37.2791C60.2071 37.3879 60.0524 37.5475 59.9493 37.7398C59.8347 37.9309 59.7743 38.1497 59.7744 38.3728C59.7678 38.5324 59.7954 38.6916 59.8551 38.8397C59.9149 38.9877 60.0055 39.1213 60.1209 39.2314C60.3597 39.4507 60.6747 39.5674 60.9983 39.5562C61.1598 39.5635 61.3211 39.5382 61.4727 39.4818C61.6243 39.4254 61.7631 39.3392 61.8809 39.2281C61.9939 39.1126 62.0819 38.9749 62.1394 38.8237C62.1968 38.6725 62.2225 38.511 62.2148 38.3493C62.2276 38.1338 62.179 37.919 62.0747 37.7301C61.9705 37.5412 61.8148 37.3859 61.6259 37.2824C61.441 37.1775 61.232 37.123 61.0196 37.1243H61.0176ZM66.0559 38.8999L66.3951 39.076C66.2212 39.4509 65.9105 39.7446 65.5271 39.8965C65.3319 39.9736 65.124 40.0132 64.9142 40.013C64.6998 40.0205 64.4861 39.9835 64.2866 39.9044C64.0871 39.8254 63.9059 39.706 63.7544 39.5536C63.6041 39.3994 63.4865 39.2164 63.4087 39.0154C63.3309 38.8144 63.2945 38.5996 63.3017 38.3841C63.2979 38.0012 63.4257 37.6287 63.6636 37.3292C63.806 37.1394 63.9917 36.9867 64.2051 36.8838C64.4185 36.7809 64.6535 36.7308 64.8902 36.7378C65.1342 36.7294 65.3768 36.7797 65.5975 36.8846C65.8182 36.9894 66.0106 37.1458 66.1587 37.3406C66.3923 37.6458 66.5139 38.0223 66.5033 38.4069H63.711C63.7025 38.7315 63.8197 39.0467 64.0382 39.2863C64.1444 39.4032 64.2746 39.4956 64.4198 39.5573C64.5651 39.6189 64.7219 39.6482 64.8795 39.6433C65.188 39.6574 65.4898 39.5502 65.7207 39.3446C65.8515 39.2107 65.9652 39.0611 66.0593 38.8992L66.0559 38.8999ZM66.0559 38.062C66.0241 37.8869 65.9515 37.7218 65.8439 37.5802C65.7363 37.4387 65.5969 37.3247 65.437 37.2475C65.2676 37.1652 65.0817 37.123 64.8935 37.1243C64.6226 37.1178 64.3582 37.2088 64.1484 37.3807C63.9385 37.5527 63.7968 37.7944 63.7491 38.062H66.0559ZM67.2417 36.8195H67.639V37.3554C67.747 37.1679 67.902 37.012 68.0885 36.9031C68.2751 36.7942 68.4868 36.7361 68.7026 36.7345C68.8428 36.7278 68.9827 36.7527 69.1119 36.8075C69.2412 36.8622 69.3567 36.9453 69.4497 37.0506C69.552 37.1808 69.6313 37.3276 69.6841 37.4846C69.7652 37.3196 69.8782 37.1724 70.0165 37.0517C70.1549 36.931 70.3158 36.8391 70.49 36.7814C70.5981 36.7484 70.7108 36.7326 70.8238 36.7345C71.0267 36.7207 71.2285 36.7739 71.3984 36.886C71.5683 36.9981 71.6969 37.163 71.7646 37.3554C71.855 37.6363 71.8946 37.9312 71.8814 38.2261V39.9253H71.4728V38.2355C71.4779 38.0532 71.4681 37.8709 71.4434 37.6903C71.416 37.528 71.3308 37.3811 71.2037 37.277C71.0739 37.1755 70.9129 37.1227 70.7484 37.1276C70.5559 37.1258 70.3681 37.1877 70.2142 37.3038C70.0576 37.4198 69.9371 37.5783 69.867 37.7606C69.7739 38.0699 69.7344 38.393 69.7502 38.7157V39.9347H69.3583V38.3406C69.3631 38.1428 69.3515 37.945 69.3235 37.7492C69.3132 37.5744 69.2343 37.4109 69.104 37.2944C68.9737 37.1779 68.8027 37.1179 68.6285 37.1276C68.4363 37.1235 68.248 37.1818 68.0916 37.2938C67.9352 37.4058 67.819 37.5656 67.7605 37.7492C67.6689 38.0287 67.6293 38.3227 67.6437 38.6166V39.9347H67.2464V36.8229L67.2417 36.8195ZM75.3327 38.8999L75.6712 39.076C75.4973 39.4509 75.1866 39.7446 74.8032 39.8965C74.608 39.9736 74.4 40.0132 74.1903 40.013C73.9758 40.0205 73.7622 39.9836 73.5627 39.9045C73.3631 39.8255 73.182 39.706 73.0305 39.5536C72.8802 39.3994 72.7626 39.2164 72.6848 39.0154C72.607 38.8144 72.5706 38.5996 72.5778 38.3841C72.5738 38.0011 72.7019 37.6284 72.9404 37.3292C73.0826 37.1393 73.2683 36.9865 73.4817 36.8835C73.6952 36.7806 73.9302 36.7306 74.1669 36.7378C74.411 36.7293 74.6535 36.7796 74.8743 36.8845C75.095 36.9894 75.2874 37.1458 75.4355 37.3406C75.6693 37.6457 75.7912 38.0223 75.7807 38.4069H72.9884C72.9796 38.7314 73.0967 39.0467 73.3149 39.2863C73.4212 39.4032 73.5514 39.4956 73.6966 39.5572C73.8418 39.6188 73.9986 39.6482 74.1562 39.6433C74.4647 39.6574 74.7665 39.5502 74.9975 39.3446C75.1283 39.2106 75.2422 39.061 75.3367 38.8992L75.3327 38.8999ZM75.3327 38.062C75.3006 37.8869 75.2278 37.7218 75.1201 37.5803C75.0124 37.4388 74.873 37.3248 74.713 37.2475C74.5439 37.1652 74.3582 37.1231 74.1702 37.1243C73.8992 37.1176 73.6347 37.2085 73.4247 37.3805C73.2146 37.5525 73.0729 37.7943 73.0252 38.062H75.3327ZM76.5184 36.8195H76.9271V37.3761C77.0531 37.1822 77.2249 37.0225 77.4272 36.9112C77.6295 36.7998 77.8561 36.7403 78.0868 36.7378C78.3034 36.7248 78.5185 36.7815 78.7008 36.8995C78.883 37.0176 79.023 37.1909 79.1004 37.3942C79.2022 37.6957 79.2457 38.014 79.2286 38.3319V39.9313H78.8313V38.4484C78.8391 38.2073 78.8234 37.9659 78.7846 37.7278C78.758 37.543 78.6617 37.3756 78.5155 37.2601C78.3694 37.1445 78.1846 37.0897 77.9994 37.1069C77.7617 37.1037 77.5312 37.1883 77.3517 37.3446C77.1664 37.5024 77.0326 37.7124 76.9678 37.9474C76.942 38.0529 76.9283 38.161 76.9271 38.2696V39.934H76.5184V36.8222V36.8195ZM80.4324 35.6595H80.841V36.8195H81.466V37.1598H80.841V39.9313H80.4324V37.1598H79.8829V36.8195H80.4324V35.6595Z" fill="#111111"/>
</g>
</g>
<defs>
<linearGradient id="paint0_linear_45_6956" x1="21.3269" y1="7.62939e-06" x2="21.3269" y2="70.9079" gradientUnits="userSpaceOnUse">
<stop stop-color="#A3F5B7"/>
<stop offset="1" stop-color="#41AAD2"/>
</linearGradient>
<clipPath id="clip0_45_6956">
<rect width="102" height="52" fill="white"/>
</clipPath>
</defs>
</svg>
