<svg width="20" height="20" viewBox="0 0 20 20" fill="none" xmlns="http://www.w3.org/2000/svg">
<path fill-rule="evenodd" clip-rule="evenodd" d="M2.50814 4.86483C2.50814 4.40459 2.88123 4.03149 3.34147 4.03149H16.6667C17.1269 4.03149 17.5 4.40459 17.5 4.86483V14.3017C17.5 15.2222 16.7538 15.9683 15.8333 15.9683H4.16667C3.24619 15.9683 2.5 15.2222 2.5 14.3017V5.13501C2.5 5.09533 2.50277 5.05629 2.50814 5.01809V4.86483ZM4.16667 6.71796V14.3017H15.8333V6.71824L11.7679 10.7837C10.7916 11.76 9.20869 11.76 8.23238 10.7837L4.16667 6.71796ZM5.47694 5.6712H14.5234L10.5894 9.60515C10.264 9.93059 9.73632 9.93059 9.41089 9.60515L5.47694 5.6712Z" fill="#0D3B3F"/>
</svg>
