<svg width="20" height="20" viewBox="0 0 20 20" fill="none" xmlns="http://www.w3.org/2000/svg">
<g id="menu">
<g id="menu_2">
<path d="M1.66699 5C1.66699 4.53976 2.04009 4.16666 2.50033 4.16666H17.5003C17.9606 4.16666 18.3337 4.53976 18.3337 5C18.3337 5.46023 17.9606 5.83333 17.5003 5.83333H2.50033C2.04009 5.83333 1.66699 5.46023 1.66699 5Z" fill="#333333"/>
<path d="M1.66699 10.0269C1.66699 9.56662 2.04009 9.19352 2.50033 9.19352H17.5003C17.9606 9.19352 18.3337 9.56662 18.3337 10.0269C18.3337 10.4871 17.9606 10.8602 17.5003 10.8602H2.50033C2.04009 10.8602 1.66699 10.4871 1.66699 10.0269Z" fill="#333333"/>
<path d="M2.50033 14.2204C2.04009 14.2204 1.66699 14.5935 1.66699 15.0537C1.66699 15.5139 2.04009 15.887 2.50033 15.887H17.5003C17.9606 15.887 18.3337 15.5139 18.3337 15.0537C18.3337 14.5935 17.9606 14.2204 17.5003 14.2204H2.50033Z" fill="#333333"/>
</g>
</g>
</svg>
