<svg width="16" height="16" viewBox="0 0 16 16" fill="none" xmlns="http://www.w3.org/2000/svg">
<g id="more-vertical-alt">
<g id="more-vertical-alt_2">
<path d="M9.33268 4.00001C9.33268 4.73638 8.73573 5.33334 7.99935 5.33334C7.26297 5.33334 6.66602 4.73638 6.66602 4.00001C6.66602 3.26363 7.26297 2.66667 7.99935 2.66667C8.73573 2.66667 9.33268 3.26363 9.33268 4.00001Z" fill="#333333"/>
<path d="M9.33268 8C9.33268 8.73638 8.73573 9.33334 7.99935 9.33334C7.26297 9.33334 6.66602 8.73638 6.66602 8C6.66602 7.26363 7.26297 6.66667 7.99935 6.66667C8.73573 6.66667 9.33268 7.26363 9.33268 8Z" fill="#333333"/>
<path d="M9.33268 12C9.33268 12.7364 8.73573 13.3333 7.99935 13.3333C7.26297 13.3333 6.66602 12.7364 6.66602 12C6.66602 11.2636 7.26297 10.6667 7.99935 10.6667C8.73573 10.6667 9.33268 11.2636 9.33268 12Z" fill="#333333"/>
</g>
</g>
</svg>
