<svg width="100" height="90" viewBox="0 0 100 100" fill="none" xmlns="http://www.w3.org/2000/svg">
<circle cx="50" cy="50" r="50" fill="#F4F7F4"/>
<path d="M54.9486 50.9467C56.2558 49.9182 57.2099 48.5079 57.6783 46.9119C58.1466 45.316 58.1058 43.6137 57.5617 42.042C57.0175 40.4702 55.997 39.1072 54.642 38.1425C53.2871 37.1778 51.6652 36.6593 50.0019 36.6593C48.3387 36.6593 46.7168 37.1778 45.3619 38.1425C44.0069 39.1072 42.9864 40.4702 42.4422 42.042C41.8981 43.6137 41.8573 45.316 42.3256 46.9119C42.794 48.5079 43.7481 49.9182 45.0553 50.9467C42.8154 51.8441 40.861 53.3325 39.4005 55.2532C37.9399 57.174 37.028 59.4551 36.7619 61.8533C36.7427 62.0284 36.7581 62.2056 36.8073 62.3747C36.8565 62.5439 36.9386 62.7017 37.0488 62.8391C37.2713 63.1167 37.595 63.2944 37.9486 63.3333C38.3022 63.3722 38.6568 63.2691 38.9344 63.0465C39.2119 62.824 39.3897 62.5003 39.4286 62.1467C39.7214 59.5403 40.9642 57.1331 42.9196 55.3851C44.875 53.637 47.4058 52.6707 50.0286 52.6707C52.6514 52.6707 55.1823 53.637 57.1377 55.3851C59.093 57.1331 60.3358 59.5403 60.6286 62.1467C60.6649 62.4743 60.8212 62.7769 61.0674 62.996C61.3137 63.2152 61.6323 63.3353 61.9619 63.3333H62.1086C62.4581 63.2931 62.7776 63.1164 62.9974 62.8417C63.2171 62.5669 63.3194 62.2165 63.2819 61.8667C63.0146 59.4616 62.0978 57.1746 60.6297 55.2509C59.1617 53.3272 57.1978 51.8393 54.9486 50.9467ZM50.0019 50C48.9471 50 47.916 49.6872 47.0389 49.1012C46.1618 48.5151 45.4783 47.6822 45.0746 46.7076C44.6709 45.7331 44.5653 44.6608 44.7711 43.6262C44.9769 42.5916 45.4848 41.6413 46.2307 40.8954C46.9766 40.1496 47.9269 39.6416 48.9615 39.4358C49.996 39.23 51.0684 39.3356 52.0429 39.7393C53.0175 40.143 53.8504 40.8266 54.4365 41.7036C55.0225 42.5807 55.3353 43.6118 55.3353 44.6667C55.3353 46.0812 54.7734 47.4377 53.7732 48.4379C52.773 49.4381 51.4164 50 50.0019 50Z" fill="#0D3B3F"/>
</svg>
