<svg width="14" height="15" viewBox="0 0 14 15" fill="none" xmlns="http://www.w3.org/2000/svg">
<path d="M5.92665 0.91705C6.14729 -0.305683 7.85271 -0.305683 8.07335 0.91705C8.23118 1.79171 9.26998 2.13846 9.89811 1.52615C10.7762 0.670164 12.1559 1.69997 11.6348 2.82242C11.2621 3.62534 11.9041 4.53313 12.7626 4.41705C13.9627 4.25478 14.4898 5.92104 13.426 6.51446C12.665 6.93895 12.665 8.06105 13.426 8.48554C14.4898 9.07896 13.9627 10.7452 12.7626 10.5829C11.9041 10.4669 11.2621 11.3747 11.6348 12.1776C12.1559 13.3 10.7762 14.3298 9.89811 13.4739C9.26998 12.8615 8.23118 13.2083 8.07335 14.083C7.85271 15.3057 6.14729 15.3057 5.92665 14.0829C5.76882 13.2083 4.73002 12.8615 4.10189 13.4739C3.22379 14.3298 1.84407 13.3 2.36517 12.1776C2.73792 11.3747 2.09591 10.4669 1.2374 10.5829C0.0372558 10.7452 -0.489751 9.07896 0.574036 8.48554C1.335 8.06105 1.335 6.93895 0.574036 6.51446C-0.48975 5.92104 0.0372558 4.25478 1.2374 4.41705C2.09591 4.53313 2.73792 3.62534 2.36517 2.82242C1.84407 1.69997 3.22379 0.670164 4.10189 1.52615C4.73002 2.13846 5.76882 1.79171 5.92665 0.91705Z" fill="#37A67E"/>
<path d="M9.79585 6.00411C9.75712 5.96506 9.71103 5.93406 9.66026 5.9129C9.60949 5.89175 9.55502 5.88086 9.50002 5.88086C9.44502 5.88086 9.39055 5.89175 9.33978 5.9129C9.289 5.93406 9.24292 5.96506 9.20419 6.00411L6.10002 9.11244L4.79585 7.80411C4.75564 7.76526 4.70816 7.73471 4.65614 7.71421C4.60411 7.69371 4.54856 7.68365 4.49265 7.68462C4.43675 7.68559 4.38157 7.69756 4.33029 7.71985C4.27901 7.74214 4.23262 7.77431 4.19377 7.81453C4.15492 7.85474 4.12437 7.90222 4.10387 7.95424C4.08337 8.00626 4.07332 8.06182 4.07428 8.11772C4.07525 8.17363 4.08722 8.2288 4.10951 8.28009C4.1318 8.33137 4.16397 8.37776 4.20419 8.41661L5.80419 10.0166C5.84292 10.0557 5.889 10.0867 5.93978 10.1078C5.99055 10.129 6.04501 10.1399 6.10002 10.1399C6.15502 10.1399 6.20949 10.129 6.26026 10.1078C6.31104 10.0867 6.35712 10.0557 6.39585 10.0166L9.79585 6.61661C9.83815 6.57759 9.8719 6.53024 9.89499 6.47753C9.91807 6.42482 9.92999 6.3679 9.92999 6.31036C9.92999 6.25282 9.91807 6.1959 9.89499 6.14319C9.8719 6.09048 9.83815 6.04313 9.79585 6.00411V6.00411Z" fill="white"/>
</svg>
