<svg width="65" height="20" viewBox="0 0 65 20" fill="none" xmlns="http://www.w3.org/2000/svg">
<g id="One_ID 1" clip-path="url(#clip0_2005_44403)">
<path id="Vector" d="M56.3547 -0.00107359H45.7965C40.3313 -0.114723 39.1257 3.53683 39.1257 6.44284V13.4709C39.1257 19.4273 42.8135 19.9967 45.6984 19.9967H56.8757C62.6126 19.9967 64.4712 18.6795 64.4622 13.322V6.61673C64.4599 1.91165 62.5878 -0.00107359 56.3547 -0.00107359ZM47.6302 15.653H44.662V4.56308H47.6302V15.653ZM54.0766 15.653C54.0461 15.653 54.0179 15.653 53.9875 15.653H49.5249V4.56308H54.0766C55.5359 4.56308 56.9354 5.14728 57.9673 6.18716C58.9992 7.22704 59.579 8.63742 59.579 10.108C59.579 11.5786 58.9992 12.989 57.9673 14.0289C56.9354 15.0688 55.5359 15.653 54.0766 15.653Z" fill="#4825C2"/>
<path id="Vector_2" d="M55.6146 10.7352C55.2504 10.5454 55.3801 10.2647 55.5447 10.0692C55.6119 9.98815 55.6875 9.91461 55.7703 9.8499C56.0765 9.4919 56.2429 9.03375 56.2383 8.56112C56.2383 7.54964 55.512 6.73022 54.6154 6.73022C53.7189 6.73022 52.9926 7.54964 52.9926 8.56112C52.9894 8.82897 53.0418 9.09453 53.1465 9.34075C53.2512 9.58697 53.4058 9.8084 53.6005 9.99082L53.6095 9.99764C53.6261 10.0111 53.6419 10.0255 53.6568 10.0408C53.7448 10.1238 53.8925 10.3113 53.7493 10.5147C53.6061 10.7182 53.0275 10.9807 52.6994 11.1216C52.5933 11.1671 52.5133 11.2001 52.4828 11.2103H52.4704C51.9189 11.4808 51.5457 11.9933 51.5457 12.582C51.5457 12.5991 51.5457 12.6161 51.5457 12.6332V13.4946H54.8444C54.8444 13.4946 56.5202 12.9923 57.1845 11.8365C57.2984 11.6694 56.6003 11.0853 55.6146 10.7352Z" fill="#4825C2"/>
<path id="Vector_3" d="M53.6559 10.2613C53.6354 10.242 53.6184 10.2272 53.6082 10.2192C53.6241 10.2351 53.64 10.2477 53.6559 10.2613Z" fill="#4825C2"/>
<path id="Vector_4" d="M55.5339 10.2932C55.6159 10.2279 55.6915 10.1549 55.7595 10.075C55.6766 10.1391 55.601 10.2123 55.5339 10.2932Z" fill="#4825C2"/>
<path id="Vector_5" d="M5.85954 4.24707C4.19796 4.24707 2.85479 4.7941 1.83002 5.88817C0.805259 6.98223 0.2925 8.36155 0.291748 10.0261C0.291748 11.693 0.804507 13.0723 1.83002 14.1641C2.85554 15.2559 4.19872 15.8029 5.85954 15.8052C7.50909 15.8052 8.84926 15.2582 9.88004 14.1641C10.9108 13.07 11.4266 11.6907 11.4273 10.0261C11.4273 8.35928 10.9116 6.97996 9.88004 5.88817C8.84851 4.79638 7.50834 4.24934 5.85954 4.24707ZM9.14361 13.5527C8.30755 14.4732 7.21362 14.9335 5.8618 14.9335C4.48742 14.9335 3.38785 14.4732 2.56307 13.5527C1.7383 12.6321 1.32478 11.4577 1.32253 10.0295C1.32253 8.58999 1.73604 7.41182 2.56307 6.49505C3.39011 5.57828 4.48893 5.11762 5.85954 5.11308C7.22339 5.11308 8.32034 5.57108 9.15037 6.4871C9.98041 7.40311 10.3939 8.58127 10.3909 10.0216C10.3939 11.4543 9.97816 12.6314 9.14361 13.5527Z" fill="#4825C2"/>
<path id="Vector_6" d="M22.4684 13.9152L15.0939 4.54712H14.071V15.6063H15.0759V6.10525L22.4865 15.6063H23.4733V4.54712H22.4684V13.9152Z" fill="#4825C2"/>
<path id="Vector_7" d="M27.4384 10.3671H33.4539V9.5045H27.4384V5.40858H34.0854V4.54712H26.4031V15.6063H34.1903V14.7437H27.4384V10.3671Z" fill="#4825C2"/>
</g>
<defs>
<clipPath id="clip0_2005_44403">
<rect width="64.1667" height="20" fill="white" transform="translate(0.291748)"/>
</clipPath>
</defs>
</svg>
