<svg width="17" height="17" viewBox="0 0 17 17" fill="none" xmlns="http://www.w3.org/2000/svg">
<g id="u:pen">
<path id="Vector" d="M15.1664 5.32667C15.1669 5.23893 15.15 5.15196 15.1169 5.07073C15.0837 4.98951 15.0348 4.91563 14.973 4.85334L12.1464 2.02667C12.0841 1.96489 12.0102 1.916 11.929 1.88283C11.8477 1.84965 11.7608 1.83283 11.673 1.83334C11.5853 1.83283 11.4983 1.84965 11.4171 1.88283C11.3359 1.916 11.262 1.96489 11.1997 2.02667L9.31302 3.91334L2.02635 11.2C1.96456 11.2623 1.91568 11.3362 1.8825 11.4174C1.84933 11.4986 1.83251 11.5856 1.83302 11.6733V14.5C1.83302 14.6768 1.90326 14.8464 2.02828 14.9714C2.15331 15.0964 2.32287 15.1667 2.49969 15.1667H5.32635C5.41964 15.1717 5.51295 15.1572 5.60023 15.1239C5.68752 15.0905 5.76683 15.0393 5.83302 14.9733L13.0797 7.68667L14.973 5.83334C15.0339 5.76873 15.0834 5.69436 15.1197 5.61334C15.1261 5.5602 15.1261 5.50648 15.1197 5.45334C15.1228 5.42231 15.1228 5.39104 15.1197 5.36001L15.1664 5.32667ZM5.05302 13.8333H3.16635V11.9467L9.78635 5.32667L11.673 7.21334L5.05302 13.8333ZM12.613 6.27334L10.7264 4.38667L11.673 3.44667L13.553 5.32667L12.613 6.27334Z" fill="#121212"/>
</g>
</svg>
