<svg width="20" height="20" viewBox="0 0 20 20" fill="none" xmlns="http://www.w3.org/2000/svg">
<g id="u:phone">
<path id="Vector" d="M16.1998 10.8333C16.0165 10.8333 15.8248 10.775 15.6415 10.7333C15.2702 10.6515 14.9054 10.5429 14.5498 10.4083C14.1632 10.2677 13.7383 10.275 13.3568 10.4288C12.9752 10.5827 12.6641 10.8722 12.4832 11.2416L12.2998 11.6166C11.4882 11.1651 10.7423 10.6043 10.0832 9.94997C9.42881 9.29082 8.86803 8.54497 8.41651 7.7333L8.76651 7.49997C9.13598 7.31907 9.42549 7.00791 9.57933 6.62638C9.73318 6.24485 9.74048 5.8199 9.59984 5.4333C9.46753 5.07699 9.35895 4.7123 9.27484 4.34164C9.23317 4.1583 9.19984 3.96664 9.17484 3.77497C9.07364 3.18799 8.76619 2.65642 8.30786 2.276C7.84952 1.89559 7.27042 1.69131 6.67484 1.69997H4.17484C3.8157 1.6966 3.46005 1.77065 3.1321 1.91708C2.80415 2.06351 2.5116 2.27888 2.27437 2.54854C2.03713 2.81819 1.86079 3.1358 1.75733 3.47973C1.65387 3.82367 1.62574 4.18585 1.67484 4.54164C2.11879 8.03279 3.7132 11.2765 6.20622 13.7605C8.69924 16.2445 11.9488 17.8271 15.4415 18.2583H15.7582C16.3727 18.2592 16.966 18.0337 17.4248 17.625C17.6885 17.3892 17.8991 17.1001 18.0427 16.7769C18.1864 16.4537 18.2598 16.1037 18.2582 15.75V13.25C18.248 12.6711 18.0372 12.1138 17.6618 11.673C17.2864 11.2323 16.7697 10.9355 16.1998 10.8333ZM16.6165 15.8333C16.6164 15.9516 16.591 16.0686 16.5422 16.1763C16.4933 16.2841 16.4221 16.3802 16.3332 16.4583C16.2403 16.5391 16.1315 16.5995 16.0137 16.6354C15.896 16.6713 15.772 16.6819 15.6498 16.6666C12.5289 16.2665 9.63004 14.8387 7.41044 12.6085C5.19084 10.3784 3.77685 7.47275 3.39151 4.34997C3.37824 4.2279 3.38987 4.10441 3.42567 3.98696C3.46148 3.86951 3.52073 3.76054 3.59984 3.66664C3.67793 3.57775 3.77406 3.50651 3.88182 3.45765C3.98959 3.4088 4.10652 3.38345 4.22484 3.3833H6.72484C6.91863 3.37899 7.10786 3.44237 7.25996 3.56253C7.41206 3.68269 7.51751 3.85211 7.55817 4.04164C7.59151 4.26942 7.63317 4.49442 7.68317 4.71664C7.77944 5.15593 7.90756 5.58762 8.06651 6.00831L6.89984 6.54997C6.80009 6.59574 6.71036 6.66076 6.6358 6.7413C6.56125 6.82184 6.50334 6.91632 6.4654 7.0193C6.42746 7.12228 6.41023 7.23175 6.41471 7.34141C6.41919 7.45107 6.44529 7.55876 6.49151 7.6583C7.69084 10.2273 9.75588 12.2923 12.3248 13.4916C12.5277 13.575 12.7553 13.575 12.9582 13.4916C13.0621 13.4545 13.1576 13.397 13.2391 13.3226C13.3207 13.2482 13.3866 13.1584 13.4332 13.0583L13.9498 11.8916C14.3806 12.0457 14.8203 12.1737 15.2665 12.275C15.4887 12.325 15.7137 12.3666 15.9415 12.4C16.131 12.4406 16.3005 12.5461 16.4206 12.6982C16.5408 12.8503 16.6042 13.0395 16.5998 13.2333L16.6165 15.8333Z" fill="white"/>
</g>
</svg>
