<svg width="21" height="20" viewBox="0 0 21 20" fill="none" xmlns="http://www.w3.org/2000/svg">
<g id="u:phone">
<path id="Vector" d="M16.825 10.8333C16.6417 10.8333 16.45 10.775 16.2667 10.7333C15.8954 10.6515 15.5305 10.5429 15.175 10.4083C14.7884 10.2677 14.3634 10.275 13.9819 10.4288C13.6004 10.5827 13.2892 10.8722 13.1083 11.2416L12.925 11.6166C12.1133 11.1651 11.3675 10.6043 10.7083 9.94997C10.054 9.29082 9.49318 8.54497 9.04166 7.7333L9.39166 7.49997C9.76113 7.31907 10.0506 7.00791 10.2045 6.62638C10.3583 6.24485 10.3656 5.8199 10.225 5.4333C10.0927 5.07699 9.98411 4.7123 9.89999 4.34164C9.85833 4.1583 9.82499 3.96664 9.79999 3.77497C9.6988 3.18799 9.39135 2.65642 8.93301 2.276C8.47467 1.89559 7.89557 1.69131 7.29999 1.69997H4.79999C4.44085 1.6966 4.0852 1.77065 3.75725 1.91708C3.4293 2.06351 3.13675 2.27888 2.89952 2.54854C2.66228 2.81819 2.48594 3.1358 2.38248 3.47973C2.27903 3.82367 2.25089 4.18585 2.29999 4.54164C2.74394 8.03279 4.33835 11.2765 6.83137 13.7605C9.32439 16.2445 12.5739 17.8271 16.0667 18.2583H16.3833C16.9978 18.2592 17.5912 18.0337 18.05 17.625C18.3136 17.3892 18.5242 17.1001 18.6679 16.7769C18.8115 16.4537 18.885 16.1037 18.8833 15.75V13.25C18.8731 12.6711 18.6623 12.1138 18.2869 11.673C17.9116 11.2323 17.3948 10.9355 16.825 10.8333ZM17.2417 15.8333C17.2415 15.9516 17.2162 16.0686 17.1673 16.1763C17.1185 16.2841 17.0472 16.3802 16.9583 16.4583C16.8655 16.5391 16.7566 16.5995 16.6389 16.6354C16.5211 16.6713 16.3971 16.6819 16.275 16.6666C13.1541 16.2665 10.2552 14.8387 8.03559 12.6085C5.81599 10.3784 4.402 7.47275 4.01666 4.34997C4.0034 4.2279 4.01502 4.10441 4.05083 3.98696C4.08664 3.86951 4.14588 3.76054 4.22499 3.66664C4.30308 3.57775 4.39921 3.50651 4.50697 3.45765C4.61474 3.4088 4.73167 3.38345 4.84999 3.3833H7.34999C7.54378 3.37899 7.73301 3.44237 7.88511 3.56253C8.03721 3.68269 8.14267 3.85211 8.18333 4.04164C8.21666 4.26942 8.25833 4.49442 8.30833 4.71664C8.40459 5.15593 8.53271 5.58762 8.69166 6.00831L7.52499 6.54997C7.42524 6.59574 7.33551 6.66076 7.26096 6.7413C7.1864 6.82184 7.12849 6.91632 7.09055 7.0193C7.05261 7.12228 7.03539 7.23175 7.03987 7.34141C7.04435 7.45107 7.07044 7.55876 7.11666 7.6583C8.31599 10.2273 10.381 12.2923 12.95 13.4916C13.1529 13.575 13.3804 13.575 13.5833 13.4916C13.6873 13.4545 13.7828 13.397 13.8643 13.3226C13.9458 13.2482 14.0118 13.1584 14.0583 13.0583L14.575 11.8916C15.0058 12.0457 15.4455 12.1737 15.8917 12.275C16.1139 12.325 16.3389 12.3666 16.5667 12.4C16.7562 12.4406 16.9256 12.5461 17.0458 12.6982C17.1659 12.8503 17.2293 13.0395 17.225 13.2333L17.2417 15.8333Z" fill="white"/>
</g>
</svg>
