<svg width="30" height="30" viewBox="0 0 30 30" fill="none" xmlns="http://www.w3.org/2000/svg">
<g id="ic:round-home-work" opacity="0.5">
<path id="Vector" d="M17.5314 12.8762L11.3409 8.45623C10.4742 7.83718 9.3228 7.83718 8.46851 8.45623L2.27804 12.8762C1.62185 13.3467 1.23804 14.0896 1.23804 14.8943V24.7619C1.23804 25.4429 1.79518 26 2.47613 26H7.42851V18.5715H12.3809V26H17.3333C18.0142 26 18.5714 25.4429 18.5714 24.7619V14.8943C18.5714 14.0896 18.1876 13.3467 17.5314 12.8762Z" fill="#18181B"/>
<path id="Vector_2" d="M26.039 3.71423H14.8219C13.4723 3.71423 12.3828 4.80376 12.3828 6.15328L12.4942 6.26471C12.5933 6.32661 12.6923 6.37614 12.7914 6.43804L18.9819 10.858C19.9228 11.5266 20.5914 12.5171 20.8885 13.619H23.5257V16.0952H21.0495V18.5714H23.5257V21.0476H21.0495V25.9999H26.039C27.3885 25.9999 28.4781 24.9104 28.4781 23.5609V6.15328C28.4781 4.80376 27.3885 3.71423 26.039 3.71423ZM23.5257 11.1428H21.0495V8.66661H23.5257V11.1428Z" fill="#18181B"/>
</g>
</svg>
