<svg width="20" height="21" viewBox="0 0 20 21" fill="none" xmlns="http://www.w3.org/2000/svg">
<g id="save-2">
<g id="Vector">
<path d="M10.741 5.39999H4.25768C2.83268 5.39999 1.66602 6.56666 1.66602 7.99166V17.4583C1.66602 18.6667 2.53268 19.1833 3.59102 18.5917L6.86602 16.7667C7.21602 16.575 7.78268 16.575 8.12435 16.7667L11.3993 18.5917C12.466 19.175 13.3327 18.6667 13.3327 17.4583V7.99166C13.3327 6.56666 12.166 5.39999 10.741 5.39999Z" fill="#18181B"/>
<path d="M18.3328 4.75832V14.225C18.3328 15.4333 17.4661 15.9417 16.4078 15.3583L14.7994 14.4583C14.6661 14.3833 14.5828 14.2417 14.5828 14.0917V7.99166C14.5828 5.87499 12.8578 4.14999 10.7411 4.14999H7.34942C7.04109 4.14999 6.82442 3.82499 6.96609 3.55832C7.39942 2.73332 8.26609 2.16666 9.25775 2.16666H15.7411C17.1661 2.16666 18.3328 3.33332 18.3328 4.75832Z" fill="#18181B"/>
</g>
</g>
</svg>
