<svg width="28" height="28" viewBox="0 0 28 28" fill="none" xmlns="http://www.w3.org/2000/svg">
<g id="save-2">
<path id="Vector" d="M15.0385 6.86005H5.96181C3.96681 6.86005 2.3335 8.49336 2.3335 10.4884V23.7417M15.0385 6.86005C17.0335 6.86005 18.6668 8.49336 18.6552 10.4884V23.7417C18.6552 25.4334 17.4418 26.1567 15.9602 25.3284L11.3752 22.7734C10.8968 22.505 10.1035 22.505 9.61348 22.7734M15.0385 6.86005C17.0335 6.86005 18.6668 8.49336 18.6668 10.4884M15.0385 6.86005H9.3335V5.96169C9.3335 3.96669 10.9668 2.33337 12.9618 2.33337H22.0385C24.0335 2.33337 25.6668 3.96669 25.6668 5.96169V19.215C25.6668 20.9067 24.4535 21.6184 22.9718 20.8017L18.6668 18.3984V10.4884M2.3335 23.7417C2.3335 25.4334 3.54683 26.1567 5.02849 25.3284M2.3335 23.7417C2.3335 25.4334 3.54683 26.145 5.02849 25.3284M5.02849 25.3284L9.61348 22.7734M9.61348 22.7734C10.1035 22.505 10.8968 22.505 11.3868 22.7734L15.9718 25.3284C17.4535 26.145 18.6668 25.4334 18.6668 23.7417V10.4884" stroke="#18181B" stroke-width="1.5" stroke-linecap="round" stroke-linejoin="round"/>
</g>
</svg>
