<svg width="24" height="24" viewBox="0 0 24 24" fill="none" xmlns="http://www.w3.org/2000/svg">
<g id="save-2">
<path id="Vector" d="M12.89 5.88H5.10999C3.39999 5.88 2 7.27999 2 8.98999V20.35M12.89 5.88C14.6 5.88 16 7.27999 15.99 8.98999V20.35C15.99 21.8 14.95 22.42 13.68 21.71L9.75 19.52C9.34 19.29 8.65999 19.29 8.23999 19.52M12.89 5.88C14.6 5.88 16 7.27999 16 8.98999M12.89 5.88H8V5.10999C8 3.39999 9.39999 2 11.11 2H18.89C20.6 2 22 3.39999 22 5.10999V16.47C22 17.92 20.96 18.53 19.69 17.83L16 15.77V8.98999M2 20.35C2 21.8 3.04 22.42 4.31 21.71M2 20.35C2 21.8 3.04 22.41 4.31 21.71M4.31 21.71L8.23999 19.52M8.23999 19.52C8.65999 19.29 9.34001 19.29 9.76001 19.52L13.69 21.71C14.96 22.41 16 21.8 16 20.35V8.98999" stroke="#18181B" stroke-width="1.5" stroke-linecap="round" stroke-linejoin="round"/>
</g>
</svg>
