<svg width="28" height="28" viewBox="0 0 28 28" fill="none" xmlns="http://www.w3.org/2000/svg">
<g id="save-2">
<g id="Vector">
<path d="M15.038 6.86004H5.96134C3.96634 6.86004 2.33301 8.49337 2.33301 10.4884V23.7417C2.33301 25.4334 3.54634 26.1567 5.02801 25.3284L9.61301 22.7734C10.103 22.505 10.8963 22.505 11.3747 22.7734L15.9597 25.3284C17.453 26.145 18.6663 25.4334 18.6663 23.7417V10.4884C18.6663 8.49337 17.033 6.86004 15.038 6.86004Z" fill="#292D32"/>
<path d="M25.6664 5.96171V19.215C25.6664 20.9067 24.4531 21.6184 22.9714 20.8017L20.7198 19.5417C20.5331 19.4367 20.4164 19.2384 20.4164 19.0284V10.4884C20.4164 7.52504 18.0014 5.11004 15.0381 5.11004H10.2898C9.85811 5.11004 9.55477 4.65504 9.75311 4.28171C10.3598 3.12671 11.5731 2.33337 12.9614 2.33337H22.0381C24.0331 2.33337 25.6664 3.96671 25.6664 5.96171Z" fill="#292D32"/>
</g>
</g>
</svg>
