<svg width="21" height="21" viewBox="0 0 21 21" fill="none" xmlns="http://www.w3.org/2000/svg">
<g id="search-normal">
<g id="Vector">
<path d="M10.0827 18C14.4549 18 17.9993 14.4556 17.9993 10.0833C17.9993 5.71107 14.4549 2.16666 10.0827 2.16666C5.71043 2.16666 2.16602 5.71107 2.16602 10.0833C2.16602 14.4556 5.71043 18 10.0827 18Z" fill="#18181B"/>
<path d="M18.2493 18.8333C18.0993 18.8333 17.9493 18.775 17.841 18.6667L16.291 17.1167C16.066 16.8917 16.066 16.525 16.291 16.2917C16.516 16.0667 16.8827 16.0667 17.116 16.2917L18.666 17.8417C18.891 18.0667 18.891 18.4333 18.666 18.6667C18.5493 18.775 18.3993 18.8333 18.2493 18.8333Z" fill="#18181B"/>
</g>
</g>
</svg>
