<svg width="24" height="24" viewBox="0 0 24 24" fill="none" xmlns="http://www.w3.org/2000/svg">
<g id="security-safe">
<path id="Vector" d="M20.9098 11.1199V6.72995C20.9098 5.90995 20.2898 4.97995 19.5198 4.66995L13.9498 2.38995C12.6998 1.87995 11.2898 1.87995 10.0398 2.38995L4.46984 4.66995C3.70984 4.97995 3.08984 5.90995 3.08984 6.72995V11.1199C3.08984 16.0099 6.63984 20.5899 11.4898 21.9299C11.8198 22.0199 12.1798 22.0199 12.5098 21.9299C17.3598 20.5899 20.9098 16.0099 20.9098 11.1199ZM12.7498 12.8699V15.4999C12.7498 15.9099 12.4098 16.2499 11.9998 16.2499C11.5898 16.2499 11.2498 15.9099 11.2498 15.4999V12.8699C10.2398 12.5499 9.49984 11.6099 9.49984 10.4999C9.49984 9.11995 10.6198 7.99995 11.9998 7.99995C13.3798 7.99995 14.4998 9.11995 14.4998 10.4999C14.4998 11.6199 13.7598 12.5499 12.7498 12.8699Z" fill="#2563EB"/>
</g>
</svg>
