<svg width="25" height="24" viewBox="0 0 25 24" fill="none" xmlns="http://www.w3.org/2000/svg">
<g id="sms">
<path id="Vector" d="M17.125 3.5H7.125C4.125 3.5 2.125 5 2.125 8.5V15.5C2.125 19 4.125 20.5 7.125 20.5H17.125C20.125 20.5 22.125 19 22.125 15.5V8.5C22.125 5 20.125 3.5 17.125 3.5ZM17.595 9.59L14.465 12.09C13.805 12.62 12.965 12.88 12.125 12.88C11.285 12.88 10.435 12.62 9.785 12.09L6.655 9.59C6.335 9.33 6.285 8.85 6.535 8.53C6.795 8.21 7.265 8.15 7.585 8.41L10.715 10.91C11.475 11.52 12.765 11.52 13.525 10.91L16.655 8.41C16.975 8.15 17.455 8.2 17.705 8.53C17.965 8.85 17.915 9.33 17.595 9.59Z" fill="#2563EB"/>
</g>
</svg>
