<svg width="32" height="32" viewBox="0 0 32 32" fill="none" xmlns="http://www.w3.org/2000/svg">
<g id="sms">
<path id="Vector" d="M22.6665 4.66675H9.33317C5.33317 4.66675 2.6665 6.66675 2.6665 11.3334V20.6667C2.6665 25.3334 5.33317 27.3334 9.33317 27.3334H22.6665C26.6665 27.3334 29.3332 25.3334 29.3332 20.6667V11.3334C29.3332 6.66675 26.6665 4.66675 22.6665 4.66675ZM23.2932 12.7867L19.1198 16.1201C18.2398 16.8267 17.1198 17.1734 15.9998 17.1734C14.8798 17.1734 13.7465 16.8267 12.8798 16.1201L8.7065 12.7867C8.27984 12.4401 8.21317 11.8001 8.5465 11.3734C8.89317 10.9467 9.51984 10.8667 9.9465 11.2134L14.1198 14.5467C15.1332 15.3601 16.8532 15.3601 17.8665 14.5467L22.0398 11.2134C22.4665 10.8667 23.1065 10.9334 23.4398 11.3734C23.7865 11.8001 23.7198 12.4401 23.2932 12.7867Z" fill="#2563EB"/>
</g>
</svg>
