<svg width="20" height="20" viewBox="0 0 20 20" fill="none" xmlns="http://www.w3.org/2000/svg">
<g id="sms">
<path id="Vector" d="M14.166 2.91666H5.83268C3.33268 2.91666 1.66602 4.16666 1.66602 7.08332V12.9167C1.66602 15.8333 3.33268 17.0833 5.83268 17.0833H14.166C16.666 17.0833 18.3327 15.8333 18.3327 12.9167V7.08332C18.3327 4.16666 16.666 2.91666 14.166 2.91666ZM14.5577 7.99166L11.9493 10.075C11.3993 10.5167 10.6993 10.7333 9.99935 10.7333C9.29935 10.7333 8.59102 10.5167 8.04935 10.075L5.44102 7.99166C5.17435 7.77499 5.13268 7.37499 5.34102 7.10832C5.55768 6.84166 5.94935 6.79166 6.21602 7.00832L8.82435 9.09166C9.45768 9.59999 10.5327 9.59999 11.166 9.09166L13.7744 7.00832C14.041 6.79166 14.441 6.83332 14.6493 7.10832C14.866 7.37499 14.8243 7.77499 14.5577 7.99166Z" fill="#18181B"/>
</g>
</svg>
