<svg width="24" height="24" viewBox="0 0 24 24" fill="none" xmlns="http://www.w3.org/2000/svg">
<g id="solar:diagram-up-linear">
<g id="Group">
<path id="Vector" d="M22 22H12C7.286 22 4.929 22 3.464 20.535C2 19.072 2 16.714 2 12V2" stroke="#0D3B3F" stroke-width="2" stroke-linecap="round"/>
<path id="Vector_2" d="M19 7L15.882 10.926C15.405 11.528 15.166 11.829 14.892 11.976C14.684 12.0872 14.4527 12.1477 14.217 12.1528C13.9812 12.1578 13.7475 12.1072 13.535 12.005C13.255 11.87 13.004 11.58 12.5 11C11.997 10.42 11.745 10.13 11.465 9.995C11.2525 9.89314 11.019 9.84277 10.7834 9.84798C10.5478 9.85319 10.3168 9.91384 10.109 10.025C9.835 10.171 9.596 10.472 9.119 11.073L6 15" stroke="#0D3B3F" stroke-width="2" stroke-linecap="round"/>
</g>
</g>
</svg>
