<svg width="22" height="20" viewBox="0 0 22 20" fill="none" xmlns="http://www.w3.org/2000/svg">
<path id="Star 1" d="M10.2744 0.56237C10.5611 -0.0550155 11.4389 -0.0550149 11.7256 0.562371L14.2123 5.91697C14.3288 6.16797 14.5669 6.3409 14.8416 6.3742L20.7026 7.08453C21.3783 7.16644 21.6496 8.00119 21.151 8.46466L16.8269 12.4843C16.6242 12.6727 16.5333 12.9525 16.5865 13.2241L17.7221 19.0177C17.853 19.6857 17.1429 20.2016 16.5481 19.8707L11.3889 17.0004C11.1471 16.8658 10.8529 16.8658 10.6111 17.0004L5.45192 19.8707C4.85707 20.2016 4.14698 19.6857 4.27791 19.0177L5.41348 13.2241C5.46671 12.9525 5.3758 12.6727 5.1731 12.4843L0.84901 8.46466C0.350442 8.00119 0.62167 7.16644 1.29744 7.08453L7.1584 6.3742C7.43314 6.3409 7.67115 6.16797 7.78772 5.91697L10.2744 0.56237Z" fill="#2563EB"/>
</svg>
