<svg width="102" height="52" viewBox="0 0 102 52" fill="none" xmlns="http://www.w3.org/2000/svg">
<g clip-path="url(#clip0_311_102)">
<path fill-rule="evenodd" clip-rule="evenodd" d="M7.4069 0C5.44247 0 3.55849 0.782794 2.16943 2.17622C0.780364 3.56964 0 5.45954 0 7.43013C0 9.40073 0.780364 11.2906 2.16943 12.684C3.55849 14.0775 5.44247 14.8603 7.4069 14.8603H8.51124C9.94763 14.8619 11.3247 15.4349 12.3405 16.4537C13.3562 17.4726 13.9277 18.8539 13.9294 20.2949V44.5708C13.9248 46.4895 14.6598 48.3357 15.9808 49.7233C17.3017 51.111 19.1063 51.9326 21.0172 52.0163C22.9281 52.1 24.7972 51.4394 26.2338 50.1726C27.6703 48.9059 28.563 47.131 28.7252 45.2192C29.0227 45.0183 29.2491 44.728 29.3719 44.39C29.4947 44.052 29.5076 43.6837 29.4086 43.338C29.3097 42.9922 29.1042 42.6867 28.8214 42.4654C28.5387 42.2441 28.1933 42.1184 27.8348 42.1064C27.4764 42.0943 27.1234 42.1965 26.8265 42.3982C26.5296 42.5999 26.304 42.8908 26.1822 43.2292C26.0604 43.5675 26.0486 43.9359 26.1485 44.2814C26.2483 44.6269 26.4548 44.9317 26.7382 45.1522C26.5891 46.5366 25.9168 47.811 24.8596 48.7132C23.8023 49.6154 22.4406 50.0769 21.0545 50.0025C19.6684 49.9282 18.3634 49.3238 17.4081 48.3137C16.4527 47.3036 15.9196 45.9646 15.9185 44.5722V20.2949C15.916 18.325 15.1348 16.4365 13.7461 15.0437C12.3575 13.6508 10.4749 12.8673 8.51124 12.865H7.4069C6.69537 12.865 5.99081 12.7245 5.33345 12.4513C4.67608 12.1782 4.07874 11.7778 3.57561 11.2731C3.07248 10.7684 2.67339 10.1692 2.4011 9.50977C2.12881 8.85034 1.98869 8.14357 1.98869 7.42981C1.98869 6.71604 2.12881 6.00927 2.4011 5.34984C2.67339 4.69041 3.07248 4.09124 3.57561 3.58653C4.07874 3.08182 4.67608 2.68148 5.33345 2.40833C5.99081 2.13519 6.69537 1.99459 7.4069 1.99459H35.2491C36.6861 1.99459 38.0643 2.56723 39.0804 3.58653C40.0965 4.60583 40.6673 5.9883 40.6673 7.42981C40.6673 8.87132 40.0965 10.2538 39.0804 11.2731C38.0643 12.2924 36.6861 12.865 35.2491 12.865H34.1768C32.2132 12.8673 30.3306 13.6509 28.9421 15.0437C27.5536 16.4366 26.7725 18.325 26.7702 20.2949V33.7098L26.7749 35.3648C26.7749 35.9338 26.5496 36.4794 26.1485 36.8817C25.7475 37.284 25.2035 37.5101 24.6364 37.5101C24.0692 37.5101 23.5252 37.284 23.1241 36.8817C22.7231 36.4794 22.4978 35.9338 22.4978 35.3648V18.4101L22.5218 13.8174C22.519 11.8476 21.7374 9.95926 20.3486 8.56667C18.9597 7.17408 17.0769 6.39091 15.1132 6.38897H10.9069C10.697 6.09955 10.4011 5.88424 10.0618 5.77381C9.7224 5.66337 9.3569 5.66351 9.01762 5.77421C8.67834 5.88492 8.3827 6.10049 8.17304 6.39007C7.96337 6.67965 7.85045 7.02837 7.85045 7.38627C7.85045 7.74417 7.96337 8.09289 8.17304 8.38247C8.3827 8.67205 8.67834 8.88762 9.01762 8.99832C9.3569 9.10903 9.7224 9.10921 10.0618 8.99877C10.4011 8.88834 10.697 8.67298 10.9069 8.38357H15.1132C16.549 8.38481 17.9257 8.95709 18.9415 9.97494C19.9573 10.9928 20.5293 12.3732 20.5321 13.8134L20.5074 18.4061V35.3648C20.5074 36.4628 20.9423 37.5159 21.7163 38.2924C22.4903 39.0688 23.5401 39.505 24.6347 39.505C25.7293 39.505 26.7791 39.0688 27.5531 38.2924C28.3271 37.5159 28.762 36.4628 28.762 35.3648L28.7573 20.2949C28.759 18.8539 29.3305 17.4726 30.3462 16.4537C31.362 15.4349 32.7391 14.8619 34.1755 14.8603H35.2478C37.2122 14.8603 39.0962 14.0775 40.4853 12.684C41.8743 11.2906 42.6547 9.40073 42.6547 7.43013C42.6547 5.45954 41.8743 3.56964 40.4853 2.17622C39.0962 0.782794 37.2122 0 35.2478 0H7.4069Z" fill="url(#paint0_linear_311_102)"/>
<path fill-rule="evenodd" clip-rule="evenodd" d="M38.8867 20.2887V18.7449H47.5612V20.2914H44.0379V34.6058H42.4301V20.2887H38.8867ZM61.26 22.8734V34.6031H59.7851V32.5938C59.2348 33.3175 58.525 33.9034 57.7113 34.3059C56.8975 34.7083 56.0019 34.9162 55.0946 34.9133C54.2928 34.9332 53.4958 34.7832 52.7558 34.473C52.0158 34.1627 51.3493 33.6993 50.8001 33.1129C50.2371 32.529 49.7953 31.8388 49.5004 31.0822C49.2055 30.3257 49.0633 29.5179 49.0822 28.7058C49.0642 27.8985 49.2091 27.0958 49.5081 26.3461C49.8071 25.5964 50.254 24.915 50.8222 24.3429C51.3798 23.7631 52.0513 23.3057 52.7941 22.9996C53.537 22.6935 54.3351 22.5454 55.138 22.5646C56.0532 22.5626 56.9549 22.7849 57.7648 23.2123C58.5747 23.6396 59.2683 24.2591 59.7851 25.0167V22.8734H61.26ZM55.2595 24.022C54.4351 23.9917 53.6195 24.2006 52.9105 24.6238C52.2016 25.047 51.6294 25.6664 51.2628 26.4078C50.8444 27.1248 50.6238 27.9406 50.6238 28.7714C50.6238 29.6022 50.8444 30.4181 51.2628 31.1351C51.6644 31.8645 52.2552 32.4713 52.9727 32.8912C53.6648 33.3033 54.4547 33.5208 55.2595 33.5208C56.0772 33.5588 56.8886 33.3604 57.5971 32.9492C58.3056 32.538 58.8815 31.9314 59.2563 31.2014C59.6671 30.4662 59.8795 29.6363 59.8725 28.7935C59.8924 28.1665 59.7881 27.5418 59.5658 26.9555C59.3435 26.3692 59.0075 25.8329 58.5772 25.3777C58.1503 24.9302 57.6343 24.578 57.0626 24.344C56.491 24.11 55.8766 23.9994 55.2595 24.0194V24.022ZM64.4067 18.345H65.9044V34.6031H64.4067V18.343V18.345ZM78.8747 30.7158L80.1526 31.3782C79.4952 32.7935 78.3202 33.9008 76.871 34.4705C76.1349 34.7628 75.3504 34.9128 74.5588 34.9126C73.7504 34.9409 72.9449 34.8016 72.1928 34.5032C71.4406 34.2048 70.7579 33.7538 70.1875 33.1785C69.6209 32.5978 69.1775 31.9078 68.8842 31.1503C68.5909 30.3928 68.4537 29.5836 68.4809 28.7714C68.4661 27.328 68.9484 25.9236 69.8463 24.7956C70.3828 24.0795 71.0828 23.503 71.8875 23.1146C72.6922 22.7263 73.5781 22.5374 74.4707 22.5639C75.3905 22.5336 76.3042 22.7245 77.1355 23.1207C77.9668 23.5168 78.6916 24.1067 79.2493 24.8412C80.13 25.991 80.5889 27.4103 80.5486 28.8598H70.0226C69.9895 30.083 70.4317 31.2711 71.2558 32.1732C71.6556 32.6146 72.1462 32.9638 72.6936 33.1964C73.2411 33.4291 73.8324 33.5398 74.4266 33.5208C75.5896 33.5731 76.7271 33.169 77.5981 32.3942C78.0906 31.8894 78.5193 31.3256 78.8747 30.7158ZM78.8747 27.5564C78.7545 26.8959 78.4801 26.2734 78.0739 25.7397C77.6677 25.2061 77.1413 24.7765 76.5378 24.4862C75.9 24.1752 75.1992 24.0164 74.49 24.022C72.3174 24.022 70.8788 25.2002 70.1742 27.5564H78.8747ZM83.3481 22.8734H84.8891V24.9738C85.364 24.2426 86.0115 23.6404 86.774 23.2203C87.5365 22.8003 88.3906 22.5755 89.2604 22.566C90.0769 22.5169 90.8877 22.7303 91.5749 23.1753C92.2621 23.6203 92.7899 24.2735 93.0816 25.0401C93.4658 26.1766 93.6301 27.3762 93.5656 28.5745V34.6025H92.068V29.0139C92.0974 28.1045 92.0384 27.1945 91.8918 26.2966C91.792 25.5995 91.429 24.9675 90.8779 24.5312C90.3268 24.0949 89.6297 23.8877 88.9306 23.9524C88.0352 23.9411 87.1667 24.2594 86.4896 24.8472C85.793 25.4403 85.2894 26.229 85.0434 27.1117C84.9454 27.5094 84.8937 27.9171 84.8891 28.3267V34.5998H83.3488L83.3481 22.8734ZM98.1039 18.4997H99.6449V22.8734H102.001V24.1547H99.6402V34.6031H98.1045V24.1547H96.0347V22.8734H98.1045L98.1039 18.4997Z" fill="white"/>
<path fill-rule="evenodd" clip-rule="evenodd" d="M42.4922 36.8195H42.8928V37.3553C43.0008 37.1679 43.1556 37.0121 43.3421 36.9032C43.5285 36.7943 43.74 36.7361 43.9557 36.7344C44.096 36.7277 44.236 36.7527 44.3654 36.8074C44.4948 36.8621 44.6103 36.9452 44.7035 37.0505C44.8053 37.1809 44.8844 37.3277 44.9372 37.4846C45.0185 37.3197 45.1316 37.1726 45.2699 37.0519C45.4082 36.9312 45.5691 36.8392 45.7431 36.7813C45.8513 36.7483 45.9639 36.7325 46.077 36.7344C46.2798 36.7206 46.4815 36.7739 46.6513 36.886C46.821 36.9981 46.9495 37.163 47.017 37.3553C47.1075 37.6362 47.1471 37.9311 47.1339 38.226V39.9252H46.7253V38.2354C46.7305 38.0531 46.7206 37.8708 46.6959 37.6902C46.6687 37.5278 46.5835 37.3809 46.4562 37.2769C46.3265 37.1753 46.1654 37.1225 46.0008 37.1276C45.8083 37.1258 45.6206 37.1877 45.4667 37.3037C45.3096 37.4195 45.1889 37.578 45.1188 37.7605C45.0257 38.0698 44.9862 38.3929 45.002 38.7156V39.9346H44.6107V38.3405C44.6155 38.1427 44.6036 37.9449 44.5753 37.7491C44.5652 37.5743 44.4863 37.4107 44.356 37.2941C44.2257 37.1776 44.0546 37.1177 43.8803 37.1276C43.6881 37.1234 43.4998 37.1816 43.3433 37.2936C43.1869 37.4057 43.0708 37.5654 43.0123 37.7491C42.9204 38.0285 42.8808 38.3226 42.8955 38.6165V39.9346H42.4949V36.8228L42.4922 36.8195ZM51.0672 36.8195V39.9312H50.6759V39.3954C50.5299 39.5873 50.3415 39.7427 50.1256 39.8494C49.9097 39.956 49.6721 40.0111 49.4314 40.0103C49.2187 40.0157 49.0073 39.9759 48.811 39.8936C48.6147 39.8113 48.4379 39.6883 48.2923 39.5327C48.143 39.3779 48.0259 39.1948 47.9477 38.9942C47.8696 38.7936 47.8319 38.5793 47.837 38.364C47.8321 38.1498 47.8705 37.9369 47.9498 37.738C48.0291 37.5391 48.1476 37.3584 48.2983 37.2066C48.4466 37.0534 48.6248 36.9326 48.8219 36.8519C49.019 36.7712 49.2306 36.7323 49.4434 36.7378C49.6861 36.7372 49.9253 36.7962 50.1401 36.9095C50.3549 37.0229 50.5389 37.1872 50.6759 37.3881V36.8195H51.0672ZM49.4754 37.1242C49.2567 37.1159 49.0402 37.1713 48.8521 37.2836C48.664 37.3959 48.5122 37.5603 48.4152 37.7572C48.3041 37.9473 48.2455 38.1637 48.2455 38.3841C48.2455 38.6044 48.3041 38.8208 48.4152 39.011C48.5213 39.2055 48.6779 39.3675 48.8685 39.4798C49.0523 39.5889 49.2619 39.6465 49.4754 39.6466C49.6923 39.6565 49.9074 39.6039 50.0953 39.4949C50.2833 39.3859 50.4361 39.2252 50.5357 39.0317C50.6446 38.8366 50.7009 38.6164 50.6993 38.3928C50.7044 38.2265 50.6767 38.0609 50.6177 37.9055C50.5587 37.7501 50.4695 37.6079 50.3554 37.4872C50.2421 37.3686 50.1053 37.2753 49.9536 37.2132C49.802 37.1511 49.6391 37.1217 49.4754 37.1269V37.1242ZM51.9612 36.8195H52.3698V37.3761C52.4959 37.1821 52.6676 37.0224 52.87 36.9111C53.0723 36.7997 53.2988 36.7402 53.5296 36.7378C53.7462 36.7248 53.9612 36.7814 54.1435 36.8994C54.3258 37.0175 54.4658 37.1908 54.5431 37.3941C54.645 37.6957 54.6885 38.0139 54.6713 38.3318V39.9312H54.2741V38.4484C54.2818 38.2072 54.2662 37.9658 54.2273 37.7277C54.2007 37.5428 54.1043 37.3753 53.958 37.2597C53.8118 37.1442 53.6268 37.0894 53.4415 37.1068C53.204 37.1038 52.9738 37.1884 52.7945 37.3446C52.6091 37.5023 52.4754 37.7124 52.4106 37.9474C52.3848 38.0528 52.3711 38.1609 52.3698 38.2695V39.9339H51.9612V36.8222V36.8195ZM58.62 36.8195V39.9312H58.2287V39.3954C58.0827 39.5872 57.8945 39.7426 57.6787 39.8492C57.4629 39.9559 57.2254 40.011 56.9848 40.0103C56.772 40.0157 56.5605 39.976 56.3641 39.8937C56.1677 39.8114 55.9908 39.6884 55.8451 39.5327C55.6959 39.3778 55.5788 39.1947 55.5007 38.9941C55.4225 38.7935 55.3848 38.5793 55.3897 38.364C55.3851 38.1498 55.4235 37.937 55.5028 37.7381C55.5821 37.5392 55.7006 37.3585 55.8511 37.2066C55.9994 37.0534 56.1777 36.9326 56.3747 36.8519C56.5718 36.7713 56.7834 36.7324 56.9962 36.7378C57.2389 36.7372 57.4781 36.7962 57.6929 36.9095C57.9077 37.0229 58.0916 37.1872 58.2287 37.3881V36.8195H58.62ZM57.0282 37.1242C56.8095 37.1159 56.593 37.1713 56.4049 37.2836C56.2168 37.3959 56.065 37.5603 55.968 37.7572C55.8569 37.9473 55.7983 38.1637 55.7983 38.3841C55.7983 38.6044 55.8569 38.8208 55.968 39.011C56.0741 39.2057 56.2311 39.3677 56.422 39.4798C56.6055 39.5889 56.8149 39.6465 57.0282 39.6466C57.2451 39.6565 57.4602 39.6039 57.6481 39.4949C57.836 39.3859 57.9889 39.2252 58.0885 39.0317C58.1973 38.8366 58.2537 38.6164 58.2521 38.3928C58.2572 38.2265 58.2295 38.0609 58.1705 37.9055C58.1115 37.7501 58.0223 37.6079 57.9082 37.4872C57.7949 37.3686 57.658 37.2753 57.5064 37.2132C57.3548 37.1511 57.1919 37.1217 57.0282 37.1269V37.1242ZM62.1894 36.8195H62.598V39.2976C62.6129 39.6223 62.5734 39.9472 62.4812 40.2588C62.3689 40.5511 62.1626 40.7975 61.895 40.9589C61.6273 41.1202 61.3136 41.1874 61.0036 41.1496C60.5542 41.1792 60.1112 41.0298 59.7711 40.7336C59.6138 40.5733 59.4886 40.3841 59.4025 40.1764H59.8338C59.9469 40.3778 60.1154 40.5423 60.3191 40.6504C60.5229 40.7585 60.7533 40.8055 60.9829 40.7859C61.1968 40.789 61.409 40.7472 61.6058 40.6633C61.8062 40.582 61.9716 40.4327 62.0732 40.2414C62.165 40.0046 62.2049 39.7508 62.1901 39.4972V39.3385C62.0439 39.5279 61.8554 39.6801 61.6398 39.783C61.4242 39.8858 61.1875 39.9364 60.9488 39.9306C60.6693 39.9305 60.3946 39.8569 60.1523 39.7169C59.9096 39.5823 59.7082 39.3835 59.5701 39.1423C59.4315 38.901 59.3598 38.627 59.3624 38.3486C59.3647 37.9234 59.5335 37.5161 59.8324 37.2146C60.1313 36.9132 60.5364 36.7417 60.9602 36.7371C61.1983 36.7424 61.4322 36.8009 61.645 36.9083C61.8577 37.0157 62.0439 37.1693 62.1901 37.358V36.8222L62.1894 36.8195ZM61.0176 37.1242C60.8 37.1167 60.5847 37.1703 60.3959 37.2791C60.2071 37.3878 60.0524 37.5474 59.9493 37.7397C59.8347 37.9308 59.7743 38.1497 59.7744 38.3727C59.7678 38.5323 59.7954 38.6915 59.8551 38.8396C59.9149 38.9877 60.0055 39.1212 60.1209 39.2313C60.3597 39.4507 60.6747 39.5673 60.9983 39.5562C61.1598 39.5634 61.3211 39.5381 61.4727 39.4817C61.6243 39.4254 61.7631 39.3391 61.8809 39.228C61.9939 39.1125 62.0819 38.9748 62.1394 38.8236C62.1968 38.6724 62.2225 38.5109 62.2148 38.3492C62.2276 38.1337 62.179 37.9189 62.0747 37.73C61.9705 37.5411 61.8148 37.3858 61.6259 37.2823C61.441 37.1774 61.232 37.1229 61.0196 37.1242H61.0176ZM66.0559 38.8998L66.3951 39.0759C66.2212 39.4509 65.9105 39.7446 65.5271 39.8964C65.3319 39.9736 65.124 40.0131 64.9142 40.013C64.6998 40.0204 64.4861 39.9834 64.2866 39.9044C64.0871 39.8253 63.9059 39.7059 63.7544 39.5535C63.6041 39.3994 63.4865 39.2163 63.4087 39.0153C63.3309 38.8143 63.2945 38.5996 63.3017 38.3841C63.2979 38.0012 63.4257 37.6286 63.6636 37.3292C63.806 37.1394 63.9917 36.9866 64.2051 36.8837C64.4185 36.7808 64.6535 36.7307 64.8902 36.7378C65.1342 36.7293 65.3768 36.7796 65.5975 36.8845C65.8182 36.9894 66.0106 37.1458 66.1587 37.3406C66.3923 37.6457 66.5139 38.0223 66.5033 38.4068H63.711C63.7025 38.7314 63.8197 39.0467 64.0382 39.2863C64.1444 39.4031 64.2746 39.4956 64.4198 39.5572C64.5651 39.6188 64.7219 39.6482 64.8795 39.6432C65.188 39.6573 65.4898 39.5501 65.7207 39.3445C65.8515 39.2107 65.9652 39.0611 66.0593 38.8991L66.0559 38.8998ZM66.0559 38.0619C66.0241 37.8868 65.9515 37.7217 65.8439 37.5802C65.7363 37.4386 65.5969 37.3246 65.437 37.2475C65.2676 37.1651 65.0817 37.1229 64.8935 37.1242C64.6226 37.1177 64.3582 37.2087 64.1484 37.3807C63.9385 37.5527 63.7968 37.7943 63.7491 38.0619H66.0559ZM67.2417 36.8195H67.639V37.3553C67.747 37.1678 67.902 37.012 68.0885 36.9031C68.2751 36.7942 68.4868 36.736 68.7026 36.7344C68.8428 36.7277 68.9827 36.7527 69.1119 36.8074C69.2412 36.8621 69.3567 36.9452 69.4497 37.0505C69.552 37.1807 69.6313 37.3275 69.6841 37.4846C69.7652 37.3195 69.8782 37.1724 70.0165 37.0516C70.1549 36.9309 70.3158 36.839 70.49 36.7813C70.5981 36.7483 70.7108 36.7325 70.8238 36.7344C71.0267 36.7206 71.2285 36.7738 71.3984 36.8859C71.5683 36.9981 71.6969 37.1629 71.7646 37.3553C71.855 37.6362 71.8946 37.9311 71.8814 38.226V39.9252H71.4728V38.2354C71.4779 38.0531 71.4681 37.8708 71.4434 37.6902C71.416 37.5279 71.3308 37.3811 71.2037 37.2769C71.0739 37.1755 70.9129 37.1226 70.7484 37.1276C70.5559 37.1258 70.3681 37.1877 70.2142 37.3037C70.0576 37.4198 69.9371 37.5782 69.867 37.7605C69.7739 38.0698 69.7344 38.3929 69.7502 38.7156V39.9346H69.3583V38.3405C69.3631 38.1428 69.3515 37.9449 69.3235 37.7491C69.3132 37.5744 69.2343 37.4108 69.104 37.2943C68.9737 37.1778 68.8027 37.1179 68.6285 37.1276C68.4363 37.1235 68.248 37.1818 68.0916 37.2938C67.9352 37.4058 67.819 37.5655 67.7605 37.7491C67.6689 38.0286 67.6293 38.3226 67.6437 38.6165V39.9346H67.2464V36.8228L67.2417 36.8195ZM75.3327 38.8998L75.6712 39.0759C75.4973 39.4509 75.1866 39.7446 74.8032 39.8964C74.608 39.9736 74.4 40.0131 74.1903 40.013C73.9758 40.0204 73.7622 39.9835 73.5627 39.9044C73.3631 39.8254 73.182 39.7059 73.0305 39.5535C72.8802 39.3994 72.7626 39.2163 72.6848 39.0153C72.607 38.8143 72.5706 38.5996 72.5778 38.3841C72.5738 38.001 72.7019 37.6284 72.9404 37.3292C73.0826 37.1392 73.2683 36.9864 73.4817 36.8835C73.6952 36.7805 73.9302 36.7306 74.1669 36.7378C74.411 36.7292 74.6535 36.7795 74.8743 36.8844C75.095 36.9893 75.2874 37.1457 75.4355 37.3406C75.6693 37.6456 75.7912 38.0222 75.7807 38.4068H72.9884C72.9796 38.7313 73.0967 39.0466 73.3149 39.2863C73.4212 39.4031 73.5514 39.4955 73.6966 39.5571C73.8418 39.6188 73.9986 39.6481 74.1562 39.6432C74.4647 39.6573 74.7665 39.5501 74.9975 39.3445C75.1283 39.2106 75.2422 39.061 75.3367 38.8991L75.3327 38.8998ZM75.3327 38.0619C75.3006 37.8868 75.2278 37.7218 75.1201 37.5802C75.0124 37.4387 74.873 37.3247 74.713 37.2475C74.5439 37.1652 74.3582 37.123 74.1702 37.1242C73.8992 37.1176 73.6347 37.2085 73.4247 37.3805C73.2146 37.5524 73.0729 37.7942 73.0252 38.0619H75.3327ZM76.5184 36.8195H76.9271V37.3761C77.0531 37.1821 77.2249 37.0224 77.4272 36.9111C77.6295 36.7997 77.8561 36.7402 78.0868 36.7378C78.3034 36.7248 78.5185 36.7814 78.7008 36.8994C78.883 37.0175 79.023 37.1908 79.1004 37.3941C79.2022 37.6957 79.2457 38.0139 79.2286 38.3318V39.9312H78.8313V38.4484C78.8391 38.2072 78.8234 37.9658 78.7846 37.7277C78.758 37.543 78.6617 37.3755 78.5155 37.26C78.3694 37.1444 78.1846 37.0896 77.9994 37.1068C77.7617 37.1036 77.5312 37.1883 77.3517 37.3446C77.1664 37.5023 77.0326 37.7124 76.9678 37.9474C76.942 38.0528 76.9283 38.1609 76.9271 38.2695V39.9339H76.5184V36.8222V36.8195ZM80.4324 35.6594H80.841V36.8195H81.466V37.1597H80.841V39.9312H80.4324V37.1597H79.8829V36.8195H80.4324V35.6594Z" fill="white"/>
</g>
<defs>
<linearGradient id="paint0_linear_311_102" x1="21.3273" y1="0" x2="21.3273" y2="70.9079" gradientUnits="userSpaceOnUse">
<stop stop-color="#A3F5B7"/>
<stop offset="1" stop-color="#41AAD2"/>
</linearGradient>
<clipPath id="clip0_311_102">
<rect width="102" height="52" fill="white"/>
</clipPath>
</defs>
</svg>
