<svg width="20" height="20" viewBox="0 0 20 20" fill="none" xmlns="http://www.w3.org/2000/svg">
<path d="M18.5526 2.02315C18.3153 1.82576 18.029 1.6964 17.724 1.64882C17.4191 1.60124 17.1069 1.63724 16.8208 1.75297L1.88675 7.78243C1.56737 7.91384 1.29551 8.13926 1.10725 8.42878C0.918984 8.7183 0.823221 9.05824 0.832669 9.40346C0.842117 9.74868 0.956329 10.0829 1.16015 10.3617C1.36396 10.6404 1.64775 10.8507 1.97383 10.9644L4.99466 12.015L6.67841 17.583C6.7013 17.6574 6.7345 17.7282 6.77706 17.7934C6.78352 17.8034 6.79263 17.8108 6.7995 17.8205C6.84867 17.8891 6.90809 17.9498 6.97569 18.0003C6.99491 18.015 7.01332 18.0287 7.03387 18.0417C7.11298 18.0942 7.2006 18.1326 7.29281 18.1552L7.30268 18.156L7.30827 18.1584C7.36372 18.1697 7.42015 18.1754 7.47673 18.1755C7.48217 18.1755 7.48701 18.1729 7.4924 18.1728C7.57778 18.1713 7.66242 18.1566 7.74331 18.1292C7.76212 18.1228 7.77825 18.1121 7.79651 18.1043C7.85682 18.0793 7.91396 18.0473 7.96675 18.0089C8.00902 17.9732 8.0513 17.9376 8.0936 17.902L10.3454 15.4159L13.704 18.0176C13.9996 18.2478 14.3636 18.3729 14.7383 18.3732C15.1309 18.3727 15.5115 18.2373 15.8161 17.9895C16.1208 17.7418 16.331 17.3968 16.4115 17.0125L19.1304 3.66541C19.192 3.36501 19.1708 3.05351 19.069 2.76423C18.9672 2.47496 18.7887 2.2188 18.5526 2.02315V2.02315ZM7.80716 12.2803C7.69162 12.3954 7.61263 12.5421 7.58011 12.7019L7.32219 13.9552L6.66881 11.7943L10.0565 10.0302L7.80716 12.2803ZM14.7253 16.7L10.7564 13.6255C10.5903 13.4972 10.382 13.4362 10.173 13.4546C9.96396 13.473 9.76953 13.5694 9.62845 13.7248L8.90727 14.5208L9.16214 13.2821L15.0646 7.37958C15.2055 7.23888 15.2914 7.05237 15.3066 6.85384C15.3218 6.65532 15.2655 6.45789 15.1477 6.29734C15.03 6.13678 14.8586 6.02371 14.6647 5.9786C14.4707 5.9335 14.267 5.95934 14.0905 6.05145L5.61946 10.462L2.51582 9.32622L17.4979 3.33254L14.7253 16.7Z" fill="#0D3B3F"/>
</svg>
