<svg width="32" height="32" viewBox="0 0 32 32" fill="none" xmlns="http://www.w3.org/2000/svg">
<g id="prime:telegram">
<path id="Vector" d="M16 2C13.2311 2 10.5243 2.82109 8.22202 4.35943C5.91973 5.89776 4.12532 8.08427 3.06569 10.6424C2.00607 13.2006 1.72882 16.0155 2.26901 18.7313C2.80921 21.447 4.14258 23.9416 6.10051 25.8995C8.05844 27.8574 10.553 29.1908 13.2687 29.731C15.9845 30.2712 18.7994 29.9939 21.3576 28.9343C23.9157 27.8747 26.1022 26.0803 27.6406 23.778C29.1789 21.4757 30 18.7689 30 16C30 12.287 28.525 8.72601 25.8995 6.1005C23.274 3.475 19.713 2 16 2ZM22.8775 11.59L20.585 22.4225C20.41 23.1925 19.955 23.3675 19.3075 23.0175L15.8075 20.4275L14.0575 22.055C13.9751 22.1627 13.8692 22.2502 13.7479 22.3108C13.6266 22.3715 13.4931 22.4037 13.3575 22.405L13.6025 18.905L20.0775 13.0425C20.375 12.7975 20.0775 12.6575 19.6575 12.9025L11.7125 17.89L8.2125 16.805C7.46001 16.5775 7.4425 16.0525 8.37 15.7025L21.8625 10.4525C22.5275 10.26 23.0875 10.645 22.8775 11.59Z" fill="#2563EB"/>
</g>
</svg>
