<svg width="39" height="38" viewBox="0 0 39 38" fill="none" xmlns="http://www.w3.org/2000/svg">
<g id="eos-icons:master-outlined">
<path id="Vector" d="M6.235 30.1187H31.7986V32.9335H6.235V30.1187ZM31.7986 28.7113H6.235L5.02356 12.9624C4.56361 12.7474 4.17031 12.4141 3.88474 11.9971C3.59918 11.5801 3.43181 11.0948 3.40011 10.5918C3.36842 10.0889 3.47357 9.58669 3.70457 9.13774C3.93558 8.68879 4.28397 8.30953 4.71337 8.03957C5.14278 7.7696 5.63744 7.61882 6.14572 7.60298C6.65399 7.58714 7.15724 7.70682 7.60291 7.94952C8.04858 8.19221 8.42033 8.54903 8.67935 8.98271C8.93836 9.41638 9.07514 9.91102 9.0754 10.415C9.07524 10.5564 9.06384 10.6976 9.04131 10.8372L12.9284 13.918L16.567 7.60437C16.3101 7.1776 16.1751 6.68967 16.1764 6.19274C16.1764 5.44621 16.4757 4.73025 17.0083 4.20237C17.541 3.67449 18.2635 3.37793 19.0168 3.37793C19.7701 3.37793 20.4926 3.67449 21.0253 4.20237C21.558 4.73025 21.8572 5.44621 21.8572 6.19274C21.8585 6.6903 21.723 7.1788 21.4652 7.60578L25.0981 13.918L28.9909 10.8358C28.9689 10.6966 28.9579 10.5559 28.9582 10.415C28.9585 9.91102 29.0953 9.41638 29.3543 8.98271C29.6133 8.54903 29.985 8.19221 30.4307 7.94952C30.8764 7.70682 31.3796 7.58714 31.8879 7.60298C32.3962 7.61882 32.8908 7.7696 33.3202 8.03957C33.7496 8.30953 34.098 8.68879 34.329 9.13774C34.5601 9.58669 34.6652 10.0889 34.6335 10.5918C34.6018 11.0948 34.4344 11.5801 34.1489 11.9971C33.8633 12.4141 33.47 12.7474 33.0101 12.9624L31.7986 28.7113ZM8.96178 25.8964H29.0718L30.1086 13.5535L24.2772 18.1712L19.0168 9.03148L13.7479 18.1712L7.92504 13.5549L8.96178 25.8964Z" fill="#37A67E"/>
</g>
</svg>
