<svg width="24" height="24" viewBox="0 0 20 20" fill="none" xmlns="http://www.w3.org/2000/svg">
<g id="u:angle-right">
<path id="Vector" d="M9.17 11.29L13.41 7.05001C13.503 6.95628 13.6136 6.88189 13.7354 6.83112C13.8573 6.78035 13.988 6.75421 14.12 6.75421C14.252 6.75421 14.3827 6.78035 14.5046 6.83112C14.6264 6.88189 14.737 6.95628 14.83 7.05001C15.0162 7.23737 15.1208 7.49082 15.1208 7.75501C15.1208 8.0192 15.0162 8.27265 14.83 8.46001L11.29 12L14.83 15.54C15.0162 15.7274 15.1208 15.9808 15.1208 16.245C15.1208 16.5092 15.0162 16.7626 14.83 16.95C14.7366 17.0427 14.6257 17.116 14.5039 17.1658C14.3821 17.2155 14.2516 17.2408 14.12 17.24C13.9884 17.2408 13.8579 17.2155 13.7361 17.1658C13.6143 17.116 13.5034 17.0427 13.41 16.95L9.17 12.71C9.07627 12.617 9.00187 12.5064 8.95111 12.3846C8.90034 12.2627 8.8742 12.132 8.8742 12C8.8742 11.868 8.90034 11.7373 8.95111 11.6154C9.00187 11.4936 9.07627 11.383 9.17 11.29Z" fill="#0D3B3F"/>
</g>
</svg>
