<svg width="16" height="16" viewBox="0 0 16 16" fill="none" xmlns="http://www.w3.org/2000/svg">
<g id="u:bag-alt">
<path id="Vector" d="M12.6673 4.33317H10.6673V3.6665C10.6673 3.13607 10.4566 2.62736 10.0815 2.25229C9.70646 1.87722 9.19775 1.6665 8.66732 1.6665H7.33398C6.80355 1.6665 6.29484 1.87722 5.91977 2.25229C5.5447 2.62736 5.33398 3.13607 5.33398 3.6665V4.33317H3.33398C2.80355 4.33317 2.29484 4.54388 1.91977 4.91896C1.5447 5.29403 1.33398 5.80274 1.33398 6.33317V12.3332C1.33398 12.8636 1.5447 13.3723 1.91977 13.7474C2.29484 14.1225 2.80355 14.3332 3.33398 14.3332H12.6673C13.1978 14.3332 13.7065 14.1225 14.0815 13.7474C14.4566 13.3723 14.6673 12.8636 14.6673 12.3332V6.33317C14.6673 5.80274 14.4566 5.29403 14.0815 4.91896C13.7065 4.54388 13.1978 4.33317 12.6673 4.33317ZM6.66732 3.6665C6.66732 3.48969 6.73756 3.32012 6.86258 3.1951C6.9876 3.07008 7.15717 2.99984 7.33398 2.99984H8.66732C8.84413 2.99984 9.0137 3.07008 9.13872 3.1951C9.26375 3.32012 9.33398 3.48969 9.33398 3.6665V4.33317H6.66732V3.6665ZM13.334 12.3332C13.334 12.51 13.2637 12.6796 13.1387 12.8046C13.0137 12.9296 12.8441 12.9998 12.6673 12.9998H3.33398C3.15717 12.9998 2.9876 12.9296 2.86258 12.8046C2.73756 12.6796 2.66732 12.51 2.66732 12.3332V8.6665C4.36482 9.33993 6.17444 9.68602 8.00065 9.6865C9.8268 9.68538 11.6363 9.33931 13.334 8.6665V12.3332ZM13.334 7.2065C11.6529 7.94502 9.83679 8.32636 8.00065 8.32636C6.16451 8.32636 4.34839 7.94502 2.66732 7.2065V6.33317C2.66732 6.15636 2.73756 5.98679 2.86258 5.86177C2.9876 5.73674 3.15717 5.6665 3.33398 5.6665H12.6673C12.8441 5.6665 13.0137 5.73674 13.1387 5.86177C13.2637 5.98679 13.334 6.15636 13.334 6.33317V7.2065Z" fill="#121212"/>
</g>
</svg>
