<svg width="20" height="20" viewBox="0 0 20 20" fill="none" xmlns="http://www.w3.org/2000/svg">
<g id="u:location-point">
<path id="Vector" d="M15.0008 3.73318C13.6747 2.40709 11.8761 1.66211 10.0008 1.66211C8.12539 1.66211 6.32684 2.40709 5.00076 3.73318C3.67467 5.05926 2.92969 6.85781 2.92969 8.73318C2.92969 10.6085 3.67467 12.4071 5.00076 13.7332L9.39242 18.1332C9.46989 18.2113 9.56206 18.2733 9.66361 18.3156C9.76516 18.3579 9.87408 18.3797 9.98409 18.3797C10.0941 18.3797 10.203 18.3579 10.3046 18.3156C10.4061 18.2733 10.4983 18.2113 10.5758 18.1332L15.0008 13.6915C16.3213 12.3709 17.0632 10.5799 17.0632 8.71234C17.0632 6.8448 16.3213 5.05374 15.0008 3.73318ZM13.8091 12.4998L10.0008 16.3248L6.19242 12.4998C5.44004 11.7468 4.92782 10.7875 4.7205 9.74342C4.51318 8.69929 4.62008 7.61713 5.02768 6.63374C5.43527 5.65036 6.12527 4.80989 7.01045 4.21857C7.89563 3.62726 8.93624 3.31166 10.0008 3.31166C11.0653 3.31166 12.1059 3.62726 12.9911 4.21857C13.8762 4.80989 14.5662 5.65036 14.9738 6.63374C15.3814 7.61713 15.4883 8.69929 15.281 9.74342C15.0737 10.7875 14.5615 11.7468 13.8091 12.4998ZM7.50075 6.17484C6.82802 6.84965 6.45025 7.76365 6.45025 8.71651C6.45025 9.66937 6.82802 10.5834 7.50075 11.2582C8.00056 11.7588 8.63708 12.1007 9.33046 12.241C10.0238 12.3813 10.7432 12.3137 11.3983 12.0466C12.0534 11.7796 12.6151 11.3251 13.0128 10.7401C13.4106 10.155 13.6267 9.46557 13.6341 8.75818C13.6378 8.28585 13.5469 7.81756 13.3665 7.381C13.1862 6.94444 12.9201 6.54847 12.5841 6.21651C12.2538 5.87866 11.86 5.60946 11.4253 5.4244C10.9906 5.23934 10.5235 5.14207 10.0511 5.1382C9.57864 5.13433 9.11009 5.22392 8.6724 5.40183C8.23471 5.57974 7.83652 5.84245 7.50075 6.17484ZM11.4091 10.0748C11.0933 10.3955 10.6759 10.5964 10.2284 10.6434C9.78079 10.6903 9.33081 10.5804 8.95534 10.3323C8.57988 10.0842 8.30225 9.71338 8.16993 9.28325C8.0376 8.85311 8.0588 8.39037 8.22989 7.97414C8.40098 7.5579 8.71134 7.21402 9.10791 7.00129C9.50448 6.78856 9.96263 6.72018 10.404 6.80786C10.8454 6.89553 11.2427 7.13381 11.5278 7.48195C11.813 7.8301 11.9684 8.26649 11.9674 8.71651C11.9553 9.2309 11.7395 9.71945 11.3674 10.0748H11.4091Z" fill="black"/>
</g>
</svg>
