<svg width="20" height="20" viewBox="0 0 20 20" fill="none" xmlns="http://www.w3.org/2000/svg">
<g id="u:phone-alt">
<path id="Vector" d="M16.2008 10.8333C16.0175 10.8333 15.8258 10.775 15.6425 10.7333C15.2712 10.6515 14.9064 10.5429 14.5508 10.4083C14.1642 10.2677 13.7393 10.275 13.3577 10.4288C12.9762 10.5827 12.6651 10.8722 12.4841 11.2416L12.3008 11.6166C11.4892 11.1651 10.7433 10.6043 10.0842 9.94997C9.42979 9.29082 8.869 8.54497 8.41748 7.7333L8.76748 7.49997C9.13695 7.31907 9.42647 7.00791 9.58031 6.62638C9.73415 6.24485 9.74146 5.8199 9.60082 5.4333C9.4685 5.07699 9.35993 4.7123 9.27582 4.34164C9.23415 4.1583 9.20082 3.96664 9.17582 3.77497C9.07462 3.18799 8.76717 2.65642 8.30883 2.276C7.8505 1.89559 7.2714 1.69131 6.67582 1.69997H4.17582C3.81668 1.6966 3.46102 1.77065 3.13307 1.91708C2.80512 2.06351 2.51257 2.27888 2.27534 2.54854C2.03811 2.81819 1.86176 3.1358 1.75831 3.47973C1.65485 3.82367 1.62672 4.18585 1.67582 4.54164C2.11976 8.03279 3.71417 11.2765 6.20719 13.7605C8.70021 16.2445 11.9497 17.8271 15.4425 18.2583H15.7591C16.3737 18.2592 16.967 18.0337 17.4258 17.625C17.6895 17.3892 17.9001 17.1001 18.0437 16.7769C18.1874 16.4537 18.2608 16.1037 18.2591 15.75V13.25C18.2489 12.6711 18.0382 12.1138 17.6628 11.673C17.2874 11.2323 16.7707 10.9355 16.2008 10.8333ZM16.6175 15.8333C16.6173 15.9516 16.592 16.0686 16.5431 16.1763C16.4943 16.2841 16.423 16.3802 16.3342 16.4583C16.241 16.5387 16.1322 16.5988 16.0145 16.6346C15.8968 16.6705 15.7729 16.6814 15.6508 16.6666C12.5299 16.2665 9.63101 14.8387 7.41141 12.6085C5.19181 10.3784 3.77782 7.47275 3.39248 4.34997C3.37922 4.2279 3.39084 4.10441 3.42665 3.98696C3.46246 3.86951 3.52171 3.76054 3.60082 3.66664C3.67891 3.57775 3.77503 3.50651 3.8828 3.45765C3.99056 3.4088 4.1075 3.38345 4.22582 3.3833H6.72582C6.9196 3.37899 7.10884 3.44237 7.26094 3.56253C7.41304 3.68269 7.51849 3.85211 7.55915 4.04164C7.59248 4.26942 7.63415 4.49442 7.68415 4.71664C7.78042 5.15593 7.90853 5.58762 8.06748 6.00831L6.90082 6.54997C6.80106 6.59574 6.71133 6.66076 6.63678 6.7413C6.56223 6.82184 6.50432 6.91632 6.46638 7.0193C6.42843 7.12228 6.41121 7.23175 6.41569 7.34141C6.42017 7.45107 6.44627 7.55876 6.49248 7.6583C7.69182 10.2273 9.75685 12.2923 12.3258 13.4916C12.5287 13.575 12.7563 13.575 12.9592 13.4916C13.0631 13.4545 13.1586 13.397 13.2401 13.3226C13.3217 13.2482 13.3876 13.1584 13.4342 13.0583L13.9508 11.8916C14.3816 12.0457 14.8213 12.1737 15.2675 12.275C15.4897 12.325 15.7147 12.3666 15.9425 12.4C16.132 12.4406 16.3014 12.5461 16.4216 12.6982C16.5417 12.8503 16.6051 13.0395 16.6008 13.2333L16.6175 15.8333Z" fill="black"/>
</g>
</svg>
