<svg width="20" height="20" viewBox="0 0 20 20" fill="none" xmlns="http://www.w3.org/2000/svg">
<path d="M8.97786 8.63518L7.69078 9.91666H9.50703H15.832C15.8541 9.91666 15.8753 9.92544 15.891 9.94107C15.9066 9.9567 15.9154 9.9779 15.9154 10C15.9154 10.0221 15.9066 10.0433 15.891 10.0589C15.8753 10.0746 15.8541 10.0833 15.832 10.0833H9.50703H7.69078L8.97786 11.3648L10.8945 13.2732L10.8955 13.2742C10.9034 13.2819 10.9096 13.2911 10.9138 13.3013L11.596 13.0171L10.9138 13.3013C10.918 13.3114 10.9202 13.3223 10.9202 13.3333C10.9202 13.3443 10.918 13.3552 10.9138 13.3654L11.5868 13.6458L10.9138 13.3654C10.9096 13.3755 10.9034 13.3847 10.8955 13.3925L10.8955 13.3925L10.8912 13.3968C10.8834 13.4047 10.8742 13.4109 10.8641 13.4151C10.8539 13.4193 10.843 13.4215 10.832 13.4215C10.821 13.4215 10.8101 13.4193 10.8 13.4151C10.7898 13.4109 10.7806 13.4047 10.7729 13.3968L10.7707 13.3947L7.44616 10.0701C7.43983 10.0629 7.4348 10.0545 7.43131 10.0455L7.42861 10.0386L7.42577 10.0317C7.41744 10.0114 7.41744 9.98862 7.42577 9.96833L7.42861 9.96142L7.43131 9.95446C7.4348 9.94546 7.43983 9.93713 7.44616 9.92986L10.7707 6.60533C10.7787 6.59727 10.7883 6.59088 10.7988 6.58652L10.5118 5.89361L10.7988 6.58652C10.8094 6.58216 10.8206 6.57992 10.832 6.57992C10.8434 6.57992 10.8547 6.58216 10.8652 6.58652C10.8758 6.59088 10.8853 6.59727 10.8934 6.60533C10.9014 6.61339 10.9078 6.62295 10.9122 6.63346L10.9122 6.63347C10.9165 6.64399 10.9188 6.65527 10.9188 6.66666C10.9188 6.67806 10.9165 6.68934 10.9122 6.69986L10.9122 6.69986C10.9079 6.71025 10.9016 6.71971 10.8937 6.72771C10.8936 6.72781 10.8935 6.72791 10.8934 6.728L8.97786 8.63518ZM15.4028 2.92923L15.9331 2.3989L15.4028 2.92923C15.731 3.25742 15.9154 3.70253 15.9154 4.16666V6.66666C15.9154 6.68877 15.9066 6.70996 15.891 6.72559C15.8753 6.74122 15.8541 6.75 15.832 6.75C15.8099 6.75 15.7887 6.74122 15.7731 6.72559C15.7575 6.70996 15.7487 6.68877 15.7487 6.66666V4.16666C15.7487 3.74674 15.5819 3.34401 15.285 3.04708C14.988 2.75015 14.5853 2.58333 14.1654 2.58333H5.83203C5.4121 2.58333 5.00938 2.75015 4.71245 3.04708C4.41551 3.34401 4.2487 3.74674 4.2487 4.16666V15.8333C4.2487 16.2533 4.41551 16.656 4.71245 16.9529C5.00938 17.2499 5.41211 17.4167 5.83203 17.4167H14.1654C14.5853 17.4167 14.988 17.2499 15.2849 16.9529C15.5819 16.656 15.7487 16.2533 15.7487 15.8333V13.3333C15.7487 13.3112 15.7575 13.29 15.7731 13.2744C15.7887 13.2588 15.8099 13.25 15.832 13.25C15.8541 13.25 15.8753 13.2588 15.891 13.2744C15.9066 13.29 15.9154 13.3112 15.9154 13.3333V15.8333C15.9154 16.2975 15.731 16.7426 15.4028 17.0708C15.0746 17.399 14.6295 17.5833 14.1654 17.5833H5.83203C5.3679 17.5833 4.92278 17.399 4.59459 17.0708C4.26641 16.7426 4.08203 16.2975 4.08203 15.8333V4.16666C4.08203 3.70254 4.26641 3.25742 4.59459 2.92923C4.92278 2.60104 5.3679 2.41666 5.83203 2.41666H14.1654C14.6295 2.41666 15.0746 2.60104 15.4028 2.92923Z" fill="#0B3A48" stroke="#0B3A48" stroke-width="1.5"/>
</svg>
