<svg width="24" height="24" viewBox="0 0 24 24" fill="none" xmlns="http://www.w3.org/2000/svg">
<g id="fi:upload-cloud" clip-path="url(#clip0_1198_6948)">
<path id="Vector" d="M16 16L12 12L8 16" stroke="#0D3B3F" stroke-width="2" stroke-linecap="round" stroke-linejoin="round"/>
<path id="Vector_2" d="M12 12V21" stroke="#0D3B3F" stroke-width="2" stroke-linecap="round" stroke-linejoin="round"/>
<path id="Vector_3" d="M20.3904 18.39C21.3658 17.8583 22.1363 17.0169 22.5803 15.9986C23.0244 14.9804 23.1167 13.8432 22.8427 12.7667C22.5686 11.6901 21.9439 10.7355 21.0671 10.0534C20.1903 9.37137 19.1113 9.00072 18.0004 8.99998H16.7404C16.4378 7.82923 15.8736 6.74232 15.0904 5.82098C14.3072 4.89964 13.3253 4.16783 12.2185 3.68059C11.1118 3.19335 9.909 2.96334 8.70057 3.00787C7.49213 3.05239 6.30952 3.37028 5.24163 3.93765C4.17374 4.50501 3.24836 5.30709 2.53507 6.28357C1.82178 7.26004 1.33914 8.38552 1.12343 9.57538C0.907718 10.7652 0.964554 11.9885 1.28966 13.1532C1.61477 14.318 2.19969 15.3938 3.00045 16.3" stroke="#0D3B3F" stroke-width="2" stroke-linecap="round" stroke-linejoin="round"/>
<path id="Vector_4" d="M16 16L12 12L8 16" stroke="#0D3B3F" stroke-width="2" stroke-linecap="round" stroke-linejoin="round"/>
</g>
<defs>
<clipPath id="clip0_1198_6948">
<rect width="24" height="24" fill="white"/>
</clipPath>
</defs>
</svg>
