<svg width="20" height="20" viewBox="0 0 20 20" fill="none" xmlns="http://www.w3.org/2000/svg">
<g id="user">
<g id="user_2">
<path fill-rule="evenodd" clip-rule="evenodd" d="M13.3346 5.83333C13.3346 7.67428 11.8423 9.16667 10.0013 9.16667C8.16035 9.16667 6.66797 7.67428 6.66797 5.83333C6.66797 3.99238 8.16035 2.5 10.0013 2.5C11.8423 2.5 13.3346 3.99238 13.3346 5.83333ZM11.668 5.83333C11.668 6.75381 10.9218 7.5 10.0013 7.5C9.08083 7.5 8.33464 6.75381 8.33464 5.83333C8.33464 4.91286 9.08083 4.16667 10.0013 4.16667C10.9218 4.16667 11.668 4.91286 11.668 5.83333Z" fill="#0D3B3F"/>
<path d="M14.168 12.5C14.168 12.0398 13.7949 11.6667 13.3346 11.6667H6.66797C6.20773 11.6667 5.83464 12.0398 5.83464 12.5V17.5H4.16797V12.5C4.16797 11.1193 5.28726 10 6.66797 10H13.3346C14.7153 10 15.8346 11.1193 15.8346 12.5V17.5H14.168V12.5Z" fill="#0D3B3F"/>
</g>
</g>
</svg>
