<svg width="28" height="28" viewBox="0 0 28 28" fill="none" xmlns="http://www.w3.org/2000/svg">
<g id="u:user-plus">
<path id="Vector" d="M3.49999 12.25H4.66666V11.0833C4.66666 10.7739 4.78957 10.4772 5.00837 10.2584C5.22716 10.0396 5.5239 9.91666 5.83332 9.91666C6.14274 9.91666 6.43949 10.0396 6.65828 10.2584C6.87708 10.4772 6.99999 10.7739 6.99999 11.0833V12.25H8.16666C8.47608 12.25 8.77282 12.3729 8.99162 12.5917C9.21041 12.8105 9.33332 13.1072 9.33332 13.4167C9.33332 13.7261 9.21041 14.0228 8.99162 14.2416C8.77282 14.4604 8.47608 14.5833 8.16666 14.5833H6.99999V15.75C6.99999 16.0594 6.87708 16.3562 6.65828 16.575C6.43949 16.7937 6.14274 16.9167 5.83332 16.9167C5.5239 16.9167 5.22716 16.7937 5.00837 16.575C4.78957 16.3562 4.66666 16.0594 4.66666 15.75V14.5833H3.49999C3.19057 14.5833 2.89382 14.4604 2.67503 14.2416C2.45624 14.0228 2.33332 13.7261 2.33332 13.4167C2.33332 13.1072 2.45624 12.8105 2.67503 12.5917C2.89382 12.3729 3.19057 12.25 3.49999 12.25ZM12.4833 14.2567C11.8608 13.7178 11.3615 13.0514 11.0193 12.3025C10.6771 11.5537 10.5 10.74 10.5 9.91666C10.5 8.36957 11.1146 6.88583 12.2085 5.79187C13.3025 4.69791 14.7862 4.08333 16.3333 4.08333C17.8804 4.08333 19.3642 4.69791 20.4581 5.79187C21.5521 6.88583 22.1667 8.36957 22.1667 9.91666C22.1667 10.74 21.9896 11.5537 21.6473 12.3025C21.3051 13.0514 20.8058 13.7178 20.1833 14.2567C21.8165 14.9962 23.2021 16.1904 24.1745 17.6966C25.1469 19.2028 25.6649 20.9572 25.6667 22.75C25.6667 23.0594 25.5437 23.3562 25.3249 23.575C25.1062 23.7937 24.8094 23.9167 24.5 23.9167C24.1906 23.9167 23.8938 23.7937 23.675 23.575C23.4562 23.3562 23.3333 23.0594 23.3333 22.75C23.3333 20.8935 22.5958 19.113 21.2831 17.8002C19.9703 16.4875 18.1898 15.75 16.3333 15.75C14.4768 15.75 12.6963 16.4875 11.3836 17.8002C10.0708 19.113 9.33332 20.8935 9.33332 22.75C9.33332 23.0594 9.21041 23.3562 8.99162 23.575C8.77282 23.7937 8.47608 23.9167 8.16666 23.9167C7.85724 23.9167 7.56049 23.7937 7.3417 23.575C7.12291 23.3562 6.99999 23.0594 6.99999 22.75C7.00171 20.9572 7.51974 19.2028 8.49213 17.6966C9.46453 16.1904 10.8502 14.9962 12.4833 14.2567ZM16.3333 13.4167C17.0256 13.4167 17.7022 13.2114 18.2778 12.8268C18.8534 12.4422 19.302 11.8956 19.5669 11.2561C19.8318 10.6165 19.9011 9.91278 19.7661 9.23385C19.631 8.55491 19.2977 7.93127 18.8082 7.44179C18.3187 6.9523 17.6951 6.61896 17.0161 6.48391C16.3372 6.34887 15.6335 6.41818 14.9939 6.68308C14.3544 6.94799 13.8078 7.39659 13.4232 7.97217C13.0386 8.54774 12.8333 9.22443 12.8333 9.91666C12.8333 10.8449 13.2021 11.7352 13.8584 12.3915C14.5148 13.0479 15.4051 13.4167 16.3333 13.4167Z" fill="#4AAF3E"/>
</g>
</svg>
