<svg width="48" height="36" viewBox="0 0 48 36" fill="none" xmlns="http://www.w3.org/2000/svg">
<g id="uz Uzbekistan">
<g clip-path="url(#clip0_343_4869)">
<path id="Vector" d="M0 24H48V36H0V24Z" fill="#1EB53A"/>
<path id="Vector_2" d="M0 0H48V12H0V0Z" fill="#0099B5"/>
<path id="Vector_3" d="M0 11.52H48V24.48H0V11.52Z" fill="#CE1126"/>
<path id="Vector_4" d="M0 12.24H48V23.76H0V12.24Z" fill="white"/>
<path id="Vector_5" d="M10.0798 10.0799C12.4656 10.0799 14.3998 8.14581 14.3998 5.75994C14.3998 3.37407 12.4656 1.43994 10.0798 1.43994C7.69389 1.43994 5.75977 3.37407 5.75977 5.75994C5.75977 8.14581 7.69389 10.0799 10.0798 10.0799Z" fill="white"/>
<path id="Vector_6" d="M11.5202 10.0799C13.9061 10.0799 15.8402 8.14581 15.8402 5.75994C15.8402 3.37407 13.9061 1.43994 11.5202 1.43994C9.13433 1.43994 7.2002 3.37407 7.2002 5.75994C7.2002 8.14581 9.13433 10.0799 11.5202 10.0799Z" fill="#0099B5"/>
<g id="Group">
<g id="e">
<g id="d">
<g id="c">
<g id="b">
<path id="a" d="M19.5827 8.35352L19.3091 9.17432L19.7267 9.31832" fill="white"/>
</g>
</g>
</g>
</g>
</g>
</g>
</g>
<defs>
<clipPath id="clip0_343_4869">
<rect width="48" height="36" rx="6" fill="white"/>
</clipPath>
</defs>
</svg>
