<svg width="32" height="32" viewBox="0 0 32 32" fill="none" xmlns="http://www.w3.org/2000/svg">
<path d="M15.9998 1C9.6498 1 4.2498 4.95 2.0498 10.5H29.9498C27.7498 4.95 22.3498 1 15.9998 1Z" fill="#42ADE2"/>
<path d="M15.9998 31C22.3498 31 27.7498 27.05 29.9498 21.5H2.0498C4.2498 27.05 9.6498 31 15.9998 31Z" fill="#83BF4F"/>
<path d="M31 16C31 14.45 30.75 12.9 30.3 11.5H1.7C1.25 12.9 1 14.45 1 16C1 17.55 1.25 19.1 1.7 20.5H30.3C30.75 19.1 31 17.55 31 16Z" fill="white"/>
<path d="M29.9502 10.5C30.0002 10.65 30.1002 10.85 30.1502 11C30.2002 11.15 30.2502 11.35 30.3002 11.5" fill="#C94747"/>
<path d="M30.1502 11C30.1002 10.85 30.0002 10.65 29.9502 10.5H2.0502C2.0002 10.65 1.9002 10.85 1.8502 11C1.8002 11.15 1.7502 11.35 1.7002 11.5H30.3002C30.2502 11.35 30.2002 11.15 30.1502 11ZM1.8502 21C1.9002 21.15 2.0002 21.35 2.0502 21.5H29.9502C30.0002 21.35 30.1002 21.15 30.1502 21C30.2002 20.85 30.2502 20.65 30.3002 20.5H1.7002C1.7502 20.65 1.8002 20.85 1.8502 21Z" fill="#C94747"/>
<path d="M10.2 8.65C9 8.65 8.05 7.7 8.05 6.5C8.05 5.3 9 4.35 10.2 4.35C10.5 4.35 10.75 4.4 11 4.5C10.6 4.2 10.05 4 9.5 4C8.1 4 7 5.1 7 6.5C7 7.9 8.1 9 9.5 9C10.05 9 10.6 8.8 11 8.5C10.75 8.6 10.5 8.65 10.2 8.65ZM12.35 7.6L12.55 8.15H13.1L12.65 8.45L12.8 9L12.35 8.65L11.9 9L12.1 8.45L11.65 8.15H12.2L12.35 7.6ZM14.5 7.6L14.65 8.15H15.25L14.8 8.45L14.95 9L14.5 8.65L14.05 9L14.2 8.45L13.75 8.15H14.3L14.5 7.6ZM16.65 7.6L16.8 8.15H17.35L16.9 8.45L17.1 9L16.65 8.65L16.15 9L16.35 8.45L15.9 8.15H16.45L16.65 7.6ZM18.75 7.6L18.95 8.15H19.5L19.05 8.45L19.2 9L18.75 8.65L18.3 9L18.45 8.45L18 8.15H18.6L18.75 7.6ZM20.9 7.6L21.05 8.15H21.65L21.15 8.45L21.35 9L20.9 8.65L20.45 9L20.6 8.45L20.15 8.15H20.7L20.9 7.6ZM14.5 5.8L14.65 6.35H15.25L14.8 6.65L14.95 7.2L14.5 6.85L14.05 7.2L14.2 6.65L13.75 6.35H14.3L14.5 5.8ZM16.65 5.8L16.8 6.35H17.35L16.9 6.65L17.1 7.2L16.65 6.85L16.15 7.2L16.35 6.65L15.9 6.35H16.45L16.65 5.8ZM18.75 5.8L18.95 6.35H19.5L19.05 6.65L19.2 7.2L18.75 6.85L18.3 7.2L18.45 6.65L18 6.35H18.6L18.75 5.8ZM20.9 5.8L21.05 6.35H21.65L21.15 6.65L21.35 7.2L20.9 6.85L20.45 7.2L20.6 6.65L20.15 6.35H20.7L20.9 5.8ZM16.65 4L16.8 4.55H17.35L16.9 4.85L17.1 5.4L16.65 5.05L16.15 5.4L16.35 4.85L15.9 4.55H16.45L16.65 4ZM18.75 4L18.95 4.55H19.5L19.05 4.85L19.2 5.4L18.75 5.05L18.3 5.4L18.45 4.85L18 4.55H18.6L18.75 4ZM20.9 4L21.05 4.55H21.65L21.15 4.85L21.35 5.4L20.9 5.05L20.45 5.4L20.6 4.85L20.15 4.55H20.7L20.9 4Z" fill="white"/>
</svg>
