<svg width="81" height="15" viewBox="0 0 81 15" fill="none" xmlns="http://www.w3.org/2000/svg">
<path d="M2.16797 8.72924C3.18717 8.62732 4.25554 7.2506 5.05706 6.67304C6.36876 5.72784 7.89388 4.64132 9.41672 4.07026C11.8429 3.16044 14.1363 3.05902 16.6915 3.10723C18.2196 3.13606 19.3284 5.03561 20.1011 6.13947C20.9316 7.3258 22.325 8.42656 23.5889 9.09363C25.2929 9.99296 27.9942 10.2864 29.8876 10.1217C31.4339 9.98727 32.8001 8.52658 33.974 7.68813C35.2443 6.78073 40.7475 0.438683 42.459 2.69078C42.9925 3.39268 43.765 3.87249 44.4372 4.43465C45.6378 5.43879 46.7464 6.9732 48.068 7.76621C49.5934 8.68142 50.7177 10.367 52.3496 11.0717C54.4568 11.9816 55.9877 12.3977 58.336 12.23C59.6587 12.1355 61.1842 11.0141 62.3703 10.421C62.8012 10.2056 63.3182 9.7649 63.6978 9.45802C65.4978 8.00266 67.2604 6.47804 68.9944 4.94219C70.1159 3.94889 71.2353 3.34148 72.6774 3.34148C73.3628 3.34148 74.0482 3.34148 74.7336 3.34148C75.6411 3.34148 75.7876 3.62654 76.5295 4.03122C77.4014 4.50684 78.1218 5.62481 79.0021 5.91823" stroke="#EEEEEE" stroke-width="3.91286" stroke-linecap="round"/>
</svg>
