<svg width="39" height="38" viewBox="0 0 39 38" fill="none" xmlns="http://www.w3.org/2000/svg">
<g id="u:bag-alt">
<path id="Vector" d="M30.099 10.2916H25.349V8.70831C25.349 7.44853 24.8485 6.24035 23.9577 5.34956C23.0669 4.45876 21.8587 3.95831 20.599 3.95831H17.4323C16.1725 3.95831 14.9643 4.45876 14.0735 5.34956C13.1827 6.24035 12.6823 7.44853 12.6823 8.70831V10.2916H7.9323C6.67252 10.2916 5.46434 10.7921 4.57354 11.6829C3.68274 12.5737 3.1823 13.7819 3.1823 15.0416V29.2916C3.1823 30.5514 3.68274 31.7596 4.57354 32.6504C5.46434 33.5412 6.67252 34.0416 7.9323 34.0416H30.099C31.3587 34.0416 32.5669 33.5412 33.4577 32.6504C34.3485 31.7596 34.849 30.5514 34.849 29.2916V15.0416C34.849 13.7819 34.3485 12.5737 33.4577 11.6829C32.5669 10.7921 31.3587 10.2916 30.099 10.2916ZM15.849 8.70831C15.849 8.28839 16.0158 7.88566 16.3127 7.58873C16.6096 7.2918 17.0124 7.12498 17.4323 7.12498H20.599C21.0189 7.12498 21.4216 7.2918 21.7185 7.58873C22.0155 7.88566 22.1823 8.28839 22.1823 8.70831V10.2916H15.849V8.70831ZM31.6823 29.2916C31.6823 29.7116 31.5155 30.1143 31.2185 30.4112C30.9216 30.7082 30.5189 30.875 30.099 30.875H7.9323C7.51237 30.875 7.10964 30.7082 6.81271 30.4112C6.51578 30.1143 6.34896 29.7116 6.34896 29.2916V20.5833C10.3805 22.1827 14.6784 23.0047 19.0156 23.0058C23.3527 23.0031 27.6503 22.1812 31.6823 20.5833V29.2916ZM31.6823 17.1158C27.6898 18.8698 23.3765 19.7755 19.0156 19.7755C14.6548 19.7755 10.3415 18.8698 6.34896 17.1158V15.0416C6.34896 14.6217 6.51578 14.219 6.81271 13.9221C7.10964 13.6251 7.51237 13.4583 7.9323 13.4583H30.099C30.5189 13.4583 30.9216 13.6251 31.2185 13.9221C31.5155 14.219 31.6823 14.6217 31.6823 15.0416V17.1158Z" fill="#37A67E"/>
</g>
</svg>
