<svg width="39" height="38" viewBox="0 0 39 38" fill="none" xmlns="http://www.w3.org/2000/svg">
<path d="M6.23493 30.1187H31.7986V32.9335H6.23493V30.1187ZM31.7986 28.7113H6.23493L5.0235 12.9624C4.56355 12.7474 4.17025 12.4141 3.88468 11.9971C3.59911 11.5801 3.43175 11.0948 3.40005 10.5918C3.36836 10.0889 3.47351 9.58669 3.70451 9.13774C3.93552 8.68879 4.28391 8.30953 4.71331 8.03957C5.14271 7.7696 5.63738 7.61882 6.14565 7.60298C6.65393 7.58714 7.15718 7.70682 7.60285 7.94952C8.04852 8.19221 8.42027 8.54903 8.67928 8.98271C8.9383 9.41638 9.07508 9.91102 9.07534 10.415C9.07518 10.5564 9.06378 10.6976 9.04125 10.8372L12.9283 13.918L16.5669 7.60437C16.31 7.1776 16.175 6.68967 16.1763 6.19274C16.1763 5.44621 16.4756 4.73025 17.0083 4.20237C17.541 3.67449 18.2634 3.37793 19.0167 3.37793C19.7701 3.37793 20.4925 3.67449 21.0252 4.20237C21.5579 4.73025 21.8572 5.44621 21.8572 6.19274C21.8584 6.6903 21.7229 7.1788 21.4652 7.60578L25.0981 13.918L28.9908 10.8358C28.9688 10.6966 28.9579 10.5559 28.9582 10.415C28.9584 9.91102 29.0952 9.41638 29.3542 8.98271C29.6132 8.54903 29.985 8.19221 30.4306 7.94952C30.8763 7.70682 31.3796 7.58714 31.8878 7.60298C32.3961 7.61882 32.8908 7.7696 33.3202 8.03957C33.7496 8.30953 34.098 8.68879 34.329 9.13774C34.56 9.58669 34.6651 10.0889 34.6334 10.5918C34.6018 11.0948 34.4344 11.5801 34.1488 11.9971C33.8632 12.4141 33.47 12.7474 33.01 12.9624L31.7986 28.7113ZM8.96172 25.8964H29.0718L30.1085 13.5535L24.2772 18.1712L19.0167 9.03148L13.7478 18.1712L7.92497 13.5549L8.96172 25.8964Z" fill="#37A67E"/>
</svg>
