<svg width="33" height="32" viewBox="0 0 33 32" fill="none" xmlns="http://www.w3.org/2000/svg">
<g id="u:user">
<path id="Vector" d="M20.9623 16.9467C22.2695 15.9182 23.2236 14.5079 23.6919 12.9119C24.1603 11.316 24.1195 9.61371 23.5753 8.04198C23.0312 6.47025 22.0106 5.10721 20.6557 4.1425C19.3008 3.17778 17.6789 2.65936 16.0156 2.65936C14.3524 2.65936 12.7304 3.17778 11.3755 4.1425C10.0206 5.10721 9.00008 6.47025 8.4559 8.04198C7.91173 9.61371 7.87097 11.316 8.3393 12.9119C8.80763 14.5079 9.76176 15.9182 11.069 16.9467C8.82906 17.8441 6.87467 19.3325 5.41414 21.2532C3.95362 23.174 3.0417 25.4551 2.77562 27.8534C2.75636 28.0285 2.77178 28.2056 2.82099 28.3748C2.8702 28.5439 2.95224 28.7017 3.06244 28.8391C3.28498 29.1167 3.60867 29.2945 3.96229 29.3334C4.31591 29.3723 4.6705 29.2691 4.94805 29.0465C5.22561 28.824 5.40339 28.5003 5.44229 28.1467C5.73507 25.5403 6.97787 23.1331 8.93325 21.3851C10.8886 19.6371 13.4195 18.6707 16.0423 18.6707C18.6651 18.6707 21.196 19.6371 23.1513 21.3851C25.1067 23.1331 26.3495 25.5403 26.6423 28.1467C26.6785 28.4743 26.8349 28.7769 27.0811 28.996C27.3273 29.2152 27.646 29.3354 27.9756 29.3334H28.1223C28.4718 29.2931 28.7913 29.1164 29.011 28.8417C29.2308 28.567 29.3331 28.2165 29.2956 27.8667C29.0283 25.4616 28.1115 23.1747 26.6434 21.251C25.1754 19.3273 23.2115 17.8393 20.9623 16.9467ZM16.0156 16C14.9608 16 13.9296 15.6872 13.0526 15.1012C12.1755 14.5152 11.4919 13.6822 11.0883 12.7077C10.6846 11.7331 10.579 10.6608 10.7848 9.62621C10.9906 8.59164 11.4985 7.64133 12.2444 6.89545C12.9903 6.14957 13.9406 5.64162 14.9751 5.43584C16.0097 5.23005 17.0821 5.33567 18.0566 5.73933C19.0311 6.143 19.8641 6.82659 20.4501 7.70365C21.0362 8.58071 21.349 9.61186 21.349 10.6667C21.349 12.0812 20.7871 13.4377 19.7869 14.4379C18.7867 15.4381 17.4301 16 16.0156 16Z" fill="#37A67E"/>
</g>
</svg>
