<svg width="25" height="28" viewBox="0 0 25 28" fill="none" xmlns="http://www.w3.org/2000/svg">
<path d="M10.5833 2.15069C10.9773 -0.0502303 14.0227 -0.0502303 14.4167 2.15069C14.6985 3.72508 16.5535 4.34922 17.6752 3.24706C19.2432 1.7063 21.707 3.55995 20.7765 5.58035C20.1109 7.0256 21.2573 8.65964 22.7903 8.45069C24.9335 8.1586 25.8746 11.1579 23.9749 12.226C22.6161 12.9901 22.6161 15.0099 23.9749 15.774C25.8746 16.8421 24.9335 19.8414 22.7903 19.5493C21.2573 19.3404 20.1109 20.9744 20.7765 22.4196C21.707 24.4401 19.2432 26.2937 17.6752 24.7529C16.5535 23.6508 14.6985 24.2749 14.4167 25.8493C14.0227 28.0502 10.9773 28.0502 10.5833 25.8493C10.3015 24.2749 8.44646 23.6508 7.3248 24.7529C5.75678 26.2937 3.29299 24.4401 4.22351 22.4196C4.88915 20.9744 3.74269 19.3404 2.20965 19.5493C0.0665281 19.8414 -0.874555 16.8421 1.02506 15.774C2.38392 15.0099 2.38392 12.9901 1.02506 12.226C-0.874554 11.1579 0.0665281 8.1586 2.20965 8.45069C3.74269 8.65964 4.88915 7.0256 4.22351 5.58035C3.29299 3.55995 5.75678 1.7063 7.3248 3.24706C8.44646 4.34922 10.3015 3.72508 10.5833 2.15069Z" fill="#37A67E"/>
<path d="M17.4934 11.3074C17.4242 11.2371 17.3419 11.1813 17.2513 11.1433C17.1606 11.1052 17.0633 11.0856 16.9651 11.0856C16.8669 11.0856 16.7696 11.1052 16.679 11.1433C16.5883 11.1813 16.506 11.2371 16.4368 11.3074L10.8937 16.9024L8.56482 14.5474C8.493 14.4775 8.40822 14.4225 8.31532 14.3856C8.22243 14.3487 8.12323 14.3306 8.02339 14.3323C7.92355 14.3341 7.82503 14.3556 7.73346 14.3958C7.64188 14.4359 7.55904 14.4938 7.48967 14.5662C7.42029 14.6386 7.36574 14.724 7.32913 14.8177C7.29252 14.9113 7.27457 15.0113 7.2763 15.1119C7.27803 15.2126 7.2994 15.3119 7.3392 15.4042C7.379 15.4965 7.43645 15.58 7.50827 15.6499L10.3654 18.5299C10.4346 18.6002 10.5169 18.656 10.6075 18.6941C10.6982 18.7322 10.7955 18.7518 10.8937 18.7518C10.9919 18.7518 11.0892 18.7322 11.1798 18.6941C11.2705 18.656 11.3528 18.6002 11.422 18.5299L17.4934 12.4099C17.5689 12.3397 17.6292 12.2544 17.6704 12.1596C17.7116 12.0647 17.7329 11.9622 17.7329 11.8587C17.7329 11.7551 17.7116 11.6526 17.6704 11.5578C17.6292 11.4629 17.5689 11.3777 17.4934 11.3074Z" fill="white"/>
</svg>
