<svg width="100" height="100" viewBox="0 0 100 100" fill="none" xmlns="http://www.w3.org/2000/svg">
<circle cx="50" cy="50" r="50" fill="#F4F7F4"/>
<path d="M41 59C40.45 59 39.979 58.804 39.587 58.412C39.195 58.02 38.9993 57.5493 39 57V45C39 44.45 39.196 43.979 39.588 43.587C39.98 43.195 40.4507 42.9993 41 43H44.15L46 41H52V43H46.875L45.05 45H41V57H57V48H59V57C59 57.55 58.804 58.021 58.412 58.413C58.02 58.805 57.5493 59.0007 57 59H41ZM57 45V43H55V41H57V39H59V41H61V43H59V45H57ZM49 55.5C50.25 55.5 51.3127 55.0623 52.188 54.187C53.0633 53.3117 53.5007 52.2493 53.5 51C53.5 49.75 53.0623 48.6873 52.187 47.812C51.3117 46.9367 50.2493 46.4993 49 46.5C47.75 46.5 46.6873 46.9377 45.812 47.813C44.9367 48.6883 44.4993 49.7507 44.5 51C44.5 52.25 44.9377 53.3127 45.813 54.188C46.6883 55.0633 47.7507 55.5007 49 55.5ZM49 53.5C48.3 53.5 47.7083 53.2583 47.225 52.775C46.7417 52.2917 46.5 51.7 46.5 51C46.5 50.3 46.7417 49.7083 47.225 49.225C47.7083 48.7417 48.3 48.5 49 48.5C49.7 48.5 50.2917 48.7417 50.775 49.225C51.2583 49.7083 51.5 50.3 51.5 51C51.5 51.7 51.2583 52.2917 50.775 52.775C50.2917 53.2583 49.7 53.5 49 53.5Z" fill="#0B3A48"/>
</svg>
