<svg width="102" height="52" viewBox="0 0 102 52" fill="none" xmlns="http://www.w3.org/2000/svg">
<g clip-path="url(#clip0_1311_7500)">
<path fill-rule="evenodd" clip-rule="evenodd" d="M7.4069 0C5.44247 0 3.55849 0.782794 2.16943 2.17622C0.780364 3.56964 0 5.45953 0 7.43013C0 9.40073 0.780364 11.2906 2.16943 12.684C3.55849 14.0775 5.44247 14.8603 7.4069 14.8603H8.51124C9.94763 14.8619 11.3247 15.4349 12.3405 16.4537C13.3562 17.4726 13.9277 18.8539 13.9294 20.2949V44.5708C13.9248 46.4895 14.6598 48.3357 15.9808 49.7233C17.3017 51.111 19.1064 51.9326 21.0172 52.0163C22.9281 52.1 24.7972 51.4394 26.2338 50.1726C27.6703 48.9059 28.563 47.131 28.7252 45.2192C29.0227 45.0183 29.2491 44.728 29.3719 44.39C29.4947 44.052 29.5076 43.6837 29.4086 43.338C29.3097 42.9922 29.1042 42.6867 28.8214 42.4654C28.5387 42.2441 28.1933 42.1184 27.8348 42.1064C27.4764 42.0943 27.1234 42.1965 26.8265 42.3982C26.5296 42.5999 26.304 42.8908 26.1822 43.2292C26.0604 43.5675 26.0486 43.9359 26.1485 44.2814C26.2483 44.6269 26.4548 44.9317 26.7382 45.1522C26.5891 46.5366 25.9168 47.811 24.8596 48.7132C23.8023 49.6154 22.4406 50.0769 21.0545 50.0025C19.6684 49.9282 18.3634 49.3238 17.4081 48.3137C16.4527 47.3036 15.9196 45.9646 15.9185 44.5722V20.2949C15.916 18.325 15.1348 16.4365 13.7461 15.0437C12.3575 13.6508 10.4749 12.8673 8.51124 12.865H7.4069C6.69537 12.865 5.99081 12.7245 5.33345 12.4513C4.67608 12.1782 4.07874 11.7778 3.57561 11.2731C3.07248 10.7684 2.67339 10.1692 2.4011 9.50977C2.12881 8.85034 1.98869 8.14357 1.98869 7.42981C1.98869 6.71604 2.12881 6.00927 2.4011 5.34984C2.67339 4.69041 3.07248 4.09124 3.57561 3.58653C4.07874 3.08182 4.67608 2.68148 5.33345 2.40833C5.99081 2.13519 6.69537 1.99459 7.4069 1.99459H35.2491C36.6861 1.99459 38.0643 2.56723 39.0804 3.58653C40.0965 4.60583 40.6673 5.9883 40.6673 7.42981C40.6673 8.87132 40.0965 10.2538 39.0804 11.2731C38.0643 12.2924 36.6861 12.865 35.2491 12.865H34.1768C32.2132 12.8673 30.3306 13.6509 28.9421 15.0437C27.5536 16.4366 26.7725 18.325 26.7702 20.2949V33.7098L26.7749 35.3648C26.7749 35.9338 26.5496 36.4794 26.1485 36.8817C25.7475 37.284 25.2035 37.5101 24.6364 37.5101C24.0692 37.5101 23.5252 37.284 23.1241 36.8817C22.7231 36.4794 22.4978 35.9338 22.4978 35.3648V18.4101L22.5218 13.8174C22.519 11.8476 21.7374 9.95927 20.3486 8.56667C18.9597 7.17408 17.0769 6.39091 15.1132 6.38896H10.9069C10.697 6.09955 10.4011 5.88424 10.0618 5.77381C9.7224 5.66337 9.3569 5.66351 9.01762 5.77421C8.67834 5.88492 8.3827 6.10049 8.17304 6.39007C7.96337 6.67965 7.85045 7.02837 7.85045 7.38627C7.85045 7.74417 7.96337 8.09289 8.17304 8.38247C8.3827 8.67205 8.67834 8.88762 9.01762 8.99832C9.3569 9.10903 9.7224 9.10921 10.0618 8.99877C10.4011 8.88834 10.697 8.67298 10.9069 8.38357H15.1132C16.549 8.38481 17.9257 8.95709 18.9415 9.97494C19.9573 10.9928 20.5293 12.3732 20.5321 13.8134L20.5074 18.4061V35.3648C20.5074 36.4628 20.9423 37.5159 21.7163 38.2924C22.4903 39.0688 23.5401 39.505 24.6347 39.505C25.7293 39.505 26.7791 39.0688 27.5531 38.2924C28.3271 37.5159 28.762 36.4628 28.762 35.3648L28.7573 20.2949C28.759 18.8539 29.3305 17.4726 30.3462 16.4537C31.362 15.4349 32.7391 14.8619 34.1755 14.8603H35.2478C37.2122 14.8603 39.0962 14.0775 40.4853 12.684C41.8743 11.2906 42.6547 9.40073 42.6547 7.43013C42.6547 5.45953 41.8743 3.56964 40.4853 2.17622C39.0962 0.782794 37.2122 0 35.2478 0H7.4069Z" fill="url(#paint0_linear_1311_7500)"/>
<path fill-rule="evenodd" clip-rule="evenodd" d="M38.8867 20.289V18.7451H47.5612V20.2916H44.0379V34.6061H42.4301V20.289H38.8867ZM61.26 22.8736V34.6034H59.7851V32.5941C59.2348 33.3177 58.525 33.9037 57.7113 34.3061C56.8975 34.7085 56.0019 34.9164 55.0946 34.9135C54.2928 34.9335 53.4958 34.7834 52.7558 34.4732C52.0158 34.163 51.3493 33.6995 50.8001 33.1131C50.2371 32.5293 49.7953 31.839 49.5004 31.0825C49.2055 30.3259 49.0633 29.5181 49.0822 28.706C49.0642 27.8987 49.2091 27.0961 49.5081 26.3463C49.8071 25.5966 50.254 24.9152 50.8222 24.3431C51.3798 23.7633 52.0513 23.3059 52.7941 22.9999C53.537 22.6938 54.3351 22.5456 55.138 22.5649C56.0532 22.5628 56.9549 22.7852 57.7648 23.2125C58.5747 23.6399 59.2683 24.2593 59.7851 25.0169V22.8736H61.26ZM55.2595 24.0223C54.4351 23.9919 53.6195 24.2008 52.9105 24.624C52.2016 25.0472 51.6294 25.6667 51.2628 26.408C50.8444 27.125 50.6238 27.9408 50.6238 28.7717C50.6238 29.6025 50.8444 30.4183 51.2628 31.1353C51.6644 31.8647 52.2552 32.4716 52.9727 32.8914C53.6648 33.3036 54.4547 33.5211 55.2595 33.521C56.0772 33.559 56.8886 33.3606 57.5971 32.9495C58.3056 32.5383 58.8815 31.9316 59.2563 31.2016C59.6671 30.4665 59.8795 29.6365 59.8725 28.7938C59.8924 28.1668 59.7881 27.5421 59.5658 26.9558C59.3435 26.3694 59.0075 25.8332 58.5772 25.3779C58.1503 24.9305 57.6343 24.5783 57.0626 24.3443C56.491 24.1102 55.8766 23.9996 55.2595 24.0196V24.0223ZM64.4067 18.3453H65.9044V34.6034H64.4067V18.3433V18.3453ZM78.8747 30.716L80.1526 31.3784C79.4952 32.7937 78.3202 33.901 76.871 34.4708C76.1349 34.7631 75.3504 34.9131 74.5588 34.9128C73.7504 34.9412 72.9449 34.8018 72.1928 34.5034C71.4406 34.205 70.7579 33.7541 70.1875 33.1788C69.6209 32.598 69.1775 31.9081 68.8842 31.1506C68.5909 30.3931 68.4537 29.5838 68.4809 28.7717C68.4661 27.3282 68.9484 25.9239 69.8463 24.7959C70.3828 24.0797 71.0828 23.5032 71.8875 23.1149C72.6922 22.7265 73.5781 22.5377 74.4707 22.5642C75.3905 22.5339 76.3042 22.7247 77.1355 23.1209C77.9668 23.5171 78.6916 24.107 79.2493 24.8414C80.13 25.9913 80.5889 27.4105 80.5486 28.8601H70.0226C69.9895 30.0832 70.4317 31.2713 71.2558 32.1734C71.6556 32.6149 72.1462 32.964 72.6936 33.1967C73.2411 33.4293 73.8324 33.54 74.4266 33.521C75.5896 33.5733 76.7271 33.1692 77.5981 32.3945C78.0906 31.8896 78.5193 31.3259 78.8747 30.716ZM78.8747 27.5567C78.7545 26.8962 78.4801 26.2736 78.0739 25.74C77.6677 25.2063 77.1413 24.7768 76.5378 24.4864C75.9 24.1755 75.1992 24.0166 74.49 24.0223C72.3174 24.0223 70.8788 25.2004 70.1742 27.5567H78.8747ZM83.3481 22.8736H84.8891V24.974C85.364 24.2429 86.0115 23.6406 86.774 23.2206C87.5365 22.8006 88.3906 22.5758 89.2604 22.5662C90.0769 22.5171 90.8877 22.7306 91.5749 23.1755C92.2621 23.6205 92.7899 24.2738 93.0816 25.0403C93.4658 26.1768 93.6301 27.3764 93.5656 28.5747V34.6027H92.068V29.0141C92.0974 28.1048 92.0384 27.1947 91.8918 26.2968C91.792 25.5997 91.429 24.9677 90.8779 24.5314C90.3268 24.0952 89.6297 23.8879 88.9306 23.9526C88.0352 23.9413 87.1667 24.2597 86.4896 24.8474C85.793 25.4406 85.2894 26.2293 85.0434 27.112C84.9454 27.5096 84.8937 27.9173 84.8891 28.3269V34.6H83.3488L83.3481 22.8736ZM98.1038 18.5H99.6449V22.8736H102.001V24.1549H99.6402V34.6034H98.1045V24.1549H96.0347V22.8736H98.1045L98.1038 18.5Z" fill="#0D3B3F"/>
<path fill-rule="evenodd" clip-rule="evenodd" d="M42.4922 36.8197H42.8928V37.3555C43.0008 37.1682 43.1556 37.0124 43.3421 36.9035C43.5285 36.7946 43.74 36.7364 43.9557 36.7347C44.096 36.728 44.236 36.7529 44.3654 36.8076C44.4948 36.8623 44.6103 36.9454 44.7035 37.0508C44.8053 37.1812 44.8844 37.3279 44.9372 37.4848C45.0185 37.3199 45.1316 37.1729 45.2699 37.0521C45.4082 36.9314 45.5691 36.8394 45.7431 36.7815C45.8513 36.7486 45.9639 36.7328 46.077 36.7347C46.2798 36.7209 46.4815 36.7741 46.6513 36.8863C46.821 36.9984 46.9495 37.1632 47.017 37.3555C47.1075 37.6364 47.1471 37.9313 47.1339 38.2262V39.9255H46.7253V38.2356C46.7305 38.0534 46.7206 37.871 46.6959 37.6904C46.6687 37.528 46.5835 37.3811 46.4562 37.2772C46.3265 37.1755 46.1654 37.1227 46.0008 37.1278C45.8083 37.126 45.6206 37.1879 45.4667 37.304C45.3096 37.4198 45.1889 37.5783 45.1188 37.7608C45.0257 38.0701 44.9862 38.3931 45.002 38.7159V39.9348H44.6107V38.3408C44.6155 38.143 44.6036 37.9452 44.5753 37.7494C44.5652 37.5745 44.4863 37.4109 44.356 37.2944C44.2257 37.1778 44.0546 37.1179 43.8803 37.1278C43.6881 37.1236 43.4998 37.1818 43.3433 37.2939C43.1869 37.4059 43.0708 37.5657 43.0123 37.7494C42.9204 38.0288 42.8808 38.3228 42.8955 38.6167V39.9348H42.4949V36.8231L42.4922 36.8197ZM51.0672 36.8197V39.9315H50.6759V39.3957C50.5299 39.5876 50.3415 39.7429 50.1256 39.8496C49.9097 39.9563 49.6721 40.0114 49.4314 40.0105C49.2187 40.0159 49.0073 39.9761 48.811 39.8938C48.6147 39.8115 48.4379 39.6886 48.2923 39.533C48.143 39.3781 48.0259 39.1951 47.9477 38.9944C47.8696 38.7938 47.8319 38.5796 47.837 38.3642C47.8321 38.1501 47.8705 37.9372 47.9498 37.7383C48.0291 37.5394 48.1476 37.3586 48.2983 37.2068C48.4466 37.0536 48.6248 36.9328 48.8219 36.8521C49.019 36.7714 49.2306 36.7326 49.4434 36.738C49.6861 36.7375 49.9253 36.7964 50.1401 36.9098C50.3549 37.0231 50.5389 37.1874 50.6759 37.3884V36.8197H51.0672ZM49.4754 37.1245C49.2567 37.1162 49.0402 37.1715 48.8521 37.2838C48.664 37.3961 48.5122 37.5606 48.4152 37.7574C48.3041 37.9475 48.2455 38.1639 48.2455 38.3843C48.2455 38.6047 48.3041 38.8211 48.4152 39.0112C48.5213 39.2057 48.6779 39.3678 48.8685 39.4801C49.0523 39.5892 49.2619 39.6468 49.4754 39.6468C49.6923 39.6568 49.9074 39.6041 50.0953 39.4952C50.2833 39.3862 50.4361 39.2254 50.5357 39.032C50.6446 38.8368 50.7009 38.6166 50.6993 38.393C50.7044 38.2268 50.6767 38.0612 50.6177 37.9057C50.5587 37.7503 50.4695 37.6082 50.3554 37.4875C50.2421 37.3689 50.1053 37.2755 49.9536 37.2134C49.802 37.1514 49.6391 37.122 49.4754 37.1271V37.1245ZM51.9612 36.8197H52.3698V37.3763C52.4959 37.1824 52.6676 37.0227 52.87 36.9113C53.0723 36.8 53.2988 36.7404 53.5296 36.738C53.7462 36.725 53.9612 36.7816 54.1435 36.8997C54.3258 37.0177 54.4658 37.191 54.5431 37.3944C54.645 37.6959 54.6885 38.0142 54.6713 38.3321V39.9315H54.2741V38.4486C54.2818 38.2074 54.2662 37.9661 54.2273 37.7279C54.2007 37.5431 54.1043 37.3755 53.958 37.26C53.8118 37.1444 53.6268 37.0897 53.4415 37.1071C53.204 37.104 52.9738 37.1887 52.7945 37.3448C52.6091 37.5026 52.4754 37.7126 52.4106 37.9476C52.3848 38.0531 52.3711 38.1612 52.3698 38.2698V39.9342H51.9612V36.8224V36.8197ZM58.62 36.8197V39.9315H58.2287V39.3957C58.0827 39.5875 57.8945 39.7428 57.6787 39.8495C57.4629 39.9561 57.2254 40.0113 56.9848 40.0105C56.772 40.016 56.5605 39.9763 56.3641 39.894C56.1677 39.8117 55.9908 39.6887 55.8451 39.533C55.6959 39.3781 55.5788 39.195 55.5007 38.9944C55.4225 38.7937 55.3848 38.5796 55.3897 38.3642C55.3851 38.1501 55.4235 37.9372 55.5028 37.7384C55.5821 37.5395 55.7006 37.3587 55.8511 37.2068C55.9994 37.0536 56.1777 36.9329 56.3747 36.8522C56.5718 36.7715 56.7834 36.7326 56.9962 36.738C57.2389 36.7375 57.4781 36.7964 57.6929 36.9098C57.9077 37.0231 58.0916 37.1874 58.2287 37.3884V36.8197H58.62ZM57.0282 37.1245C56.8095 37.1162 56.593 37.1715 56.4049 37.2838C56.2168 37.3961 56.065 37.5606 55.968 37.7574C55.8569 37.9475 55.7983 38.1639 55.7983 38.3843C55.7983 38.6047 55.8569 38.8211 55.968 39.0112C56.0741 39.2059 56.2311 39.368 56.422 39.4801C56.6055 39.5891 56.8149 39.6467 57.0282 39.6468C57.2451 39.6568 57.4602 39.6041 57.6481 39.4952C57.836 39.3862 57.9889 39.2254 58.0885 39.032C58.1973 38.8368 58.2537 38.6166 58.2521 38.393C58.2572 38.2268 58.2295 38.0612 58.1705 37.9057C58.1115 37.7503 58.0223 37.6082 57.9082 37.4875C57.7949 37.3689 57.658 37.2755 57.5064 37.2134C57.3548 37.1514 57.1919 37.122 57.0282 37.1271V37.1245ZM62.1894 36.8197H62.598V39.2979C62.6129 39.6226 62.5734 39.9474 62.4812 40.259C62.3689 40.5514 62.1626 40.7977 61.895 40.9591C61.6273 41.1205 61.3136 41.1876 61.0036 41.1498C60.5542 41.1795 60.1112 41.03 59.7711 40.7339C59.6138 40.5735 59.4886 40.3843 59.4025 40.1766H59.8338C59.9469 40.378 60.1154 40.5426 60.3191 40.6507C60.5229 40.7587 60.7533 40.8057 60.9829 40.7861C61.1968 40.7892 61.409 40.7475 61.6058 40.6636C61.8062 40.5823 61.9716 40.4329 62.0732 40.2416C62.165 40.0049 62.2049 39.7511 62.1901 39.4975V39.3387C62.0439 39.5281 61.8554 39.6804 61.6398 39.7832C61.4242 39.8861 61.1875 39.9366 60.9488 39.9308C60.6693 39.9308 60.3946 39.8571 60.1523 39.7172C59.9096 39.5825 59.7082 39.3838 59.5701 39.1425C59.4315 38.9013 59.3598 38.6272 59.3624 38.3488C59.3647 37.9236 59.5335 37.5164 59.8324 37.2149C60.1313 36.9134 60.5364 36.7419 60.9602 36.7373C61.1983 36.7426 61.4322 36.8011 61.645 36.9085C61.8577 37.0159 62.0439 37.1695 62.1901 37.3582V36.8224L62.1894 36.8197ZM61.0176 37.1245C60.8 37.1169 60.5847 37.1705 60.3959 37.2793C60.2071 37.3881 60.0524 37.5477 59.9493 37.74C59.8347 37.9311 59.7743 38.1499 59.7744 38.3729C59.7678 38.5326 59.7954 38.6917 59.8551 38.8398C59.9149 38.9879 60.0055 39.1215 60.1209 39.2316C60.3597 39.4509 60.6747 39.5675 60.9983 39.5564C61.1598 39.5637 61.3211 39.5383 61.4727 39.482C61.6243 39.4256 61.7631 39.3393 61.8809 39.2282C61.9939 39.1127 62.0819 38.9751 62.1394 38.8238C62.1968 38.6726 62.2225 38.5111 62.2148 38.3495C62.2276 38.1339 62.179 37.9192 62.0747 37.7302C61.9705 37.5413 61.8148 37.3861 61.6259 37.2825C61.441 37.1777 61.232 37.1232 61.0196 37.1245H61.0176ZM66.0559 38.9L66.3951 39.0762C66.2212 39.4511 65.9105 39.7448 65.5271 39.8967C65.3319 39.9738 65.124 40.0133 64.9142 40.0132C64.6998 40.0206 64.4861 39.9837 64.2866 39.9046C64.0871 39.8256 63.9059 39.7061 63.7544 39.5537C63.6041 39.3996 63.4865 39.2165 63.4087 39.0155C63.3309 38.8145 63.2945 38.5998 63.3017 38.3843C63.2979 38.0014 63.4257 37.6289 63.6636 37.3294C63.806 37.1396 63.9917 36.9868 64.2051 36.8839C64.4185 36.781 64.6535 36.731 64.8902 36.738C65.1342 36.7295 65.3768 36.7799 65.5975 36.8847C65.8182 36.9896 66.0106 37.146 66.1587 37.3408C66.3923 37.646 66.5139 38.0225 66.5033 38.4071H63.711C63.7025 38.7317 63.8197 39.0469 64.0382 39.2865C64.1444 39.4034 64.2746 39.4958 64.4198 39.5574C64.5651 39.6191 64.7219 39.6484 64.8795 39.6435C65.188 39.6575 65.4898 39.5504 65.7207 39.3448C65.8515 39.2109 65.9652 39.0613 66.0593 38.8994L66.0559 38.9ZM66.0559 38.0621C66.0241 37.887 65.9515 37.722 65.8439 37.5804C65.7363 37.4388 65.5969 37.3248 65.437 37.2477C65.2676 37.1653 65.0817 37.1232 64.8935 37.1245C64.6226 37.118 64.3582 37.2089 64.1484 37.3809C63.9385 37.5529 63.7968 37.7945 63.7491 38.0621H66.0559ZM67.2417 36.8197H67.639V37.3555C67.747 37.1681 67.902 37.0122 68.0885 36.9033C68.2751 36.7944 68.4868 36.7363 68.7026 36.7347C68.8428 36.728 68.9827 36.7529 69.1119 36.8076C69.2412 36.8623 69.3567 36.9454 69.4497 37.0508C69.552 37.1809 69.6313 37.3277 69.6841 37.4848C69.7652 37.3198 69.8782 37.1726 70.0165 37.0519C70.1549 36.9311 70.3158 36.8392 70.49 36.7815C70.5981 36.7486 70.7108 36.7327 70.8238 36.7347C71.0267 36.7208 71.2285 36.7741 71.3984 36.8862C71.5683 36.9983 71.6969 37.1632 71.7646 37.3555C71.855 37.6364 71.8946 37.9313 71.8814 38.2262V39.9255H71.4728V38.2356C71.4779 38.0534 71.4681 37.871 71.4434 37.6904C71.416 37.5281 71.3308 37.3813 71.2037 37.2772C71.0739 37.1757 70.9129 37.1229 70.7484 37.1278C70.5559 37.126 70.3681 37.1879 70.2142 37.304C70.0576 37.42 69.9371 37.5785 69.867 37.7608C69.7739 38.0701 69.7344 38.3931 69.7502 38.7159V39.9348H69.3583V38.3408C69.3631 38.143 69.3515 37.9452 69.3235 37.7494C69.3132 37.5746 69.2343 37.4111 69.104 37.2946C68.9737 37.1781 68.8027 37.1181 68.6285 37.1278C68.4363 37.1237 68.248 37.182 68.0916 37.294C67.9352 37.406 67.819 37.5657 67.7605 37.7494C67.6689 38.0289 67.6293 38.3229 67.6437 38.6167V39.9348H67.2464V36.8231L67.2417 36.8197ZM75.3327 38.9L75.6712 39.0762C75.4973 39.4511 75.1866 39.7448 74.8032 39.8967C74.608 39.9738 74.4 40.0133 74.1903 40.0132C73.9758 40.0207 73.7622 39.9837 73.5627 39.9047C73.3631 39.8256 73.182 39.7062 73.0305 39.5537C72.8802 39.3996 72.7626 39.2165 72.6848 39.0155C72.607 38.8145 72.5706 38.5998 72.5778 38.3843C72.5738 38.0013 72.7019 37.6286 72.9404 37.3294C73.0826 37.1395 73.2683 36.9866 73.4817 36.8837C73.6952 36.7808 73.9302 36.7308 74.1669 36.738C74.411 36.7295 74.6535 36.7798 74.8743 36.8847C75.095 36.9895 75.2874 37.146 75.4355 37.3408C75.6693 37.6459 75.7912 38.0224 75.7807 38.4071H72.9884C72.9796 38.7316 73.0967 39.0468 73.3149 39.2865C73.4212 39.4034 73.5514 39.4958 73.6966 39.5574C73.8418 39.619 73.9986 39.6484 74.1562 39.6435C74.4647 39.6575 74.7665 39.5504 74.9975 39.3448C75.1283 39.2108 75.2422 39.0612 75.3367 38.8994L75.3327 38.9ZM75.3327 38.0621C75.3006 37.887 75.2278 37.722 75.1201 37.5805C75.0124 37.439 74.873 37.3249 74.713 37.2477C74.5439 37.1654 74.3582 37.1233 74.1702 37.1245C73.8992 37.1178 73.6347 37.2087 73.4247 37.3807C73.2146 37.5527 73.0729 37.7944 73.0252 38.0621H75.3327ZM76.5184 36.8197H76.9271V37.3763C77.0531 37.1824 77.2249 37.0227 77.4272 36.9113C77.6295 36.8 77.8561 36.7404 78.0868 36.738C78.3034 36.725 78.5185 36.7816 78.7008 36.8997C78.883 37.0177 79.023 37.191 79.1004 37.3944C79.2022 37.6959 79.2457 38.0142 79.2286 38.3321V39.9315H78.8313V38.4486C78.8391 38.2074 78.8234 37.9661 78.7846 37.7279C78.758 37.5432 78.6617 37.3758 78.5155 37.2602C78.3694 37.1447 78.1846 37.0899 77.9994 37.1071C77.7617 37.1039 77.5312 37.1885 77.3517 37.3448C77.1664 37.5026 77.0326 37.7126 76.9678 37.9476C76.942 38.0531 76.9283 38.1612 76.9271 38.2698V39.9342H76.5184V36.8224V36.8197ZM80.4324 35.6597H80.841V36.8197H81.466V37.16H80.841V39.9315H80.4324V37.16H79.8829V36.8197H80.4324V35.6597Z" fill="#0D3B3F"/>
</g>
<defs>
<linearGradient id="paint0_linear_1311_7500" x1="21.3273" y1="0" x2="21.3273" y2="70.9079" gradientUnits="userSpaceOnUse">
<stop stop-color="#A3F5B7"/>
<stop offset="1" stop-color="#41AAD2"/>
</linearGradient>
<clipPath id="clip0_1311_7500">
<rect width="102" height="52" fill="white"/>
</clipPath>
</defs>
</svg>
